<svg width="24" height="24" viewBox="0 0 24 24" fill="none" xmlns="http://www.w3.org/2000/svg">
<path d="M7 9L11.7707 4.73514C13.0647 3.57838 13.7117 3 14.5 3C15.2883 3 15.9353 3.57838 17.2293 4.73514L22 9" stroke="white" stroke-width="1.5" stroke-linecap="round" stroke-linejoin="round"/>
<path d="M8.5 8V20M20.5 20V8" stroke="white" stroke-width="1.5" stroke-linecap="round" stroke-linejoin="round"/>
<path d="M3.5 14C4.32843 14 5 13.1046 5 12C5 10.8954 4.32843 10 3.5 10C2.67157 10 2 10.8954 2 12C2 13.1046 2.67157 14 3.5 14Z" stroke="white" stroke-width="1.5"/>
<path d="M3.5 14V20" stroke="white" stroke-width="1.5" stroke-linecap="round"/>
<path d="M2 20H22" stroke="white" stroke-width="1.5" stroke-linecap="round" stroke-linejoin="round"/>
<path d="M12 20V15.9997C12 15.0571 12 14.5858 12.2929 14.2929C12.5858 14 13.0572 14 14 14H15C15.9428 14 16.4142 14 16.7071 14.2929C17 14.5858 17 15.0572 17 16V20" stroke="white" stroke-width="1.5" stroke-linecap="round" stroke-linejoin="round"/>
<path d="M13.5 11H15.5M13.5 8H15.5" stroke="white" stroke-width="1.5" stroke-linecap="round" stroke-linejoin="round"/>
</svg>
