<svg width="1024" height="1024" viewBox="0 0 1024 1024" fill="none" xmlns="http://www.w3.org/2000/svg">
<rect width="1024" height="1024" rx="512" fill="#0055F1"/>
<path d="M313.77 374.8C341.37 374.8 366.17 380.8 388.17 392.8C410.17 404.8 427.37 422.4 439.77 445.6C452.17 468.4 458.37 496 458.37 528.4V676C458.37 684.8 455.37 692.2 449.37 698.2C443.77 703.8 436.57 706.6 427.77 706.6C418.97 706.6 411.57 703.8 405.57 698.2C399.97 692.2 397.17 684.8 397.17 676V528.4C397.17 496 388.37 471.6 370.77 455.2C353.57 438.4 330.57 430 301.77 430C284.97 430 269.57 433.4 255.57 440.2C241.97 447 231.17 456.2 223.17 467.8C215.57 479.4 211.77 492.4 211.77 506.8V676C211.77 684.8 208.97 692.2 203.37 698.2C197.77 703.8 190.37 706.6 181.17 706.6C172.37 706.6 164.97 703.8 158.97 698.2C153.37 692.2 150.57 684.8 150.57 676V408.4C150.57 399.2 153.37 391.8 158.97 386.2C164.97 380.6 172.37 377.8 181.17 377.8C190.37 377.8 197.77 380.6 203.37 386.2C208.97 391.8 211.77 399.2 211.77 408.4V415C224.57 402.2 239.77 392.4 257.37 385.6C274.97 378.4 293.77 374.8 313.77 374.8ZM842.755 237.4C851.955 237.4 859.355 240.2 864.955 245.8C870.555 251.4 873.355 258.8 873.355 268V541.6C873.355 572.8 865.955 601.2 851.155 626.8C836.755 652 816.955 672 791.755 686.8C766.955 701.2 739.155 708.4 708.355 708.4C677.555 708.4 649.355 701.2 623.755 686.8C598.555 672 578.755 652 564.355 626.8C549.955 601.2 542.755 572.8 542.755 541.6C542.755 510.4 549.355 482.2 562.555 457C576.155 431.4 594.555 411.4 617.755 397C641.355 382.6 667.555 375.4 696.355 375.4C719.555 375.4 741.155 380.2 761.155 389.8C781.155 399.4 798.155 412.8 812.155 430V268C812.155 258.8 814.955 251.4 820.555 245.8C826.555 240.2 833.955 237.4 842.755 237.4ZM708.355 654.4C728.355 654.4 746.355 649.6 762.355 640C778.755 630 791.555 616.4 800.755 599.2C809.955 582 814.555 562.8 814.555 541.6C814.555 520.4 809.955 501.4 800.755 484.6C791.555 467.4 778.755 454 762.355 444.4C746.355 434.4 728.355 429.4 708.355 429.4C688.355 429.4 670.155 434.4 653.755 444.4C637.755 454 624.955 467.4 615.355 484.6C606.155 501.4 601.555 520.4 601.555 541.6C601.555 562.8 606.155 582 615.355 599.2C624.955 616.4 637.755 630 653.755 640C670.155 649.6 688.355 654.4 708.355 654.4Z" fill="white"/>
</svg>
