<svg width="333" height="396" viewBox="0 0 333 396" fill="none" xmlns="http://www.w3.org/2000/svg">
<path d="M6.816 59.6C16.176 59.6 29.28 61.76 29.28 78.8C29.28 95.216 16.368 98 6.816 98H0.528C0.24 98 0 97.76 0 97.568V82.496H7.344V90.944C12 91.136 21.888 90.656 21.888 78.8C21.888 69.68 15.696 66.176 7.344 66.608V75.104H0V60.032C0 59.84 0.24 59.6 0.528 59.6H6.816ZM56.958 97.376C57.102 97.712 56.91 98 56.526 98H49.662C49.518 98 49.23 97.856 49.182 97.712L42.174 82.496H38.046V97.568C38.046 97.76 37.806 98 37.518 98H31.23C30.99 98 30.75 97.76 30.75 97.568V75.44H38.046H43.662C45.246 75.44 49.326 75.248 49.326 71.024C49.326 66.8 44.814 66.56 43.662 66.56H38.046H30.75V60.032C30.75 59.84 30.99 59.6 31.23 59.6H43.662C45.822 59.6 56.622 59.696 56.622 71.024C56.622 76.88 53.406 79.952 49.566 81.344C51.966 86.768 54.558 92.048 56.958 97.376ZM76.5994 90.848V98H58.8874C58.5994 98 58.3594 97.76 58.3594 97.568V60.032C58.3594 59.84 58.5994 59.6 58.8874 59.6H76.5994V66.56H65.7034V75.248H80.7754C81.0634 75.248 81.3034 75.44 81.3034 75.68V81.776C81.3034 81.968 81.0634 82.208 80.7754 82.208H65.7034V90.848H76.5994ZM112.597 97.424C112.741 97.712 112.501 98 112.165 98H105.541C105.397 98 105.157 97.904 105.109 97.712L97.5251 76.304L90.0371 97.712C89.9891 97.904 89.7491 98 89.5571 98H82.9811C82.5491 98 82.3571 97.712 82.5011 97.424L97.0451 59.888C97.1891 59.504 97.8611 59.504 98.0051 59.888L112.597 97.424ZM148.509 88.736V76.544L138.717 96.176C138.669 96.32 138.429 96.464 138.285 96.464H132.381C132.237 96.464 131.949 96.32 131.901 96.176L121.485 76.016V97.568C121.485 97.76 121.245 98 120.957 98H114.621C114.285 98 114.141 97.76 114.141 97.568V60.032C114.141 59.84 114.285 59.6 114.621 59.6H121.053C121.197 59.6 121.485 59.744 121.533 59.888L135.309 88.016L148.413 59.888C148.509 59.744 148.749 59.6 148.941 59.6H155.277C155.613 59.6 155.805 59.84 155.805 60.032V88.736H148.509ZM176.738 59.6C186.098 59.6 199.202 61.76 199.202 78.8C199.202 95.216 186.29 98 176.738 98H170.45C170.162 98 169.922 97.76 169.922 97.568V82.496H177.266V90.944C181.922 91.136 191.81 90.656 191.81 78.8C191.81 69.68 185.618 66.176 177.266 66.608V75.104H169.922V60.032C169.922 59.84 170.162 59.6 170.45 59.6H176.738ZM218.912 90.848V98H201.2C200.912 98 200.672 97.76 200.672 97.568V60.032C200.672 59.84 200.912 59.6 201.2 59.6H218.912V66.56H208.016V75.248H223.088C223.376 75.248 223.616 75.44 223.616 75.68V81.776C223.616 81.968 223.376 82.208 223.088 82.208H208.016V90.848H218.912ZM254.91 97.424C255.054 97.712 254.814 98 254.478 98H247.854C247.71 98 247.47 97.904 247.422 97.712L239.838 76.304L232.35 97.712C232.302 97.904 232.062 98 231.87 98H225.294C224.862 98 224.67 97.712 224.814 97.424L239.358 59.888C239.502 59.504 240.174 59.504 240.318 59.888L254.91 97.424ZM277.189 90.848C277.525 90.848 277.717 91.088 277.717 91.328V97.568C277.717 97.76 277.525 98 277.189 98H256.981C256.693 98 256.453 97.76 256.453 97.568V90.848H263.797H277.189ZM263.797 83.504H256.453V60.032C256.453 59.84 256.693 59.6 256.981 59.6H263.317C263.605 59.6 263.797 59.84 263.797 60.032V83.504ZM18.72 129.024C18.72 124.416 13.056 124.464 13.056 124.464H7.296V133.248H13.056C13.056 133.248 18.72 133.248 18.72 129.024ZM26.064 128.592C26.064 133.056 23.664 135.6 20.736 136.8C26.832 138.864 26.592 144.816 26.592 144.816C26.592 155.52 15.648 156 13.056 156H7.344V148.992H13.056C15.456 148.992 19.248 148.32 19.248 144.624C19.248 140.112 13.056 140.4 13.056 140.4H7.296H0V118.032C0 117.84 0.24 117.6 0.528 117.6H13.056C13.056 117.6 26.064 117.312 26.064 128.592ZM46.1775 148.848V156H28.4655C28.1775 156 27.9375 155.76 27.9375 155.568V118.032C27.9375 117.84 28.1775 117.6 28.4655 117.6H46.1775V124.56H35.2815V133.248H50.3535C50.6415 133.248 50.8815 133.44 50.8815 133.68V139.776C50.8815 139.968 50.6415 140.208 50.3535 140.208H35.2815V148.848H46.1775ZM73.9673 148.944H81.3113V155.568C81.3113 155.76 81.1193 156 80.7833 156H74.5433C64.9913 156 52.0312 153.216 52.0312 136.8C52.0312 119.76 65.1353 117.6 74.5433 117.6H80.7833C81.1193 117.6 81.3113 117.84 81.3113 118.032V133.104H73.9673V124.608C65.6153 124.176 59.4233 127.68 59.4233 136.8C59.4233 148.656 69.3113 149.136 73.9673 148.944ZM104.861 136.896C104.861 138.864 103.277 140.496 101.261 140.496C99.2453 140.496 97.6613 138.864 97.6613 136.896C97.6613 134.88 99.2453 133.248 101.261 133.248C103.277 133.248 104.861 134.88 104.861 136.896ZM119.741 136.752C119.741 146.352 113.549 156 101.309 156C88.8773 156 82.7812 146.352 82.7812 136.752C82.7812 127.2 88.8773 117.6 101.309 117.6C113.549 117.6 119.741 127.2 119.741 136.752ZM112.541 136.896C112.541 130.608 108.749 124.368 101.309 124.368C93.7733 124.368 90.0293 130.608 90.0293 136.896C90.0293 143.088 93.7733 149.28 101.309 149.28C108.749 149.28 112.541 143.088 112.541 136.896ZM155.915 146.736V134.544L146.123 154.176C146.075 154.32 145.835 154.464 145.691 154.464H139.787C139.643 154.464 139.355 154.32 139.307 154.176L128.891 134.016V155.568C128.891 155.76 128.651 156 128.363 156H122.027C121.691 156 121.547 155.76 121.547 155.568V118.032C121.547 117.84 121.691 117.6 122.027 117.6H128.459C128.603 117.6 128.891 117.744 128.939 117.888L142.715 146.016L155.819 117.888C155.915 117.744 156.155 117.6 156.347 117.6H162.683C163.019 117.6 163.211 117.84 163.211 118.032V146.736H155.915ZM183.568 148.848V156H165.856C165.568 156 165.328 155.76 165.328 155.568V118.032C165.328 117.84 165.568 117.6 165.856 117.6H183.568V124.56H172.672V133.248H187.744C188.032 133.248 188.272 133.44 188.272 133.68V139.776C188.272 139.968 188.032 140.208 187.744 140.208H172.672V148.848H183.568ZM207.038 134.688C211.07 136.56 213.278 140.304 213.278 144.816C213.278 152.016 207.518 156 201.374 156C201.374 156 201.374 156 201.326 156V149.088C201.374 149.088 201.374 149.088 201.374 149.088C203.918 149.088 206.174 147.36 206.174 144.816C206.174 141.984 203.534 140.256 201.374 140.16C201.038 140.16 198.446 140.16 195.662 138.864C191.678 137.04 189.422 133.632 189.422 129.168C189.422 121.968 195.23 117.6 201.374 117.6C207.95 117.6 213.038 122.016 213.134 128.544C213.182 128.688 212.942 128.928 212.606 128.928H206.606C206.318 128.928 206.078 128.688 206.078 128.544C205.982 125.808 203.87 124.512 201.374 124.512C198.734 124.512 196.574 126.096 196.574 129.168C196.574 131.952 198.926 133.392 201.374 133.392C201.614 133.392 204.302 133.392 207.038 134.688ZM234.42 131.52H241.716V155.568C241.716 155.76 241.476 156 241.14 156H234.948C234.612 156 234.42 155.76 234.42 155.568V131.52ZM227.028 124.176C226.74 124.176 226.5 123.984 226.5 123.744V118.032C226.5 117.84 226.74 117.6 227.028 117.6H249.06C249.396 117.6 249.588 117.84 249.588 118.032V123.744C249.588 123.984 249.396 124.176 249.06 124.176H227.028ZM276.942 155.376C277.086 155.712 276.894 156 276.51 156H269.646C269.502 156 269.214 155.856 269.166 155.712L262.158 140.496H258.03V155.568C258.03 155.76 257.79 156 257.502 156H251.214C250.974 156 250.734 155.76 250.734 155.568V133.44H258.03H263.646C265.23 133.44 269.31 133.248 269.31 129.024C269.31 124.8 264.798 124.56 263.646 124.56H258.03H250.734V118.032C250.734 117.84 250.974 117.6 251.214 117.6H263.646C265.806 117.6 276.606 117.696 276.606 129.024C276.606 134.88 273.39 137.952 269.55 139.344C271.95 144.768 274.542 150.048 276.942 155.376ZM306.664 117.6C306.904 117.6 307.144 117.84 307.144 118.032V143.184C307.144 151.296 300.904 156 292.744 156C284.824 156 278.344 151.104 278.344 143.184V124.56H285.592V143.136C286.024 146.928 289.192 148.944 292.744 148.944C296.344 148.944 299.896 147.072 299.896 143.184V118.032C299.896 117.84 300.088 117.6 300.424 117.6H306.664ZM326.818 148.848V156H309.106C308.818 156 308.578 155.76 308.578 155.568V118.032C308.578 117.84 308.818 117.6 309.106 117.6H326.818V124.56H315.922V133.248H330.994C331.282 133.248 331.522 133.44 331.522 133.68V139.776C331.522 139.968 331.282 140.208 330.994 140.208H315.922V148.848H326.818Z" fill="#949494"/>
<path d="M1.08 196.5V183.9H5.337C7.173 183.9 8.649 185.061 8.649 187.095C8.649 188.247 7.947 189.336 7.182 189.552C8.676 189.948 9.315 191.586 9.315 192.945C9.315 195.078 7.776 196.5 5.895 196.5H1.08ZM2.34 189.075H5.229C6.417 189.075 7.389 188.355 7.389 187.086C7.389 185.7 6.417 185.025 5.229 185.025H2.34V189.075ZM2.34 195.375H5.796C7.101 195.375 8.163 194.259 8.163 192.756C8.163 191.424 7.101 190.182 5.796 190.182H2.34V195.375ZM10.9589 193.053V187.5H12.2189V192.801C12.2189 194.277 13.4159 195.465 14.8829 195.465C16.3499 195.465 17.5379 194.277 17.5379 192.801V187.5H18.7979L18.8069 196.5H17.5469L17.5379 195.24C16.8989 196.149 15.8369 196.734 14.6399 196.734C12.6059 196.734 10.9589 195.087 10.9589 193.053ZM21.5992 185.925C21.1852 185.925 20.8702 185.628 20.8702 185.214C20.8702 184.809 21.1852 184.503 21.5992 184.503C21.9952 184.503 22.3192 184.809 22.3192 185.214C22.3192 185.628 22.0042 185.925 21.5992 185.925ZM20.9602 187.5H22.2202V196.5H20.9602V187.5ZM24.8182 196.5V183H26.0782V196.5H24.8182ZM33.2049 188.76H31.0539L31.0449 196.5H29.7849L29.7939 188.76H28.1649V187.5H29.7939L29.7849 184.674H31.0449L31.0539 187.5H33.2049V188.76ZM43.6262 196.5H42.3302L39.3152 187.5H40.5482L42.9962 194.754L45.4262 187.5H46.7582L49.1882 194.754L51.6182 187.5H52.8602L49.8452 196.5H48.5402L46.0742 189.174L43.6262 196.5ZM55.3562 185.925C54.9422 185.925 54.6272 185.628 54.6272 185.214C54.6272 184.809 54.9422 184.503 55.3562 184.503C55.7522 184.503 56.0762 184.809 56.0762 185.214C56.0762 185.628 55.7612 185.925 55.3562 185.925ZM54.7172 187.5H55.9772V196.5H54.7172V187.5ZM63.1039 188.76H60.9529L60.9439 196.5H59.6839L59.6929 188.76H58.0639V187.5H59.6929L59.6839 184.674H60.9439L60.9529 187.5H63.1039V188.76ZM72.918 190.929V196.5H71.658V191.181C71.658 189.705 70.461 188.517 68.994 188.517C67.527 188.517 66.33 189.705 66.33 191.181V196.5H65.07V183H66.33V188.742C66.969 187.833 68.04 187.248 69.237 187.248C71.271 187.248 72.918 188.895 72.918 190.929Z" fill="black"/>
<path d="M96.2182 183.328C93.9834 181.958 92.033 182.51 90.8613 183.39C90.3808 183.751 90.1407 183.931 89.9993 183.931C89.858 183.931 89.6178 183.751 89.1373 183.39C87.9657 182.51 86.0153 181.958 83.7805 183.328C80.8477 185.127 80.1841 191.062 86.949 196.07C88.2374 197.023 88.8817 197.5 89.9993 197.5C91.117 197.5 91.7613 197.023 93.0498 196.07C99.8146 191.062 99.1509 185.127 96.2182 183.328Z" fill="#FF0054" stroke="#FF0054" stroke-width="1.5" stroke-linecap="round"/>
<path d="M107.719 185.925C107.305 185.925 106.99 185.628 106.99 185.214C106.99 184.809 107.305 184.503 107.719 184.503C108.115 184.503 108.439 184.809 108.439 185.214C108.439 185.628 108.124 185.925 107.719 185.925ZM107.08 187.5H108.34V196.5H107.08V187.5ZM118.681 190.929V196.5H117.421V191.181C117.421 189.705 116.224 188.517 114.757 188.517C113.29 188.517 112.093 189.705 112.093 191.181V196.5H110.833V187.5H112.093V188.742C112.732 187.833 113.803 187.248 115 187.248C117.034 187.248 118.681 188.895 118.681 190.929ZM125.527 196.5V183.9H129.784C131.62 183.9 133.096 185.061 133.096 187.095C133.096 188.247 132.394 189.336 131.629 189.552C133.123 189.948 133.762 191.586 133.762 192.945C133.762 195.078 132.223 196.5 130.342 196.5H125.527ZM126.787 189.075H129.676C130.864 189.075 131.836 188.355 131.836 187.086C131.836 185.7 130.864 185.025 129.676 185.025H126.787V189.075ZM126.787 195.375H130.243C131.548 195.375 132.61 194.259 132.61 192.756C132.61 191.424 131.548 190.182 130.243 190.182H126.787V195.375ZM143.614 190.929V196.5H142.354V191.181C142.354 189.705 141.157 188.517 139.69 188.517C138.223 188.517 137.026 189.705 137.026 191.181V196.5H135.766V183H137.026V188.742C137.665 187.833 138.736 187.248 139.933 187.248C141.967 187.248 143.614 188.895 143.614 190.929ZM149.561 196.734C147.077 196.734 145.061 194.61 145.061 192C145.061 189.372 147.077 187.248 149.561 187.248C152.045 187.248 154.061 189.372 154.061 192C154.061 194.61 152.045 196.734 149.561 196.734ZM149.561 195.474C151.388 195.474 152.801 193.863 152.801 192C152.801 190.11 151.37 188.508 149.561 188.508C147.725 188.508 146.321 190.119 146.321 192C146.321 193.944 147.797 195.474 149.561 195.474ZM157.205 201H155.945V187.5H157.205V189.183C157.826 188.04 158.924 187.266 160.409 187.266C163.028 187.266 165.143 189.39 165.143 192C165.143 194.628 163.028 196.752 160.409 196.752C158.924 196.752 157.826 195.978 157.205 194.835V201ZM160.4 188.49C158.51 188.49 157.304 190.047 157.304 192C157.304 193.935 158.483 195.519 160.4 195.519C162.272 195.519 163.865 193.98 163.865 192C163.865 190.074 162.317 188.49 160.4 188.49ZM174.338 187.5H175.598V196.5H174.338L174.293 194.826C173.708 195.969 172.637 196.734 171.17 196.734C168.533 196.734 166.4 194.592 166.4 191.955C166.4 189.354 168.497 187.248 171.089 187.248C172.592 187.248 173.726 188.031 174.383 189.183L174.338 187.5ZM171.143 195.51C173.069 195.51 174.239 193.935 174.239 192C174.239 190.029 173.042 188.481 171.143 188.481C169.226 188.481 167.687 190.056 167.687 192C167.687 193.971 169.28 195.51 171.143 195.51ZM177.882 196.5V183H179.142V196.5H177.882ZM181.31 197.508L181.868 194.466H183.128L182.147 197.508H181.31ZM190.605 196.5V183.9H191.865V196.5H190.605ZM202.498 190.929V196.5H201.238V191.181C201.238 189.705 200.041 188.517 198.574 188.517C197.107 188.517 195.91 189.705 195.91 191.181V196.5H194.65V187.5H195.91V188.742C196.549 187.833 197.62 187.248 198.817 187.248C200.851 187.248 202.498 188.895 202.498 190.929ZM211.892 183H213.152V196.5H211.892V194.817C211.271 195.969 210.164 196.734 208.679 196.734C206.069 196.734 203.945 194.61 203.945 192C203.945 189.381 206.069 187.257 208.679 187.257C210.164 187.257 211.271 188.022 211.892 189.165V183ZM208.688 195.51C210.614 195.51 211.784 193.935 211.784 192C211.784 190.029 210.587 188.481 208.688 188.481C206.78 188.481 205.232 190.056 205.232 192C205.232 193.971 206.825 195.51 208.688 195.51ZM216.312 185.925C215.898 185.925 215.583 185.628 215.583 185.214C215.583 184.809 215.898 184.503 216.312 184.503C216.708 184.503 217.032 184.809 217.032 185.214C217.032 185.628 216.717 185.925 216.312 185.925ZM215.673 187.5H216.933V196.5H215.673V187.5ZM226.771 187.5H228.031V196.5H226.771L226.726 194.826C226.141 195.969 225.07 196.734 223.603 196.734C220.966 196.734 218.833 194.592 218.833 191.955C218.833 189.354 220.93 187.248 223.522 187.248C225.025 187.248 226.159 188.031 226.816 189.183L226.771 187.5ZM223.576 195.51C225.502 195.51 226.672 193.935 226.672 192C226.672 190.029 225.475 188.481 223.576 188.481C221.659 188.481 220.12 190.056 220.12 192C220.12 193.971 221.713 195.51 223.576 195.51Z" fill="black"/>
</svg>
