<svg width="111" height="28" viewBox="0 0 111 28" fill="none" xmlns="http://www.w3.org/2000/svg">
<mask id="mask0_1684_6933" style="mask-type:luminance" maskUnits="userSpaceOnUse" x="0" y="0" width="111" height="28">
<path d="M111 0.835938H0V27.1637H111V0.835938Z" fill="white"/>
</mask>
<g mask="url(#mask0_1684_6933)">
<mask id="mask1_1684_6933" style="mask-type:luminance" maskUnits="userSpaceOnUse" x="-45" y="-75" width="193" height="213">
<path d="M147.998 -74.8564H-45V137.186H147.998V-74.8564Z" fill="white"/>
</mask>
<g mask="url(#mask1_1684_6933)">
<path d="M16.0628 6.05859V26.8652H12.6043L4.36529 13.7697H4.22658V26.8652H0.222656V6.05859H3.7365L11.9108 19.1439H12.0772V6.05859H16.0628ZM19.3708 26.8652V6.05859H32.1317V9.68548H23.3747V14.6433H31.475V18.2703H23.3747V23.2381H32.1686V26.8652H19.3708ZM39.0692 6.05859L42.8882 13.1498H43.0361L46.8735 6.05859H51.3953L45.616 16.4619L51.5247 26.8652H46.9198L43.0361 19.7637H42.8882L39.0044 26.8652H34.4178L40.3451 16.4619L34.5288 6.05859H39.0692ZM53.2077 9.68548V6.05859H68.7611V9.68548H62.9632V26.8652H59.0055V9.68548H53.2077Z" fill="#002260"/>
<path d="M65.4718 27.0167C65.1207 27.0167 64.8192 26.8802 64.5675 26.6076C64.3194 26.331 64.1953 25.9999 64.1953 25.6141C64.1953 25.2324 64.3194 24.9052 64.5675 24.6326C64.8192 24.3598 65.1207 24.2235 65.4718 24.2235C65.8122 24.2235 66.11 24.3598 66.3653 24.6326C66.6206 24.9052 66.7482 25.2324 66.7482 25.6141C66.7482 25.8712 66.6879 26.107 66.5673 26.3212C66.4504 26.5316 66.2962 26.701 66.1047 26.8295C65.9133 26.9543 65.7022 27.0167 65.4718 27.0167ZM71.6186 27.0107C70.9981 27.0107 70.4361 26.8355 69.9327 26.4849C69.4326 26.1304 69.0356 25.6104 68.7414 24.9246C68.4505 24.2351 68.3052 23.3899 68.3052 22.3885C68.3052 21.3601 68.4559 20.5053 68.7572 19.8235C69.0586 19.1378 69.4592 18.6255 69.9592 18.2867C70.4627 17.9439 71.0141 17.7725 71.6133 17.7725C72.0706 17.7725 72.4519 17.8581 72.7567 18.0296C73.0653 18.1971 73.3134 18.4074 73.5013 18.6606C73.6927 18.9099 73.8383 19.1554 73.9375 19.3968H74.0066V14.8975H76.2669V26.8647H74.0331V25.4271H73.9375C73.8311 25.6765 73.6805 25.9239 73.4855 26.1693C73.294 26.4108 73.044 26.6115 72.7354 26.7712C72.4306 26.9309 72.0582 27.0107 71.6186 27.0107ZM72.3366 25.0298C72.7019 25.0298 73.0103 24.9208 73.262 24.7025C73.5173 24.4806 73.7123 24.1709 73.8471 23.7736C73.9853 23.3762 74.0544 22.9106 74.0544 22.377C74.0544 21.8433 73.9872 21.3798 73.8524 20.9862C73.7176 20.5927 73.5225 20.2889 73.2672 20.0746C73.012 19.8605 72.7019 19.7534 72.3366 19.7534C71.9643 19.7534 71.6505 19.8643 71.3952 20.0864C71.1399 20.3083 70.9467 20.6161 70.8155 21.0095C70.6842 21.4031 70.6188 21.8588 70.6188 22.377C70.6188 22.899 70.6842 23.3605 70.8155 23.7618C70.9503 24.1592 71.1435 24.4709 71.3952 24.6967C71.6505 24.9189 71.9643 25.0298 72.3366 25.0298ZM81.8529 27.0401C81.0122 27.0401 80.2892 26.8531 79.6832 26.4791C79.0802 26.1012 78.6152 25.5674 78.2889 24.8779C77.9634 24.1846 77.7999 23.3645 77.7999 22.4179C77.7999 21.4946 77.9634 20.6844 78.2889 19.9871C78.6152 19.2898 79.0749 18.7462 79.6667 18.3568C80.2622 17.9673 80.9612 17.7725 81.7622 17.7725C82.3014 17.7725 82.8032 17.8678 83.2674 18.0587C83.7354 18.2457 84.1434 18.5282 84.4907 18.9059C84.8417 19.2838 85.1147 19.7591 85.3097 20.3317C85.5047 20.9005 85.6022 21.5668 85.6022 22.3302V23.0138H78.7044V21.4712H83.4699C83.4699 21.113 83.3987 20.7955 83.2569 20.5188C83.1152 20.2422 82.9179 20.026 82.6667 19.8702C82.4184 19.7105 82.1297 19.6305 81.7997 19.6305C81.4554 19.6305 81.1509 19.7182 80.8847 19.8936C80.6222 20.0649 80.4167 20.2967 80.2674 20.5888C80.1189 20.8772 80.0424 21.1986 80.0394 21.5531V23.0197C80.0394 23.4638 80.1137 23.8477 80.2622 24.1709C80.4152 24.4943 80.6297 24.7435 80.9057 24.9189C81.1824 25.0941 81.5102 25.1817 81.8897 25.1817C82.1417 25.1817 82.3719 25.1429 82.5812 25.0649C82.7904 24.9869 82.9697 24.8701 83.1182 24.7143C83.2674 24.5585 83.3807 24.3676 83.4587 24.1418L85.5542 24.2936C85.4484 24.8467 85.2302 25.3298 84.9002 25.7428C84.5739 26.1517 84.1524 26.4712 83.6342 26.701C83.1204 26.9269 82.5264 27.0401 81.8529 27.0401ZM89.4107 27.0341C88.8894 27.0341 88.4244 26.9348 88.0172 26.736C87.6092 26.5335 87.2867 26.2354 87.0489 25.842C86.8149 25.4447 86.6979 24.9499 86.6979 24.3579C86.6979 23.8592 86.7812 23.4404 86.9477 23.1015C87.1142 22.7627 87.3414 22.4899 87.6287 22.2835C87.9159 22.077 88.2422 21.9211 88.6074 21.816C88.9757 21.7108 89.3627 21.6369 89.7669 21.5938C90.2417 21.5395 90.6249 21.4888 90.9152 21.442C91.2062 21.3914 91.4169 21.3173 91.5482 21.2199C91.6794 21.1227 91.7454 20.9785 91.7454 20.7876V20.7524C91.7454 20.3824 91.6389 20.0961 91.4259 19.8936C91.2167 19.6909 90.9189 19.5897 90.5327 19.5897C90.1247 19.5897 89.8007 19.689 89.5592 19.8876C89.3184 20.0825 89.1587 20.328 89.0807 20.624L86.9852 20.437C87.0917 19.8915 87.3009 19.4202 87.6129 19.0228C87.9249 18.6217 88.3269 18.3139 88.8197 18.0997C89.3162 17.8815 89.8907 17.7725 90.5432 17.7725C90.9969 17.7725 91.4312 17.8308 91.8459 17.9476C92.2644 18.0645 92.6349 18.2457 92.9582 18.4912C93.2837 18.7365 93.5409 19.0521 93.7292 19.4378C93.9167 19.8195 94.0112 20.2773 94.0112 20.8109V26.8647H91.8624V25.6201H91.7987C91.6674 25.9006 91.4919 26.148 91.2722 26.362C91.0517 26.5724 90.7877 26.738 90.4794 26.8589C90.1712 26.9757 89.8142 27.0341 89.4107 27.0341ZM90.0594 25.3163C90.3924 25.3163 90.6864 25.244 90.9422 25.0999C91.1972 24.9519 91.3974 24.7532 91.5429 24.504C91.6884 24.2547 91.7612 23.9721 91.7612 23.6567V22.7042C91.6899 22.7549 91.5924 22.8016 91.4687 22.8444C91.3479 22.8833 91.2114 22.9204 91.0592 22.9555C90.9069 22.9866 90.7539 23.0159 90.6017 23.043C90.4494 23.0664 90.3107 23.0879 90.1869 23.1074C89.9207 23.1501 89.6889 23.2184 89.4902 23.3119C89.2914 23.4054 89.1377 23.532 89.0274 23.6917C88.9172 23.8477 88.8624 24.0422 88.8624 24.276C88.8624 24.615 88.9742 24.874 89.1977 25.0531C89.4242 25.2286 89.7114 25.3163 90.0594 25.3163ZM98.0342 14.8975V26.8647H95.7684V14.8975H98.0342ZM106.646 20.4486L104.572 20.5888C104.537 20.3942 104.46 20.2188 104.343 20.063C104.226 19.9034 104.072 19.7767 103.88 19.6833C103.693 19.5859 103.467 19.537 103.205 19.537C102.854 19.537 102.558 19.6189 102.317 19.7825C102.076 19.9422 101.955 20.1565 101.955 20.4252C101.955 20.6395 102.033 20.8207 102.189 20.9688C102.345 21.1167 102.613 21.2356 102.992 21.3251L104.471 21.6524C105.265 21.8315 105.857 22.1199 106.247 22.5172C106.637 22.9146 106.832 23.4366 106.832 24.0832C106.832 24.6715 106.675 25.1876 106.359 25.6317C106.047 26.0757 105.618 26.4224 105.072 26.6719C104.529 26.9172 103.904 27.0401 103.195 27.0401C102.113 27.0401 101.252 26.7927 100.61 26.2979C99.9714 25.7992 99.5972 25.1214 99.4877 24.2644L101.716 24.1358C101.783 24.4981 101.946 24.7747 102.206 24.9656C102.464 25.1526 102.796 25.2461 103.2 25.2461C103.597 25.2461 103.916 25.1623 104.157 24.9948C104.402 24.8234 104.526 24.6033 104.529 24.3346C104.526 24.1085 104.439 23.9235 104.269 23.7794C104.099 23.6313 103.836 23.5183 103.482 23.4404L102.067 23.1307C101.27 22.9555 100.676 22.6516 100.285 22.2191C99.8987 21.7869 99.7059 21.2356 99.7059 20.5654C99.7059 19.989 99.8477 19.4923 100.131 19.0755C100.418 18.6587 100.82 18.3373 101.339 18.1113C101.86 17.8853 102.47 17.7725 103.168 17.7725C104.2 17.7725 105.011 18.012 105.604 18.4912C106.199 18.9703 106.547 19.6229 106.646 20.4486Z" fill="#002260"/>
<path fill-rule="evenodd" clip-rule="evenodd" d="M110.386 1.24707V13.0273L107.266 9.10056V4.6751H103.749L101.025 1.24707H110.386Z" fill="#0055F1"/>
</g>
</g>
</svg>
