<svg width="190" height="190" viewBox="0 0 190 190" fill="none" xmlns="http://www.w3.org/2000/svg">
<rect width="190" height="190" rx="95" fill="#0055F1"/>
<path d="M63.2833 73.508C67.6993 73.508 71.6673 74.468 75.1873 76.388C78.7073 78.308 81.4593 81.124 83.4433 84.836C85.4273 88.484 86.4193 92.9 86.4193 98.084V121.7C86.4193 123.108 85.9393 124.292 84.9792 125.252C84.0833 126.148 82.9313 126.596 81.5233 126.596C80.1153 126.596 78.9313 126.148 77.9713 125.252C77.0753 124.292 76.6273 123.108 76.6273 121.7V98.084C76.6273 92.9 75.2193 88.996 72.4033 86.372C69.6513 83.684 65.9713 82.34 61.3633 82.34C58.6753 82.34 56.2113 82.884 53.9713 83.972C51.7953 85.06 50.0673 86.532 48.7873 88.388C47.5713 90.244 46.9633 92.324 46.9633 94.628V121.7C46.9633 123.108 46.5153 124.292 45.6193 125.252C44.7233 126.148 43.5393 126.596 42.0673 126.596C40.6593 126.596 39.4753 126.148 38.5153 125.252C37.6193 124.292 37.1713 123.108 37.1713 121.7V78.884C37.1713 77.412 37.6193 76.228 38.5153 75.332C39.4753 74.436 40.6593 73.988 42.0673 73.988C43.5393 73.988 44.7233 74.436 45.6193 75.332C46.5153 76.228 46.9633 77.412 46.9633 78.884V79.94C49.0113 77.892 51.4433 76.324 54.2593 75.236C57.0753 74.084 60.0833 73.508 63.2833 73.508ZM147.921 51.524C149.393 51.524 150.577 51.972 151.473 52.868C152.369 53.764 152.817 54.948 152.817 56.42V100.196C152.817 105.188 151.633 109.732 149.265 113.828C146.961 117.86 143.793 121.06 139.761 123.428C135.793 125.732 131.345 126.884 126.417 126.884C121.489 126.884 116.977 125.732 112.881 123.428C108.849 121.06 105.681 117.86 103.377 113.828C101.073 109.732 99.9208 105.188 99.9208 100.196C99.9208 95.204 100.977 90.692 103.089 86.66C105.265 82.564 108.209 79.364 111.921 77.06C115.697 74.756 119.889 73.604 124.497 73.604C128.209 73.604 131.665 74.372 134.865 75.908C138.065 77.444 140.785 79.588 143.025 82.34V56.42C143.025 54.948 143.473 53.764 144.369 52.868C145.329 51.972 146.513 51.524 147.921 51.524ZM126.417 118.244C129.617 118.244 132.497 117.476 135.057 115.94C137.681 114.34 139.729 112.164 141.201 109.412C142.673 106.66 143.409 103.588 143.409 100.196C143.409 96.804 142.673 93.764 141.201 91.076C139.729 88.324 137.681 86.18 135.057 84.644C132.497 83.044 129.617 82.244 126.417 82.244C123.217 82.244 120.305 83.044 117.681 84.644C115.121 86.18 113.073 88.324 111.537 91.076C110.065 93.764 109.329 96.804 109.329 100.196C109.329 103.588 110.065 106.66 111.537 109.412C113.073 112.164 115.121 114.34 117.681 115.94C120.305 117.476 123.217 118.244 126.417 118.244Z" fill="white"/>
</svg>
