<svg width="49" height="33" viewBox="0 0 49 33" fill="none" xmlns="http://www.w3.org/2000/svg">
<path d="M11.2847 9.92C13.1247 9.92 14.778 10.32 16.2447 11.12C17.7114 11.92 18.858 13.0933 19.6847 14.64C20.5114 16.16 20.9247 18 20.9247 20.16V30C20.9247 30.5867 20.7247 31.08 20.3247 31.48C19.9514 31.8533 19.4714 32.04 18.8847 32.04C18.298 32.04 17.8047 31.8533 17.4047 31.48C17.0314 31.08 16.8447 30.5867 16.8447 30V20.16C16.8447 18 16.258 16.3733 15.0847 15.28C13.938 14.16 12.4047 13.6 10.4847 13.6C9.36469 13.6 8.33802 13.8267 7.40469 14.28C6.49802 14.7333 5.77802 15.3467 5.24469 16.12C4.73802 16.8933 4.48469 17.76 4.48469 18.72V30C4.48469 30.5867 4.29802 31.08 3.92469 31.48C3.55135 31.8533 3.05802 32.04 2.44469 32.04C1.85802 32.04 1.36469 31.8533 0.964688 31.48C0.591354 31.08 0.404688 30.5867 0.404688 30V12.16C0.404688 11.5467 0.591354 11.0533 0.964688 10.68C1.36469 10.3067 1.85802 10.12 2.44469 10.12C3.05802 10.12 3.55135 10.3067 3.92469 10.68C4.29802 11.0533 4.48469 11.5467 4.48469 12.16V12.6C5.33802 11.7467 6.35135 11.0933 7.52469 10.64C8.69802 10.16 9.95135 9.92 11.2847 9.92ZM46.5503 0.759999C47.1636 0.759999 47.657 0.946666 48.0303 1.32C48.4036 1.69333 48.5903 2.18667 48.5903 2.8V21.04C48.5903 23.12 48.097 25.0133 47.1103 26.72C46.1503 28.4 44.8303 29.7333 43.1503 30.72C41.497 31.68 39.6436 32.16 37.5903 32.16C35.537 32.16 33.657 31.68 31.9503 30.72C30.2703 29.7333 28.9503 28.4 27.9903 26.72C27.0303 25.0133 26.5503 23.12 26.5503 21.04C26.5503 18.96 26.9903 17.08 27.8703 15.4C28.777 13.6933 30.0036 12.36 31.5503 11.4C33.1236 10.44 34.8703 9.96 36.7903 9.96C38.337 9.96 39.777 10.28 41.1103 10.92C42.4436 11.56 43.577 12.4533 44.5103 13.6V2.8C44.5103 2.18667 44.697 1.69333 45.0703 1.32C45.4703 0.946666 45.9636 0.759999 46.5503 0.759999ZM37.5903 28.56C38.9236 28.56 40.1236 28.24 41.1903 27.6C42.2836 26.9333 43.137 26.0267 43.7503 24.88C44.3636 23.7333 44.6703 22.4533 44.6703 21.04C44.6703 19.6267 44.3636 18.36 43.7503 17.24C43.137 16.0933 42.2836 15.2 41.1903 14.56C40.1236 13.8933 38.9236 13.56 37.5903 13.56C36.257 13.56 35.0436 13.8933 33.9503 14.56C32.8836 15.2 32.0303 16.0933 31.3903 17.24C30.777 18.36 30.4703 19.6267 30.4703 21.04C30.4703 22.4533 30.777 23.7333 31.3903 24.88C32.0303 26.0267 32.8836 26.9333 33.9503 27.6C35.0436 28.24 36.257 28.56 37.5903 28.56Z" fill="#0055F1"/>
</svg>
