<svg width="1134" height="1134" xmlns="http://www.w3.org/2000/svg" xmlns:xlink="http://www.w3.org/1999/xlink" overflow="hidden"><defs><filter id="fx0" x="-10%" y="-10%" width="120%" height="120%" filterUnits="userSpaceOnUse" primitiveUnits="userSpaceOnUse"><feComponentTransfer color-interpolation-filters="sRGB"><feFuncR type="discrete" tableValues="0 0"/><feFuncG type="discrete" tableValues="0 0"/><feFuncB type="discrete" tableValues="0 0"/><feFuncA type="linear" slope="0.4" intercept="0"/></feComponentTransfer><feGaussianBlur stdDeviation="3.17966 3.17966"/></filter><clipPath id="clip1"><rect x="259" y="176" width="492" height="329"/></clipPath></defs><g><rect x="0" y="0" width="1134" height="1134" fill="#FFFFFF"/><g clip-path="url(#clip1)" filter="url(#fx0)" transform="translate(65 173)"><g><path d="M138.546-211.263C156.151-211.263 171.97-207.436 186.003-199.781 200.037-192.127 211.008-180.964 218.918-166.293 226.827-151.622 230.782-133.953 230.782-113.286L230.782-19.1361C230.782-13.5229 228.932-8.86642 225.232-5.16676 221.533-1.4671 216.876 0.382723 211.263 0.382723 205.65 0.382723 200.993-1.4671 197.294-5.16676 193.594-8.86642 191.744-13.5229 191.744-19.1361L191.744-113.286C191.744-133.953 186.195-149.581 175.096-160.17 163.997-170.758 149.262-176.053 130.891-176.053 120.175-176.053 110.416-173.884 101.613-169.546 92.8103-165.209 85.9213-159.34 80.9459-151.941 75.9705-144.542 73.4828-136.249 73.4828-127.064L73.4828-19.1361C73.4828-13.5229 71.6968-8.86642 68.1247-5.16676 64.5526-1.4671 59.8324 0.382723 53.9639 0.382723 48.3507 0.382723 43.6942-1.4671 39.9945-5.16676 36.2949-8.86642 34.4451-13.5229 34.4451-19.1361L34.4451-189.831C34.4451-195.699 36.2949-200.419 39.9945-203.991 43.6942-207.563 48.3507-209.349 53.9639-209.349 59.8324-209.349 64.5526-207.563 68.1247-203.991 71.6968-200.419 73.4828-195.699 73.4828-189.831L73.4828-185.621C81.6476-193.785 91.3432-200.1 102.57-204.565 113.796-209.031 125.788-211.263 138.546-211.263ZM476.129-298.907C481.997-298.907 486.717-297.121 490.289-293.548 493.861-289.976 495.648-285.256 495.648-279.388L495.648-104.866C495.648-84.9645 490.991-66.9127 481.678-50.7108 472.365-34.5089 459.735-21.7514 443.789-12.4385 427.842-3.12557 410.045 1.53089 390.399 1.53089 370.752 1.53089 352.828-3.12557 336.626-12.4385 320.424-21.7514 307.731-34.5089 298.545-50.7108 289.36-66.9127 284.767-84.9645 284.767-104.866 284.767-124.768 289.041-142.819 297.588-159.021 306.136-175.223 317.873-187.917 332.799-197.102 347.725-206.288 364.374-210.88 382.744-210.88 397.543-210.88 411.321-207.819 424.078-201.695 436.836-195.571 447.68-187.024 456.61-176.053L456.61-279.388C456.61-285.256 458.46-289.976 462.159-293.548 465.859-297.121 470.515-298.907 476.129-298.907ZM390.399-32.9142C403.156-32.9142 414.702-36.0397 425.035-42.2909 435.369-48.542 443.47-57.1533 449.338-68.1247 455.206-79.0961 458.141-91.3432 458.141-104.866 458.141-118.389 455.206-130.572 449.338-141.416 443.47-152.26 435.369-160.807 425.035-167.059 414.702-173.31 403.156-176.435 390.399-176.435 377.641-176.435 366.096-173.31 355.762-167.059 345.429-160.807 337.264-152.26 331.268-141.416 325.272-130.572 322.274-118.389 322.274-104.866 322.274-91.3432 325.272-79.0961 331.268-68.1247 337.264-57.1533 345.429-48.542 355.762-42.2909 366.096-36.0397 377.641-32.9142 390.399-32.9142Z" fill="#0055F1" transform="translate(240.116 489)"/></g></g><text fill="#0055F1" font-family="Comfortaa,Comfortaa_MSFontService,sans-serif" font-weight="700" font-size="382.723" transform="translate(301.961 658)">nd</text></g></svg>