<svg width="77" height="35" viewBox="0 0 77 35" fill="none" xmlns="http://www.w3.org/2000/svg">
<rect width="77" height="35" fill="#0055F1"/>
<g clip-path="url(#clip0_784_241)">
<path d="M17.624 22.012C17.448 22.012 17.3 21.956 17.18 21.844C17.068 21.724 17.012 21.576 17.012 21.4V18.448C17.012 17.992 16.928 17.62 16.76 17.332C16.592 17.044 16.364 16.832 16.076 16.696C15.796 16.552 15.472 16.48 15.104 16.48C14.768 16.48 14.464 16.548 14.192 16.684C13.92 16.82 13.704 17.004 13.544 17.236C13.384 17.46 13.304 17.72 13.304 18.016H12.548C12.548 17.512 12.668 17.064 12.908 16.672C13.156 16.272 13.492 15.956 13.916 15.724C14.34 15.492 14.816 15.376 15.344 15.376C15.896 15.376 16.388 15.496 16.82 15.736C17.26 15.968 17.604 16.312 17.852 16.768C18.108 17.224 18.236 17.784 18.236 18.448V21.4C18.236 21.576 18.176 21.724 18.056 21.844C17.944 21.956 17.8 22.012 17.624 22.012ZM12.692 22.012C12.516 22.012 12.368 21.956 12.248 21.844C12.136 21.724 12.08 21.576 12.08 21.4V16.048C12.08 15.864 12.136 15.716 12.248 15.604C12.368 15.492 12.516 15.436 12.692 15.436C12.876 15.436 13.024 15.492 13.136 15.604C13.248 15.716 13.304 15.864 13.304 16.048V21.4C13.304 21.576 13.248 21.724 13.136 21.844C13.024 21.956 12.876 22.012 12.692 22.012ZM23.3437 22.048C22.6797 22.048 22.0877 21.908 21.5677 21.628C21.0557 21.34 20.6517 20.948 20.3557 20.452C20.0677 19.948 19.9237 19.372 19.9237 18.724C19.9237 18.068 20.0597 17.492 20.3317 16.996C20.6117 16.492 20.9957 16.1 21.4837 15.82C21.9717 15.532 22.5317 15.388 23.1637 15.388C23.7877 15.388 24.3237 15.528 24.7717 15.808C25.2197 16.08 25.5597 16.46 25.7917 16.948C26.0317 17.428 26.1517 17.984 26.1517 18.616C26.1517 18.768 26.0997 18.896 25.9957 19C25.8917 19.096 25.7597 19.144 25.5997 19.144H20.7637V18.184H25.5637L25.0717 18.52C25.0637 18.12 24.9837 17.764 24.8317 17.452C24.6797 17.132 24.4637 16.88 24.1837 16.696C23.9037 16.512 23.5637 16.42 23.1637 16.42C22.7077 16.42 22.3157 16.52 21.9877 16.72C21.6677 16.92 21.4237 17.196 21.2557 17.548C21.0877 17.892 21.0037 18.284 21.0037 18.724C21.0037 19.164 21.1037 19.556 21.3037 19.9C21.5037 20.244 21.7797 20.516 22.1317 20.716C22.4837 20.916 22.8877 21.016 23.3437 21.016C23.5917 21.016 23.8437 20.972 24.0997 20.884C24.3637 20.788 24.5757 20.68 24.7357 20.56C24.8557 20.472 24.9837 20.428 25.1197 20.428C25.2637 20.42 25.3877 20.46 25.4917 20.548C25.6277 20.668 25.6997 20.8 25.7077 20.944C25.7157 21.088 25.6517 21.212 25.5157 21.316C25.2437 21.532 24.9037 21.708 24.4957 21.844C24.0957 21.98 23.7117 22.048 23.3437 22.048ZM36.4172 22C36.0172 22 35.6572 21.9 35.3372 21.7C35.0172 21.492 34.7652 21.212 34.5812 20.86C34.3972 20.508 34.3052 20.112 34.3052 19.672V13.948C34.3052 13.772 34.3612 13.628 34.4732 13.516C34.5852 13.404 34.7292 13.348 34.9052 13.348C35.0812 13.348 35.2252 13.404 35.3372 13.516C35.4492 13.628 35.5052 13.772 35.5052 13.948V19.672C35.5052 19.992 35.5932 20.26 35.7692 20.476C35.9452 20.692 36.1612 20.8 36.4172 20.8H36.8252C36.9692 20.8 37.0892 20.856 37.1852 20.968C37.2892 21.08 37.3412 21.224 37.3412 21.4C37.3412 21.576 37.2732 21.72 37.1372 21.832C37.0092 21.944 36.8412 22 36.6332 22H36.4172ZM33.7532 16.708C33.5852 16.708 33.4492 16.66 33.3452 16.564C33.2412 16.468 33.1892 16.348 33.1892 16.204C33.1892 16.044 33.2412 15.916 33.3452 15.82C33.4492 15.724 33.5852 15.676 33.7532 15.676H36.5252C36.6932 15.676 36.8292 15.724 36.9332 15.82C37.0372 15.916 37.0892 16.044 37.0892 16.204C37.0892 16.348 37.0372 16.468 36.9332 16.564C36.8292 16.66 36.6932 16.708 36.5252 16.708H33.7532ZM41.8216 22.048C41.1976 22.048 40.6336 21.904 40.1296 21.616C39.6336 21.32 39.2376 20.92 38.9416 20.416C38.6536 19.912 38.5096 19.344 38.5096 18.712C38.5096 18.08 38.6416 17.516 38.9056 17.02C39.1776 16.516 39.5456 16.12 40.0096 15.832C40.4736 15.536 40.9976 15.388 41.5816 15.388C42.0536 15.388 42.4896 15.488 42.8896 15.688C43.2896 15.88 43.6256 16.144 43.8976 16.48V13.24C43.8976 13.056 43.9536 12.908 44.0656 12.796C44.1856 12.684 44.3336 12.628 44.5096 12.628C44.6936 12.628 44.8416 12.684 44.9536 12.796C45.0656 12.908 45.1216 13.056 45.1216 13.24V18.712C45.1216 19.344 44.9736 19.912 44.6776 20.416C44.3896 20.92 43.9976 21.32 43.5016 21.616C43.0056 21.904 42.4456 22.048 41.8216 22.048ZM41.8216 20.968C42.2296 20.968 42.5936 20.872 42.9136 20.68C43.2336 20.48 43.4856 20.208 43.6696 19.864C43.8536 19.52 43.9456 19.136 43.9456 18.712C43.9456 18.28 43.8536 17.896 43.6696 17.56C43.4856 17.224 43.2336 16.96 42.9136 16.768C42.5936 16.568 42.2296 16.468 41.8216 16.468C41.4216 16.468 41.0576 16.568 40.7296 16.768C40.4096 16.96 40.1536 17.224 39.9616 17.56C39.7776 17.896 39.6856 18.28 39.6856 18.712C39.6856 19.136 39.7776 19.52 39.9616 19.864C40.1536 20.208 40.4096 20.48 40.7296 20.68C41.0576 20.872 41.4216 20.968 41.8216 20.968ZM50.3671 22.048C49.7031 22.048 49.1111 21.908 48.5911 21.628C48.0791 21.34 47.6751 20.948 47.3791 20.452C47.0911 19.948 46.9471 19.372 46.9471 18.724C46.9471 18.068 47.0831 17.492 47.3551 16.996C47.6351 16.492 48.0191 16.1 48.5071 15.82C48.9951 15.532 49.5551 15.388 50.1871 15.388C50.8111 15.388 51.3471 15.528 51.7951 15.808C52.2431 16.08 52.5831 16.46 52.8151 16.948C53.0551 17.428 53.1751 17.984 53.1751 18.616C53.1751 18.768 53.1231 18.896 53.0191 19C52.9151 19.096 52.7831 19.144 52.6231 19.144H47.7871V18.184H52.5871L52.0951 18.52C52.0871 18.12 52.0071 17.764 51.8551 17.452C51.7031 17.132 51.4871 16.88 51.2071 16.696C50.9271 16.512 50.5871 16.42 50.1871 16.42C49.7311 16.42 49.3391 16.52 49.0111 16.72C48.6911 16.92 48.4471 17.196 48.2791 17.548C48.1111 17.892 48.0271 18.284 48.0271 18.724C48.0271 19.164 48.1271 19.556 48.3271 19.9C48.5271 20.244 48.8031 20.516 49.1551 20.716C49.5071 20.916 49.9111 21.016 50.3671 21.016C50.6151 21.016 50.8671 20.972 51.1231 20.884C51.3871 20.788 51.5991 20.68 51.7591 20.56C51.8791 20.472 52.0071 20.428 52.1431 20.428C52.2871 20.42 52.4111 20.46 52.5151 20.548C52.6511 20.668 52.7231 20.8 52.7311 20.944C52.7391 21.088 52.6751 21.212 52.5391 21.316C52.2671 21.532 51.9271 21.708 51.5191 21.844C51.1191 21.98 50.7351 22.048 50.3671 22.048ZM57.2379 22.048C56.6539 22.048 56.1299 21.904 55.6659 21.616C55.2019 21.32 54.8339 20.924 54.5619 20.428C54.2979 19.924 54.1659 19.356 54.1659 18.724C54.1659 18.092 54.3099 17.524 54.5979 17.02C54.8939 16.516 55.2899 16.12 55.7859 15.832C56.2899 15.536 56.8539 15.388 57.4779 15.388C58.1019 15.388 58.6619 15.536 59.1579 15.832C59.6539 16.12 60.0459 16.516 60.3339 17.02C60.6299 17.524 60.7779 18.092 60.7779 18.724H60.3099C60.3099 19.356 60.1739 19.924 59.9019 20.428C59.6379 20.924 59.2739 21.32 58.8099 21.616C58.3459 21.904 57.8219 22.048 57.2379 22.048ZM57.4779 20.968C57.8859 20.968 58.2499 20.872 58.5699 20.68C58.8899 20.48 59.1419 20.212 59.3259 19.876C59.5099 19.532 59.6019 19.148 59.6019 18.724C59.6019 18.292 59.5099 17.908 59.3259 17.572C59.1419 17.228 58.8899 16.96 58.5699 16.768C58.2499 16.568 57.8859 16.468 57.4779 16.468C57.0779 16.468 56.7139 16.568 56.3859 16.768C56.0659 16.96 55.8099 17.228 55.6179 17.572C55.4339 17.908 55.3419 18.292 55.3419 18.724C55.3419 19.148 55.4339 19.532 55.6179 19.876C55.8099 20.212 56.0659 20.48 56.3859 20.68C56.7139 20.872 57.0779 20.968 57.4779 20.968ZM60.1659 22.012C59.9899 22.012 59.8419 21.956 59.7219 21.844C59.6099 21.724 59.5539 21.576 59.5539 21.4V19.564L59.7819 18.292L60.7779 18.724V21.4C60.7779 21.576 60.7179 21.724 60.5979 21.844C60.4859 21.956 60.3419 22.012 60.1659 22.012ZM64.1595 22C63.8075 22 63.4955 21.904 63.2235 21.712C62.9515 21.52 62.7395 21.26 62.5875 20.932C62.4355 20.596 62.3595 20.212 62.3595 19.78V13.228C62.3595 13.052 62.4155 12.908 62.5275 12.796C62.6395 12.684 62.7835 12.628 62.9595 12.628C63.1355 12.628 63.2795 12.684 63.3915 12.796C63.5035 12.908 63.5595 13.052 63.5595 13.228V19.78C63.5595 20.076 63.6155 20.32 63.7275 20.512C63.8395 20.704 63.9835 20.8 64.1595 20.8H64.4595C64.6195 20.8 64.7475 20.856 64.8435 20.968C64.9475 21.08 64.9995 21.224 64.9995 21.4C64.9995 21.576 64.9235 21.72 64.7715 21.832C64.6195 21.944 64.4235 22 64.1835 22H64.1595Z" fill="white"/>
<path d="M31.9575 22C31.8775 22 31.8015 21.988 31.7295 21.964C31.6575 21.94 31.5895 21.888 31.5255 21.808L29.4255 19.288L28.9935 18.856L26.9055 16.384C26.8015 16.256 26.7455 16.12 26.7375 15.976C26.7295 15.824 26.7695 15.696 26.8575 15.592C26.9455 15.488 27.0775 15.436 27.2535 15.436C27.4455 15.436 27.5975 15.504 27.7095 15.64L29.7615 18.088L30.0735 18.376L32.3295 21.076C32.4495 21.22 32.5055 21.364 32.4975 21.508C32.4975 21.644 32.4455 21.76 32.3415 21.856C32.2455 21.952 32.1175 22 31.9575 22ZM27.3735 22C27.2135 22 27.0855 21.952 26.9895 21.856C26.9015 21.752 26.8575 21.628 26.8575 21.484C26.8575 21.34 26.9135 21.196 27.0255 21.052L29.0655 18.496L29.7135 19.408L27.8055 21.808C27.6855 21.936 27.5415 22 27.3735 22ZM30.3375 18.916L29.5095 18.208L31.4415 15.64C31.5055 15.56 31.5735 15.508 31.6455 15.484C31.7175 15.452 31.7975 15.436 31.8855 15.436C32.0615 15.436 32.1935 15.492 32.2815 15.604C32.3695 15.708 32.4095 15.836 32.4015 15.988C32.4015 16.14 32.3455 16.288 32.2335 16.432L30.3375 18.916Z" fill="#FFBF03"/>
</g>
<defs>
<clipPath id="clip0_784_241">
<rect width="53" height="11" fill="white" transform="translate(12 12)"/>
</clipPath>
</defs>
</svg>
