<svg width="289" height="60" viewBox="0 0 289 60" fill="none" xmlns="http://www.w3.org/2000/svg">
<path d="M30.667 54.6112C29.7073 54.6112 28.9003 54.3058 28.246 53.6949C27.6352 53.0403 27.3299 52.2331 27.3299 51.2731V35.1712C27.3299 32.684 26.8718 30.6549 25.9558 29.084C25.0397 27.5131 23.7965 26.3567 22.226 25.6149C20.6992 24.8294 18.9325 24.4367 16.9259 24.4367C15.0937 24.4367 13.4361 24.8076 11.9529 25.5494C10.4697 26.2912 9.29192 27.2949 8.41947 28.5603C7.54701 29.7821 7.11079 31.2003 7.11079 32.8149H2.98845C2.98845 30.0658 3.64279 27.6221 4.95147 25.484C6.30377 23.3021 8.13592 21.5785 10.4479 20.3131C12.7599 19.0476 15.3555 18.4149 18.2346 18.4149C21.2445 18.4149 23.9273 19.0694 26.2829 20.3785C28.6822 21.644 30.558 23.5203 31.9103 26.0076C33.3062 28.4949 34.0041 31.5494 34.0041 35.1712V51.2731C34.0041 52.2331 33.677 53.0403 33.0226 53.6949C32.4119 54.3058 31.6267 54.6112 30.667 54.6112ZM3.77366 54.6112C2.81396 54.6112 2.00694 54.3058 1.3526 53.6949C0.741882 53.0403 0.436523 52.2331 0.436523 51.2731V22.0803C0.436523 21.0767 0.741882 20.2694 1.3526 19.6585C2.00694 19.0476 2.81396 18.7421 3.77366 18.7421C4.77698 18.7421 5.584 19.0476 6.19471 19.6585C6.80543 20.2694 7.11079 21.0767 7.11079 22.0803V51.2731C7.11079 52.2331 6.80543 53.0403 6.19471 53.6949C5.584 54.3058 4.77698 54.6112 3.77366 54.6112ZM61.8556 54.8076C58.2349 54.8076 55.0068 54.044 52.1713 52.5167C49.3794 50.9458 47.1765 48.8076 45.5625 46.1021C43.992 43.3531 43.2068 40.2112 43.2068 36.6767C43.2068 33.0985 43.9484 29.9567 45.4316 27.2512C46.9584 24.5021 49.0523 22.364 51.7133 20.8367C54.3742 19.2658 57.4279 18.4803 60.8741 18.4803C64.2766 18.4803 67.1993 19.244 69.6422 20.7712C72.0851 22.2549 73.939 24.3276 75.2041 26.9894C76.5128 29.6076 77.1671 32.6403 77.1671 36.0876C77.1671 36.9167 76.8836 37.6149 76.3165 38.1821C75.7494 38.7058 75.0296 38.9676 74.1572 38.9676H47.7872V33.7312H73.9609L71.2781 35.564C71.2344 33.3821 70.7982 31.4403 69.9694 29.7385C69.1406 27.9931 67.9627 26.6185 66.4359 25.6149C64.9092 24.6112 63.0552 24.1094 60.8741 24.1094C58.3876 24.1094 56.2501 24.6549 54.4615 25.7458C52.7166 26.8367 51.3861 28.3421 50.47 30.2621C49.5539 32.1385 49.0959 34.2767 49.0959 36.6767C49.0959 39.0767 49.6412 41.2149 50.7317 43.0912C51.8223 44.9676 53.3273 46.4512 55.2467 47.5421C57.1661 48.6331 59.3691 49.1785 61.8556 49.1785C63.2079 49.1785 64.582 48.9385 65.9779 48.4585C67.4175 47.9349 68.5735 47.3458 69.4459 46.6912C70.1002 46.2112 70.7982 45.9712 71.5398 45.9712C72.325 45.9276 73.0012 46.1458 73.5682 46.6258C74.3098 47.2803 74.7024 48.0003 74.7461 48.7858C74.7897 49.5712 74.4407 50.2476 73.6991 50.8149C72.2159 51.9931 70.362 52.9531 68.1372 53.6949C65.9561 54.4367 63.8622 54.8076 61.8556 54.8076ZM133.143 54.5458C130.962 54.5458 128.999 54.0003 127.254 52.9094C125.509 51.7749 124.135 50.2476 123.132 48.3276C122.128 46.4076 121.627 44.2476 121.627 41.8476V10.6258C121.627 9.66578 121.932 8.88033 122.543 8.26942C123.154 7.65851 123.939 7.35305 124.898 7.35305C125.858 7.35305 126.643 7.65851 127.254 8.26942C127.865 8.88033 128.17 9.66578 128.17 10.6258V41.8476C128.17 43.5931 128.65 45.0549 129.61 46.2331C130.569 47.4112 131.747 48.0003 133.143 48.0003H135.368C136.153 48.0003 136.807 48.3058 137.331 48.9167C137.898 49.5276 138.182 50.3131 138.182 51.2731C138.182 52.2331 137.811 53.0185 137.069 53.6294C136.371 54.2403 135.455 54.5458 134.321 54.5458H133.143ZM118.617 25.6803C117.701 25.6803 116.959 25.4185 116.392 24.8949C115.825 24.3712 115.541 23.7167 115.541 22.9312C115.541 22.0585 115.825 21.3603 116.392 20.8367C116.959 20.3131 117.701 20.0512 118.617 20.0512H133.732C134.648 20.0512 135.39 20.3131 135.957 20.8367C136.524 21.3603 136.807 22.0585 136.807 22.9312C136.807 23.7167 136.524 24.3712 135.957 24.8949C135.39 25.4185 134.648 25.6803 133.732 25.6803H118.617ZM162.612 54.8076C159.21 54.8076 156.134 54.0221 153.386 52.4512C150.682 50.8367 148.522 48.6549 146.908 45.9058C145.338 43.1567 144.553 40.0585 144.553 36.6112C144.553 33.164 145.272 30.0876 146.712 27.3821C148.195 24.6331 150.202 22.4731 152.732 20.9021C155.262 19.2876 158.119 18.4803 161.304 18.4803C163.877 18.4803 166.255 19.0258 168.436 20.1167C170.617 21.164 172.449 22.604 173.932 24.4367V6.76396C173.932 5.76033 174.238 4.95305 174.849 4.34214C175.503 3.73124 176.31 3.42578 177.27 3.42578C178.273 3.42578 179.08 3.73124 179.691 4.34214C180.301 4.95305 180.607 5.76033 180.607 6.76396V36.6112C180.607 40.0585 179.8 43.1567 178.186 45.9058C176.615 48.6549 174.478 50.8367 171.773 52.4512C169.069 54.0221 166.015 54.8076 162.612 54.8076ZM162.612 48.9167C164.837 48.9167 166.822 48.3931 168.567 47.3458C170.312 46.2549 171.686 44.7712 172.689 42.8949C173.693 41.0185 174.194 38.924 174.194 36.6112C174.194 34.2549 173.693 32.1603 172.689 30.3276C171.686 28.4949 170.312 27.0549 168.567 26.0076C166.822 24.9167 164.837 24.3712 162.612 24.3712C160.431 24.3712 158.446 24.9167 156.658 26.0076C154.913 27.0549 153.517 28.4949 152.47 30.3276C151.467 32.1603 150.965 34.2549 150.965 36.6112C150.965 38.924 151.467 41.0185 152.47 42.8949C153.517 44.7712 154.913 46.2549 156.658 47.3458C158.446 48.3931 160.431 48.9167 162.612 48.9167ZM209.21 54.8076C205.589 54.8076 202.361 54.044 199.525 52.5167C196.733 50.9458 194.531 48.8076 192.917 46.1021C191.346 43.3531 190.561 40.2112 190.561 36.6767C190.561 33.0985 191.302 29.9567 192.786 27.2512C194.312 24.5021 196.406 22.364 199.067 20.8367C201.728 19.2658 204.782 18.4803 208.228 18.4803C211.631 18.4803 214.553 19.244 216.996 20.7712C219.439 22.2549 221.293 24.3276 222.558 26.9894C223.867 29.6076 224.521 32.6403 224.521 36.0876C224.521 36.9167 224.238 37.6149 223.67 38.1821C223.103 38.7058 222.384 38.9676 221.511 38.9676H195.141V33.7312H221.315L218.632 35.564C218.588 33.3821 218.152 31.4403 217.323 29.7385C216.495 27.9931 215.317 26.6185 213.79 25.6149C212.263 24.6112 210.409 24.1094 208.228 24.1094C205.742 24.1094 203.604 24.6549 201.816 25.7458C200.071 26.8367 198.74 28.3421 197.824 30.2621C196.908 32.1385 196.45 34.2767 196.45 36.6767C196.45 39.0767 196.995 41.2149 198.086 43.0912C199.176 44.9676 200.681 46.4512 202.601 47.5421C204.52 48.6331 206.723 49.1785 209.21 49.1785C210.562 49.1785 211.936 48.9385 213.332 48.4585C214.771 47.9349 215.927 47.3458 216.8 46.6912C217.454 46.2112 218.152 45.9712 218.894 45.9712C219.679 45.9276 220.355 46.1458 220.922 46.6258C221.664 47.2803 222.056 48.0003 222.1 48.7858C222.144 49.5712 221.795 50.2476 221.053 50.8149C219.57 51.9931 217.716 52.9531 215.491 53.6949C213.31 54.4367 211.216 54.8076 209.21 54.8076ZM246.675 54.8076C243.49 54.8076 240.633 54.0221 238.103 52.4512C235.573 50.8367 233.566 48.6767 232.083 45.9712C230.644 43.2221 229.924 40.124 229.924 36.6767C229.924 33.2294 230.709 30.1312 232.279 27.3821C233.893 24.6331 236.053 22.4731 238.757 20.9021C241.506 19.2876 244.581 18.4803 247.984 18.4803C251.386 18.4803 254.44 19.2876 257.144 20.9021C259.849 22.4731 261.986 24.6331 263.557 27.3821C265.171 30.1312 265.978 33.2294 265.978 36.6767H263.426C263.426 40.124 262.684 43.2221 261.201 45.9712C259.762 48.6767 257.777 50.8367 255.247 52.4512C252.717 54.0221 249.859 54.8076 246.675 54.8076ZM247.984 48.9167C250.208 48.9167 252.193 48.3931 253.938 47.3458C255.683 46.2549 257.057 44.7931 258.06 42.9603C259.064 41.084 259.565 38.9894 259.565 36.6767C259.565 34.3203 259.064 32.2258 258.06 30.3931C257.057 28.5167 255.683 27.0549 253.938 26.0076C252.193 24.9167 250.208 24.3712 247.984 24.3712C245.802 24.3712 243.818 24.9167 242.029 26.0076C240.284 27.0549 238.888 28.5167 237.841 30.3931C236.838 32.2258 236.336 34.3203 236.336 36.6767C236.336 38.9894 236.838 41.084 237.841 42.9603C238.888 44.7931 240.284 46.2549 242.029 47.3458C243.818 48.3931 245.802 48.9167 247.984 48.9167ZM262.641 54.6112C261.681 54.6112 260.874 54.3058 260.22 53.6949C259.609 53.0403 259.304 52.2331 259.304 51.2731V41.2585L260.547 34.3203L265.978 36.6767V51.2731C265.978 52.2331 265.651 53.0403 264.996 53.6949C264.386 54.3058 263.6 54.6112 262.641 54.6112ZM284.417 54.5458C282.498 54.5458 280.797 54.0221 279.313 52.9749C277.83 51.9276 276.674 50.5094 275.845 48.7203C275.017 46.8876 274.602 44.7931 274.602 42.4367V6.69851C274.602 5.73851 274.907 4.95305 275.518 4.34214C276.129 3.73124 276.914 3.42578 277.874 3.42578C278.833 3.42578 279.619 3.73124 280.229 4.34214C280.84 4.95305 281.146 5.73851 281.146 6.69851V42.4367C281.146 44.0512 281.451 45.3821 282.062 46.4294C282.672 47.4767 283.457 48.0003 284.417 48.0003H286.053C286.925 48.0003 287.623 48.3058 288.147 48.9167C288.714 49.5276 288.998 50.3131 288.998 51.2731C288.998 52.2331 288.583 53.0185 287.754 53.6294C286.925 54.2403 285.857 54.5458 284.548 54.5458H284.417Z" fill="white"/>
<path d="M108.825 54.5458C108.388 54.5458 107.974 54.4804 107.581 54.3495C107.189 54.2186 106.818 53.9349 106.469 53.4985L95.0181 39.7531L92.6625 37.3967L81.277 23.9131C80.7099 23.2149 80.4045 22.4731 80.3609 21.6876C80.3173 20.8586 80.5354 20.1604 81.0153 19.5931C81.4951 19.0258 82.2149 18.7422 83.1746 18.7422C84.2215 18.7422 85.0504 19.1131 85.6611 19.8549L96.8503 33.2076L98.5516 34.7786L110.853 49.5058C111.507 50.2913 111.813 51.0767 111.769 51.8622C111.769 52.604 111.486 53.2367 110.919 53.7604C110.395 54.284 109.697 54.5458 108.825 54.5458ZM83.8289 54.5458C82.9565 54.5458 82.2585 54.284 81.735 53.7604C81.2552 53.1931 81.0153 52.5167 81.0153 51.7313C81.0153 50.9458 81.3206 50.1604 81.9313 49.3749L93.0551 35.4331L96.5885 40.4076L86.1845 53.4985C85.5302 54.1967 84.745 54.5458 83.8289 54.5458ZM99.9911 37.724L95.4762 33.8622L106.011 19.8549C106.36 19.4186 106.731 19.1349 107.123 19.004C107.516 18.8295 107.952 18.7422 108.432 18.7422C109.392 18.7422 110.112 19.0476 110.591 19.6586C111.071 20.2258 111.289 20.924 111.246 21.7531C111.246 22.5822 110.94 23.3895 110.33 24.1749L99.9911 37.724Z" fill="white"/>
</svg>
