<svg width="178" height="33" viewBox="0 0 178 33" fill="none" xmlns="http://www.w3.org/2000/svg">
<path d="M11.7847 9.92C13.6247 9.92 15.278 10.32 16.7447 11.12C18.2114 11.92 19.358 13.0933 20.1847 14.64C21.0114 16.16 21.4247 18 21.4247 20.16V30C21.4247 30.5867 21.2247 31.08 20.8247 31.48C20.4514 31.8533 19.9714 32.04 19.3847 32.04C18.798 32.04 18.3047 31.8533 17.9047 31.48C17.5314 31.08 17.3447 30.5867 17.3447 30V20.16C17.3447 18 16.758 16.3733 15.5847 15.28C14.438 14.16 12.9047 13.6 10.9847 13.6C9.86469 13.6 8.83802 13.8267 7.90469 14.28C6.99802 14.7333 6.27802 15.3467 5.74469 16.12C5.23802 16.8933 4.98469 17.76 4.98469 18.72V30C4.98469 30.5867 4.79802 31.08 4.42469 31.48C4.05135 31.8533 3.55802 32.04 2.94469 32.04C2.35802 32.04 1.86469 31.8533 1.46469 31.48C1.09135 31.08 0.904688 30.5867 0.904688 30V12.16C0.904688 11.5467 1.09135 11.0533 1.46469 10.68C1.86469 10.3067 2.35802 10.12 2.94469 10.12C3.55802 10.12 4.05135 10.3067 4.42469 10.68C4.79802 11.0533 4.98469 11.5467 4.98469 12.16V12.6C5.83802 11.7467 6.85135 11.0933 8.02469 10.64C9.19802 10.16 10.4514 9.92 11.7847 9.92ZM47.8103 20.72C47.8103 21.2267 47.637 21.6533 47.2903 22C46.9436 22.32 46.5036 22.48 45.9703 22.48H30.7703C31.0636 24.3467 31.9036 25.8533 33.2903 27C34.7036 28.1467 36.4236 28.72 38.4503 28.72C39.2503 28.72 40.077 28.5733 40.9303 28.28C41.8103 27.9867 42.5303 27.6267 43.0903 27.2C43.4636 26.9067 43.9036 26.76 44.4103 26.76C44.917 26.76 45.317 26.8933 45.6103 27.16C46.0903 27.56 46.3303 28.0133 46.3303 28.52C46.3303 29 46.117 29.4 45.6903 29.72C44.7836 30.44 43.6503 31.0267 42.2903 31.48C40.957 31.9333 39.677 32.16 38.4503 32.16C36.2636 32.16 34.3036 31.6933 32.5703 30.76C30.837 29.8 29.477 28.48 28.4903 26.8C27.5303 25.12 27.0503 23.2133 27.0503 21.08C27.0503 18.9467 27.5036 17.04 28.4103 15.36C29.3436 13.6533 30.6236 12.3333 32.2503 11.4C33.9036 10.44 35.7703 9.96 37.8503 9.96C39.9036 9.96 41.677 10.4133 43.1703 11.32C44.6636 12.2267 45.8103 13.4933 46.6103 15.12C47.4103 16.7467 47.8103 18.6133 47.8103 20.72ZM37.8503 13.4C35.9036 13.4 34.317 13.9333 33.0903 15C31.8903 16.0667 31.1303 17.4933 30.8103 19.28H44.1303C43.8903 17.4933 43.2236 16.0667 42.1303 15C41.037 13.9333 39.6103 13.4 37.8503 13.4ZM68.4031 28.92C68.7765 29.32 68.9631 29.7867 68.9631 30.32C68.9631 30.8 68.7898 31.2 68.4431 31.52C68.1231 31.84 67.6965 32 67.1631 32C66.5231 32 66.0431 31.7867 65.7231 31.36L59.3631 23.76L53.3231 31.36C52.9231 31.7867 52.4431 32 51.8831 32C51.3498 32 50.9231 31.84 50.6031 31.52C50.3098 31.2 50.1631 30.8 50.1631 30.32C50.1631 29.7867 50.3498 29.2933 50.7231 28.84L56.9231 21.08L50.3231 13.28C49.9231 12.8 49.7231 12.2933 49.7231 11.76C49.7231 11.3067 49.8698 10.92 50.1631 10.6C50.4831 10.28 50.9231 10.12 51.4831 10.12C52.1231 10.12 52.6298 10.3467 53.0031 10.8L59.5631 18.64L65.4431 10.8C65.7898 10.3467 66.2831 10.12 66.9231 10.12C67.4565 10.12 67.8698 10.2933 68.1631 10.64C68.4831 10.96 68.6431 11.36 68.6431 11.84C68.6431 12.4267 68.4565 12.96 68.0831 13.44L62.0431 21.32L68.4031 28.92ZM83.3888 28C83.8688 28 84.2688 28.1867 84.5888 28.56C84.9354 28.9333 85.1088 29.4133 85.1088 30C85.1088 30.5867 84.8821 31.0667 84.4288 31.44C84.0021 31.8133 83.4421 32 82.7488 32H82.0288C80.7221 32 79.5221 31.6667 78.4288 31C77.3621 30.3067 76.5221 29.3733 75.9088 28.2C75.2954 27.0267 74.9888 25.7067 74.9888 24.24V14.36H73.1488C72.5888 14.36 72.1354 14.2 71.7887 13.88C71.4421 13.56 71.2688 13.16 71.2688 12.68C71.2688 12.1467 71.4421 11.72 71.7887 11.4C72.1354 11.08 72.5888 10.92 73.1488 10.92H74.9888V5.16C74.9888 4.57333 75.1754 4.09333 75.5488 3.72C75.9221 3.34667 76.4021 3.16 76.9888 3.16C77.5754 3.16 78.0554 3.34667 78.4288 3.72C78.8021 4.09333 78.9888 4.57333 78.9888 5.16V10.92H82.3888C82.9488 10.92 83.4021 11.08 83.7488 11.4C84.0954 11.72 84.2688 12.1467 84.2688 12.68C84.2688 13.16 84.0954 13.56 83.7488 13.88C83.4021 14.2 82.9488 14.36 82.3888 14.36H78.9888V24.24C78.9888 25.3067 79.2821 26.2 79.8688 26.92C80.4554 27.64 81.1754 28 82.0288 28H83.3888ZM109.003 0.759999C109.617 0.759999 110.11 0.946666 110.483 1.32C110.857 1.69333 111.043 2.18667 111.043 2.8V21.04C111.043 23.12 110.55 25.0133 109.563 26.72C108.603 28.4 107.283 29.7333 105.603 30.72C103.95 31.68 102.097 32.16 100.043 32.16C97.9901 32.16 96.1101 31.68 94.4034 30.72C92.7234 29.7333 91.4034 28.4 90.4434 26.72C89.4834 25.0133 89.0034 23.12 89.0034 21.04C89.0034 18.96 89.4434 17.08 90.3234 15.4C91.2301 13.6933 92.4568 12.36 94.0034 11.4C95.5768 10.44 97.3234 9.96 99.2434 9.96C100.79 9.96 102.23 10.28 103.563 10.92C104.897 11.56 106.03 12.4533 106.963 13.6V2.8C106.963 2.18667 107.15 1.69333 107.523 1.32C107.923 0.946666 108.417 0.759999 109.003 0.759999ZM100.043 28.56C101.377 28.56 102.577 28.24 103.643 27.6C104.737 26.9333 105.59 26.0267 106.203 24.88C106.817 23.7333 107.123 22.4533 107.123 21.04C107.123 19.6267 106.817 18.36 106.203 17.24C105.59 16.0933 104.737 15.2 103.643 14.56C102.577 13.8933 101.377 13.56 100.043 13.56C98.7101 13.56 97.4968 13.8933 96.4034 14.56C95.3368 15.2 94.4834 16.0933 93.8434 17.24C93.2301 18.36 92.9234 19.6267 92.9234 21.04C92.9234 22.4533 93.2301 23.7333 93.8434 24.88C94.4834 26.0267 95.3368 26.9333 96.4034 27.6C97.4968 28.24 98.7101 28.56 100.043 28.56ZM137.888 20.72C137.888 21.2267 137.715 21.6533 137.368 22C137.022 22.32 136.582 22.48 136.048 22.48H120.848C121.142 24.3467 121.982 25.8533 123.368 27C124.782 28.1467 126.502 28.72 128.528 28.72C129.328 28.72 130.155 28.5733 131.008 28.28C131.888 27.9867 132.608 27.6267 133.168 27.2C133.542 26.9067 133.982 26.76 134.488 26.76C134.995 26.76 135.395 26.8933 135.688 27.16C136.168 27.56 136.408 28.0133 136.408 28.52C136.408 29 136.195 29.4 135.768 29.72C134.862 30.44 133.728 31.0267 132.368 31.48C131.035 31.9333 129.755 32.16 128.528 32.16C126.342 32.16 124.382 31.6933 122.648 30.76C120.915 29.8 119.555 28.48 118.568 26.8C117.608 25.12 117.128 23.2133 117.128 21.08C117.128 18.9467 117.582 17.04 118.488 15.36C119.422 13.6533 120.702 12.3333 122.328 11.4C123.982 10.44 125.848 9.96 127.928 9.96C129.982 9.96 131.755 10.4133 133.248 11.32C134.742 12.2267 135.888 13.4933 136.688 15.12C137.488 16.7467 137.888 18.6133 137.888 20.72ZM127.928 13.4C125.982 13.4 124.395 13.9333 123.168 15C121.968 16.0667 121.208 17.4933 120.888 19.28H134.208C133.968 17.4933 133.302 16.0667 132.208 15C131.115 13.9333 129.688 13.4 127.928 13.4ZM152.231 9.96C154.284 9.96 156.138 10.4533 157.791 11.44C159.471 12.4 160.791 13.7333 161.751 15.44C162.738 17.12 163.231 19 163.231 21.08V30C163.231 30.5867 163.031 31.08 162.631 31.48C162.258 31.8533 161.778 32.04 161.191 32.04C160.604 32.04 160.111 31.8533 159.711 31.48C159.338 31.08 159.151 30.5867 159.151 30V28.52C158.218 29.6667 157.084 30.56 155.751 31.2C154.418 31.84 152.978 32.16 151.431 32.16C149.511 32.16 147.764 31.68 146.191 30.72C144.644 29.76 143.418 28.44 142.511 26.76C141.631 25.0533 141.191 23.16 141.191 21.08C141.191 19 141.671 17.12 142.631 15.44C143.591 13.7333 144.911 12.4 146.591 11.44C148.298 10.4533 150.178 9.96 152.231 9.96ZM152.231 28.56C153.564 28.56 154.764 28.24 155.831 27.6C156.924 26.9333 157.778 26.04 158.391 24.92C159.004 23.7733 159.311 22.4933 159.311 21.08C159.311 19.6667 159.004 18.3867 158.391 17.24C157.778 16.0933 156.924 15.2 155.831 14.56C154.764 13.8933 153.564 13.56 152.231 13.56C150.898 13.56 149.684 13.8933 148.591 14.56C147.524 15.2 146.671 16.0933 146.031 17.24C145.418 18.3867 145.111 19.6667 145.111 21.08C145.111 22.4933 145.418 23.7733 146.031 24.92C146.671 26.04 147.524 26.9333 148.591 27.6C149.684 28.24 150.898 28.56 152.231 28.56ZM174.503 32C173.356 32 172.316 31.6933 171.383 31.08C170.476 30.44 169.77 29.56 169.263 28.44C168.756 27.2933 168.503 26.0133 168.503 24.6V2.76C168.503 2.17333 168.69 1.69333 169.063 1.32C169.436 0.946666 169.916 0.759999 170.503 0.759999C171.09 0.759999 171.57 0.946666 171.943 1.32C172.316 1.69333 172.503 2.17333 172.503 2.76V24.6C172.503 25.5867 172.69 26.4 173.063 27.04C173.436 27.68 173.916 28 174.503 28H175.503C176.036 28 176.463 28.1867 176.783 28.56C177.13 28.9333 177.303 29.4133 177.303 30C177.303 30.5867 177.05 31.0667 176.543 31.44C176.036 31.8133 175.383 32 174.583 32H174.503Z" fill="#0055F1"/>
</svg>
