<svg width="332" height="97" viewBox="0 0 332 97" fill="none" xmlns="http://www.w3.org/2000/svg">
<path d="M6.816 0.599999C16.176 0.599999 29.28 2.76 29.28 19.8C29.28 36.216 16.368 39 6.816 39H0.528C0.24 39 0 38.76 0 38.568V23.496H7.344V31.944C12 32.136 21.888 31.656 21.888 19.8C21.888 10.68 15.696 7.176 7.344 7.608V16.104H0V1.032C0 0.839999 0.24 0.599999 0.528 0.599999H6.816ZM56.958 38.376C57.102 38.712 56.91 39 56.526 39H49.662C49.518 39 49.23 38.856 49.182 38.712L42.174 23.496H38.046V38.568C38.046 38.76 37.806 39 37.518 39H31.23C30.99 39 30.75 38.76 30.75 38.568V16.44H38.046H43.662C45.246 16.44 49.326 16.248 49.326 12.024C49.326 7.8 44.814 7.56 43.662 7.56H38.046H30.75V1.032C30.75 0.839999 30.99 0.599999 31.23 0.599999H43.662C45.822 0.599999 56.622 0.695998 56.622 12.024C56.622 17.88 53.406 20.952 49.566 22.344C51.966 27.768 54.558 33.048 56.958 38.376ZM76.5994 31.848V39H58.8874C58.5994 39 58.3594 38.76 58.3594 38.568V1.032C58.3594 0.839999 58.5994 0.599999 58.8874 0.599999H76.5994V7.56H65.7034V16.248H80.7754C81.0634 16.248 81.3034 16.44 81.3034 16.68V22.776C81.3034 22.968 81.0634 23.208 80.7754 23.208H65.7034V31.848H76.5994ZM112.597 38.424C112.741 38.712 112.501 39 112.165 39H105.541C105.397 39 105.157 38.904 105.109 38.712L97.5251 17.304L90.0371 38.712C89.9891 38.904 89.7491 39 89.5571 39H82.9811C82.5491 39 82.3571 38.712 82.5011 38.424L97.0451 0.887999C97.1891 0.503998 97.8611 0.503998 98.0051 0.887999L112.597 38.424ZM148.509 29.736V17.544L138.717 37.176C138.669 37.32 138.429 37.464 138.285 37.464H132.381C132.237 37.464 131.949 37.32 131.901 37.176L121.485 17.016V38.568C121.485 38.76 121.245 39 120.957 39H114.621C114.285 39 114.141 38.76 114.141 38.568V1.032C114.141 0.839999 114.285 0.599999 114.621 0.599999H121.053C121.197 0.599999 121.485 0.743998 121.533 0.887999L135.309 29.016L148.413 0.887999C148.509 0.743998 148.749 0.599999 148.941 0.599999H155.277C155.613 0.599999 155.805 0.839999 155.805 1.032V29.736H148.509ZM176.738 0.599999C186.098 0.599999 199.202 2.76 199.202 19.8C199.202 36.216 186.29 39 176.738 39H170.45C170.162 39 169.922 38.76 169.922 38.568V23.496H177.266V31.944C181.922 32.136 191.81 31.656 191.81 19.8C191.81 10.68 185.618 7.176 177.266 7.608V16.104H169.922V1.032C169.922 0.839999 170.162 0.599999 170.45 0.599999H176.738ZM218.912 31.848V39H201.2C200.912 39 200.672 38.76 200.672 38.568V1.032C200.672 0.839999 200.912 0.599999 201.2 0.599999H218.912V7.56H208.016V16.248H223.088C223.376 16.248 223.616 16.44 223.616 16.68V22.776C223.616 22.968 223.376 23.208 223.088 23.208H208.016V31.848H218.912ZM254.91 38.424C255.054 38.712 254.814 39 254.478 39H247.854C247.71 39 247.47 38.904 247.422 38.712L239.838 17.304L232.35 38.712C232.302 38.904 232.062 39 231.87 39H225.294C224.862 39 224.67 38.712 224.814 38.424L239.358 0.887999C239.502 0.503998 240.174 0.503998 240.318 0.887999L254.91 38.424ZM277.189 31.848C277.525 31.848 277.717 32.088 277.717 32.328V38.568C277.717 38.76 277.525 39 277.189 39H256.981C256.693 39 256.453 38.76 256.453 38.568V31.848H263.797H277.189ZM263.797 24.504H256.453V1.032C256.453 0.839999 256.693 0.599999 256.981 0.599999H263.317C263.605 0.599999 263.797 0.839999 263.797 1.032V24.504ZM18.72 70.024C18.72 65.416 13.056 65.464 13.056 65.464H7.296V74.248H13.056C13.056 74.248 18.72 74.248 18.72 70.024ZM26.064 69.592C26.064 74.056 23.664 76.6 20.736 77.8C26.832 79.864 26.592 85.816 26.592 85.816C26.592 96.52 15.648 97 13.056 97H7.344V89.992H13.056C15.456 89.992 19.248 89.32 19.248 85.624C19.248 81.112 13.056 81.4 13.056 81.4H7.296H0V59.032C0 58.84 0.24 58.6 0.528 58.6H13.056C13.056 58.6 26.064 58.312 26.064 69.592ZM46.1775 89.848V97H28.4655C28.1775 97 27.9375 96.76 27.9375 96.568V59.032C27.9375 58.84 28.1775 58.6 28.4655 58.6H46.1775V65.56H35.2815V74.248H50.3535C50.6415 74.248 50.8815 74.44 50.8815 74.68V80.776C50.8815 80.968 50.6415 81.208 50.3535 81.208H35.2815V89.848H46.1775ZM73.9673 89.944H81.3113V96.568C81.3113 96.76 81.1193 97 80.7833 97H74.5433C64.9913 97 52.0312 94.216 52.0312 77.8C52.0312 60.76 65.1353 58.6 74.5433 58.6H80.7833C81.1193 58.6 81.3113 58.84 81.3113 59.032V74.104H73.9673V65.608C65.6153 65.176 59.4233 68.68 59.4233 77.8C59.4233 89.656 69.3113 90.136 73.9673 89.944ZM104.861 77.896C104.861 79.864 103.277 81.496 101.261 81.496C99.2453 81.496 97.6613 79.864 97.6613 77.896C97.6613 75.88 99.2453 74.248 101.261 74.248C103.277 74.248 104.861 75.88 104.861 77.896ZM119.741 77.752C119.741 87.352 113.549 97 101.309 97C88.8773 97 82.7812 87.352 82.7812 77.752C82.7812 68.2 88.8773 58.6 101.309 58.6C113.549 58.6 119.741 68.2 119.741 77.752ZM112.541 77.896C112.541 71.608 108.749 65.368 101.309 65.368C93.7733 65.368 90.0293 71.608 90.0293 77.896C90.0293 84.088 93.7733 90.28 101.309 90.28C108.749 90.28 112.541 84.088 112.541 77.896ZM155.915 87.736V75.544L146.123 95.176C146.075 95.32 145.835 95.464 145.691 95.464H139.787C139.643 95.464 139.355 95.32 139.307 95.176L128.891 75.016V96.568C128.891 96.76 128.651 97 128.363 97H122.027C121.691 97 121.547 96.76 121.547 96.568V59.032C121.547 58.84 121.691 58.6 122.027 58.6H128.459C128.603 58.6 128.891 58.744 128.939 58.888L142.715 87.016L155.819 58.888C155.915 58.744 156.155 58.6 156.347 58.6H162.683C163.019 58.6 163.211 58.84 163.211 59.032V87.736H155.915ZM183.568 89.848V97H165.856C165.568 97 165.328 96.76 165.328 96.568V59.032C165.328 58.84 165.568 58.6 165.856 58.6H183.568V65.56H172.672V74.248H187.744C188.032 74.248 188.272 74.44 188.272 74.68V80.776C188.272 80.968 188.032 81.208 187.744 81.208H172.672V89.848H183.568ZM207.038 75.688C211.07 77.56 213.278 81.304 213.278 85.816C213.278 93.016 207.518 97 201.374 97C201.374 97 201.374 97 201.326 97V90.088C201.374 90.088 201.374 90.088 201.374 90.088C203.918 90.088 206.174 88.36 206.174 85.816C206.174 82.984 203.534 81.256 201.374 81.16C201.038 81.16 198.446 81.16 195.662 79.864C191.678 78.04 189.422 74.632 189.422 70.168C189.422 62.968 195.23 58.6 201.374 58.6C207.95 58.6 213.038 63.016 213.134 69.544C213.182 69.688 212.942 69.928 212.606 69.928H206.606C206.318 69.928 206.078 69.688 206.078 69.544C205.982 66.808 203.87 65.512 201.374 65.512C198.734 65.512 196.574 67.096 196.574 70.168C196.574 72.952 198.926 74.392 201.374 74.392C201.614 74.392 204.302 74.392 207.038 75.688ZM234.42 72.52H241.716V96.568C241.716 96.76 241.476 97 241.14 97H234.948C234.612 97 234.42 96.76 234.42 96.568V72.52ZM227.028 65.176C226.74 65.176 226.5 64.984 226.5 64.744V59.032C226.5 58.84 226.74 58.6 227.028 58.6H249.06C249.396 58.6 249.588 58.84 249.588 59.032V64.744C249.588 64.984 249.396 65.176 249.06 65.176H227.028ZM276.942 96.376C277.086 96.712 276.894 97 276.51 97H269.646C269.502 97 269.214 96.856 269.166 96.712L262.158 81.496H258.03V96.568C258.03 96.76 257.79 97 257.502 97H251.214C250.974 97 250.734 96.76 250.734 96.568V74.44H258.03H263.646C265.23 74.44 269.31 74.248 269.31 70.024C269.31 65.8 264.798 65.56 263.646 65.56H258.03H250.734V59.032C250.734 58.84 250.974 58.6 251.214 58.6H263.646C265.806 58.6 276.606 58.696 276.606 70.024C276.606 75.88 273.39 78.952 269.55 80.344C271.95 85.768 274.542 91.048 276.942 96.376ZM306.664 58.6C306.904 58.6 307.144 58.84 307.144 59.032V84.184C307.144 92.296 300.904 97 292.744 97C284.824 97 278.344 92.104 278.344 84.184V65.56H285.592V84.136C286.024 87.928 289.192 89.944 292.744 89.944C296.344 89.944 299.896 88.072 299.896 84.184V59.032C299.896 58.84 300.088 58.6 300.424 58.6H306.664ZM326.818 89.848V97H309.106C308.818 97 308.578 96.76 308.578 96.568V59.032C308.578 58.84 308.818 58.6 309.106 58.6H326.818V65.56H315.922V74.248H330.994C331.282 74.248 331.522 74.44 331.522 74.68V80.776C331.522 80.968 331.282 81.208 330.994 81.208H315.922V89.848H326.818Z" fill="#949494"/>
</svg>
