<svg width="24" height="24" viewBox="0 0 24 24" fill="none" xmlns="http://www.w3.org/2000/svg">
<path fill-rule="evenodd" clip-rule="evenodd" d="M8.948 1.25H15.052C15.9505 1.24997 16.6997 1.24994 17.2945 1.32991C17.9223 1.41431 18.4891 1.59998 18.9445 2.05545C19.4 2.51092 19.5857 3.07772 19.6701 3.70552C19.7501 4.30029 19.75 5.04954 19.75 5.948V22.75H4.25V5.94796C4.24997 5.04951 4.24995 4.30028 4.32992 3.70552C4.41432 3.07772 4.59999 2.51092 5.05546 2.05545C5.51093 1.59998 6.07773 1.41431 6.70552 1.32991C7.30031 1.24994 8.04952 1.24997 8.948 1.25ZM17 11C17 10.4477 16.5523 10 16 10C15.4477 10 15 10.4477 15 11V13C15 13.5522 15.4477 14 16 14C16.5523 14 17 13.5522 17 13V11Z" fill="black"/>
<path fill-rule="evenodd" clip-rule="evenodd" d="M2 22C2 21.4477 2.44772 21 3 21H21C21.5523 21 22 21.4477 22 22C22 22.5523 21.5523 23 21 23H3C2.44772 23 2 22.5523 2 22Z" fill="black"/>
</svg>
