<svg width="24" height="24" viewBox="0 0 24 24" fill="none" xmlns="http://www.w3.org/2000/svg">
<path d="M22.6452 7.23585C19.3379 4.44312 15.695 2.99998 12 3C8.30506 3.00002 4.6621 4.44319 1.35484 7.23597C0.93288 7.59229 0.879668 8.22322 1.23599 8.64518C1.59231 9.06714 2.22324 9.12035 2.6452 8.76403C5.65374 6.2235 8.85288 5.00001 12 5C15.1472 4.99999 18.3463 6.22345 21.3548 8.76393C21.7768 9.12024 22.4077 9.06703 22.7641 8.64506C23.1204 8.22309 23.0672 7.59217 22.6452 7.23585Z" fill="black"/>
<path d="M10.2287 8.15261C12.1653 7.76837 14.1093 8.11437 15.9799 9.13762C16.4645 9.40266 16.6424 10.0103 16.3773 10.4949C16.1123 10.9794 15.5047 11.1573 15.0201 10.8923C13.5129 10.0678 12.0435 9.83153 10.6179 10.1144C9.17815 10.4 7.69126 11.2341 6.20446 12.7098C5.81249 13.0989 5.17933 13.0965 4.79026 12.7046C4.4012 12.3126 4.40356 11.6794 4.79554 11.2904C6.48201 9.61642 8.3062 8.53404 10.2287 8.15261Z" fill="black"/>
<path d="M7.79289 14.793C9.29429 13.2916 11.308 12.7164 13.2125 13.1306C13.7522 13.248 14.0945 13.7806 13.9772 14.3203C13.8598 14.86 13.3272 15.2023 12.7875 15.085C11.5676 14.8197 10.2416 15.1727 9.20711 16.2072C8.81658 16.5977 8.18342 16.5977 7.79289 16.2072C7.40237 15.8167 7.40237 15.1835 7.79289 14.793Z" fill="black"/>
<path d="M15.7965 13.9523C15.7965 12.454 17.0128 11.25 18.5 11.25C19.1688 11.25 19.7832 11.4937 20.2557 11.8973C20.5696 12.1655 20.6079 12.6388 20.3413 12.9545C20.0746 13.2702 19.604 13.3087 19.2901 13.0406C19.078 12.8595 18.8032 12.75 18.5 12.75C17.8248 12.75 17.2881 13.2942 17.2881 13.9523V14.6116C17.4531 14.61 17.6293 14.61 17.8168 14.61H19.1832C19.6649 14.61 20.0724 14.6099 20.4059 14.6382C20.7556 14.6679 21.0916 14.7326 21.4097 14.9022C21.8429 15.1331 22.1988 15.4875 22.4313 15.9214C22.6025 16.2408 22.6678 16.5783 22.6977 16.9285C22.7674 17.7463 22.7674 18.6138 22.6977 19.4315C22.6678 19.7816 22.6025 20.1191 22.4313 20.4385C22.1988 20.8724 21.8429 21.2268 21.4097 21.4578C21.0916 21.6273 20.7556 21.6921 20.4059 21.7217C20.0724 21.75 19.6649 21.75 19.1833 21.75H17.8168C17.3352 21.75 16.9276 21.75 16.5941 21.7217C16.2444 21.6921 15.9084 21.6273 15.5903 21.4578C15.1571 21.2268 14.8012 20.8724 14.5687 20.4385C14.3975 20.1191 14.3322 19.7816 14.3023 19.4315C14.2326 18.6137 14.2326 17.7461 14.3023 16.9285C14.3322 16.5783 14.3975 16.2408 14.5687 15.9214C14.8012 15.4875 15.1571 15.1331 15.5903 14.9022C15.6582 14.866 15.727 14.8346 15.7965 14.8072V13.9523Z" fill="black"/>
</svg>
