<svg width="24" height="24" viewBox="0 0 24 24" fill="none" xmlns="http://www.w3.org/2000/svg">
<path fill-rule="evenodd" clip-rule="evenodd" d="M20.7242 2.80504C20.6546 2.54646 20.4524 2.34461 20.1937 2.27546C19.935 2.2063 19.659 2.28033 19.4697 2.46969C19.3431 2.59622 19.2122 2.73232 19.0748 2.8752C17.9142 4.08222 16.2887 5.77259 12.8939 6.25756C9.13938 6.79392 6.25 9.30622 6.25 13C6.25 13.826 6.39837 14.6174 6.66991 15.3489C7.57301 14.9264 8.6194 14.5719 9.81821 14.2722C12.8149 13.5231 14.9256 11.6428 16.3924 9.61515C16.6352 9.27955 17.1041 9.2043 17.4397 9.44707C17.7753 9.68985 17.8505 10.1587 17.6078 10.4943C16.0013 12.715 13.6187 14.8683 10.182 15.7274C9.06254 16.0073 8.1265 16.3276 7.34609 16.6887C8.55116 18.532 10.6333 19.75 13 19.75C15.1621 19.75 18.0547 18.9402 19.9239 16.3094C21.7943 13.677 22.5033 9.413 20.7242 2.80504Z" fill="black"/>
<path fill-rule="evenodd" clip-rule="evenodd" d="M6.66991 15.3491C5.81823 15.7475 5.09398 16.2065 4.48951 16.7372C3.22323 17.8489 2.53491 19.2291 2.26032 20.8767C2.19222 21.2853 2.46824 21.6717 2.87681 21.7398C3.28539 21.8079 3.67181 21.5319 3.73991 21.1233C3.96531 19.7709 4.50595 18.7188 5.47914 17.8644C5.97028 17.4333 6.58397 17.0416 7.34609 16.6889C7.07355 16.272 6.84587 15.8231 6.66991 15.3491Z" fill="black"/>
</svg>
