<svg width="24" height="24" viewBox="0 0 24 24" fill="none" xmlns="http://www.w3.org/2000/svg">
<path d="M19.3771 3.20879C19.622 2.96384 19.7445 2.84136 19.7176 2.68773C19.6907 2.5341 19.5461 2.4663 19.2569 2.33072C18.88 2.15404 18.4815 2.02509 18.0706 1.94928L18.0577 1.94714C13.6391 1.21132 8.98147 2.5473 5.76883 5.75466C2.55686 8.96136 1.21347 13.6158 1.94424 18.0345L1.94677 18.0483C2.02387 18.466 2.15592 18.8709 2.3372 19.2532C2.47358 19.5408 2.54177 19.6846 2.69504 19.7111C2.84832 19.7376 2.97037 19.6156 3.21446 19.3715L8.66153 13.9244C8.86153 13.7244 8.96153 13.6244 8.96153 13.5001C8.96153 13.3759 8.86153 13.2759 8.66153 13.0759L8.29278 12.7071C7.90226 12.3166 7.90226 11.6834 8.29278 11.2929C8.68331 10.9024 9.31647 10.9024 9.70699 11.2929L10.0757 11.6617C10.2757 11.8617 10.3757 11.9617 10.5 11.9617C10.6242 11.9617 10.7242 11.8617 10.9242 11.6617L11.6615 10.9244C11.8615 10.7244 11.9615 10.6244 11.9615 10.5001C11.9615 10.3759 11.8615 10.2759 11.6615 10.0759L11.2927 9.70711C10.9022 9.31658 10.9022 8.68342 11.2927 8.2929C11.6833 7.90237 12.3164 7.90237 12.707 8.2929L13.0757 8.66164C13.2757 8.86164 13.3757 8.96164 13.5 8.96164C13.6242 8.96164 13.7242 8.86164 13.9242 8.66164L19.3771 3.20879Z" fill="black"/>
<path d="M21.6658 4.74984C21.5311 4.45914 21.4637 4.31378 21.3097 4.28646C21.1557 4.25914 21.0328 4.38202 20.7871 4.62779L15.3386 10.0762C15.1386 10.2762 15.0386 10.3762 15.0386 10.5004C15.0386 10.6247 15.1386 10.7247 15.3386 10.9247L15.7072 11.2932C16.0977 11.6837 16.0977 12.3169 15.7072 12.7074C15.3166 13.098 14.6835 13.098 14.2929 12.7074L13.9244 12.3389C13.7244 12.1389 13.6244 12.0389 13.5002 12.0389C13.3759 12.0389 13.2759 12.1389 13.0759 12.3389L12.3386 13.0762C12.1386 13.2762 12.0386 13.3762 12.0386 13.5004C12.0386 13.6247 12.1386 13.7247 12.3386 13.9247L12.7072 14.2932C13.0977 14.6837 13.0977 15.3169 12.7072 15.7074C12.3166 16.098 11.6835 16.098 11.2929 15.7074L10.9244 15.3389C10.7244 15.1389 10.6244 15.0389 10.5002 15.0389C10.3759 15.0389 10.2759 15.1389 10.0759 15.3389L4.64295 20.7719C4.3963 21.0186 4.27298 21.1419 4.30072 21.2962C4.32846 21.4505 4.47463 21.5175 4.76698 21.6515C5.13154 21.8186 5.51599 21.9411 5.91192 22.0144C10.3237 22.8564 15.0523 21.4102 18.2211 18.2109C21.4641 15.0199 22.8069 10.3453 22.0396 5.92388L22.0381 5.91599C21.9636 5.51238 21.8378 5.12071 21.6658 4.74984Z" fill="black"/>
</svg>
