<svg width="24" height="24" viewBox="0 0 24 24" fill="none" xmlns="http://www.w3.org/2000/svg">
<path d="M2.63472 20.345C4.97168 19.0415 8.32222 18.25 12.0001 18.25C15.678 18.25 19.0285 19.0415 21.3655 20.345C21.6637 20.5114 21.8119 20.8582 21.726 21.1887C21.64 21.5193 21.3416 21.75 21.0001 21.75H3.00007C2.65855 21.75 2.36015 21.5193 2.27421 21.1887C2.18826 20.8582 2.33646 20.5114 2.63472 20.345Z" fill="black"/>
<path fill-rule="evenodd" clip-rule="evenodd" d="M10.0035 5.50307C9.45473 4.64436 8.668 3.86641 7.57226 3.48676C6.19988 3.01127 4.5764 3.23979 2.73394 4.28299C2.27221 4.54442 2.11303 5.12509 2.3784 5.57996C2.64377 6.03483 3.2332 6.19165 3.69493 5.93022C5.22742 5.06253 6.2557 5.04459 6.93241 5.27905C7.12249 5.34491 7.30266 5.43676 7.47268 5.5523C5.81603 5.7968 3.97413 6.71386 2.83224 8.98833C2.59614 9.4586 2.79172 10.0284 3.26908 10.261C3.74644 10.4936 4.32481 10.3009 4.5609 9.83062C5.70978 7.54225 7.80458 7.21596 9.1481 7.43381C9.63228 7.74588 10.4465 8.78123 10.4465 11.8C10.4465 12.3247 10.8782 12.75 11.4108 12.75C11.9433 12.75 12.3751 12.3247 12.3751 11.8C12.3751 10.0176 12.1109 8.63896 11.6537 7.62198C11.9364 7.73068 12.2046 7.87768 12.4482 8.06321C13.2059 8.64022 13.8215 9.66375 13.8215 11.322C13.8215 11.8467 14.2532 12.272 14.7857 12.272C15.3183 12.272 15.75 11.8467 15.75 11.322C15.75 9.15624 14.9191 7.54354 13.6277 6.56007C12.5645 5.75037 11.2551 5.41853 10.0035 5.50307Z" fill="black"/>
<path fill-rule="evenodd" clip-rule="evenodd" d="M9.78081 5.86822C10.2172 6.12386 10.378 6.71104 10.14 7.17972C9.30045 8.83283 7.54993 13.6694 7.54993 19.2834C7.54993 19.8172 7.147 20.25 6.64996 20.25C6.15293 20.25 5.75 19.8172 5.75 19.2834C5.75 13.2975 7.59934 8.14525 8.55978 6.25395C8.79779 5.78527 9.34446 5.61257 9.78081 5.86822Z" fill="black"/>
<path d="M16.25 5C16.25 3.48122 17.4812 2.25 19 2.25C20.5188 2.25 21.75 3.48122 21.75 5C21.75 6.51878 20.5188 7.75 19 7.75C17.4812 7.75 16.25 6.51878 16.25 5Z" fill="black"/>
</svg>
