<svg width="28" height="28" viewBox="0 0 28 28" fill="none" xmlns="http://www.w3.org/2000/svg">
<path d="M21.6148 7.29199C22.1332 7.29198 22.5688 7.29197 22.9241 7.31773C23.2927 7.34446 23.6508 7.40263 23.9919 7.5602C24.3783 7.73865 24.7235 8.00639 24.9751 8.35494C25.2127 8.68428 25.3015 9.03908 25.3401 9.37987C25.3751 9.6884 25.375 10.0583 25.375 10.4583V10.5423C25.375 10.9423 25.3751 11.3123 25.3401 11.6208C25.3015 11.9616 25.2127 12.3164 24.9751 12.6457C24.7235 12.9943 24.3783 13.2619 23.9919 13.4404C23.6508 13.5981 23.2927 13.6562 22.9241 13.6829C22.5688 13.7087 22.1332 13.7087 21.6147 13.7087H6.38526C5.86682 13.7087 5.43119 13.7087 5.07596 13.6829C4.70726 13.6562 4.34925 13.5981 4.00811 13.4404C3.62173 13.2619 3.27648 12.9943 3.02494 12.6457C2.78725 12.3164 2.69849 11.9616 2.65987 11.6208C2.62492 11.3123 2.62497 10.9423 2.625 10.5423V10.4584C2.62497 10.0583 2.62492 9.6884 2.65987 9.37987C2.69849 9.03908 2.78725 8.68428 3.02494 8.35494C3.27648 8.00639 3.62173 7.73865 4.00811 7.5602C4.34925 7.40263 4.70726 7.34446 5.07596 7.31773C5.43117 7.29197 5.86681 7.29198 6.38524 7.29199H21.6148Z" fill="#0055F1"/>
<path d="M4.41726 15.0708C4.10999 15.0191 3.95636 14.9932 3.87369 15.0631C3.79102 15.133 3.79102 15.2762 3.79102 15.5629V17.563C3.79099 19.4327 3.79098 20.9249 3.94832 22.0951C4.11086 23.3041 4.45562 24.2997 5.24328 25.0874C6.03095 25.8751 7.02659 26.2198 8.23556 26.3823C9.40583 26.5397 10.898 26.5397 12.7677 26.5397C12.8035 26.5397 12.8327 26.5105 12.8327 26.4746V15.6314C12.8327 15.4113 12.8327 15.3013 12.7643 15.233C12.6959 15.1647 12.5861 15.1647 12.366 15.1647H6.34498C5.85887 15.1647 5.37832 15.1647 4.96983 15.1351C4.80023 15.1228 4.61419 15.104 4.41726 15.0708Z" fill="#0055F1"/>
<path d="M15.6327 15.1647C15.4126 15.1647 15.3027 15.1647 15.2344 15.233C15.166 15.3014 15.166 15.4114 15.166 15.6314V26.4746C15.166 26.5106 15.1952 26.5397 15.231 26.5397C17.1007 26.5397 18.5929 26.5397 19.7631 26.3824C20.9722 26.2198 21.9678 25.8751 22.7554 25.0875C23.543 24.2997 23.8878 23.3041 24.0504 22.0951C24.2077 20.9249 24.2077 19.4328 24.2077 17.5631V15.5629C24.2077 15.2763 24.2077 15.133 24.125 15.0631C24.0424 14.9932 23.8887 15.019 23.5814 15.0708C23.3845 15.1041 23.1984 15.1229 23.0289 15.1351C22.6203 15.1647 22.1399 15.1647 21.6537 15.1647H15.6327Z" fill="#0055F1"/>
<path fill-rule="evenodd" clip-rule="evenodd" d="M9.08398 1.45801C7.28906 1.45801 5.83398 2.91309 5.83398 4.70801C5.83398 7.42341 8.03525 9.62467 10.7507 9.62467H14.0007H17.2506C19.9661 9.62467 22.1673 7.42341 22.1673 4.70801C22.1673 2.91309 20.7123 1.45801 18.9173 1.45801H18.5006C16.6667 1.45801 15.0363 2.32916 14.0007 3.6802C12.965 2.32916 11.3345 1.45801 9.50065 1.45801H9.08398ZM12.834 7.12467C12.834 5.28373 11.3416 3.79134 9.50065 3.79134H9.08398C8.57773 3.79134 8.16732 4.20175 8.16732 4.70801C8.16732 6.13474 9.32392 7.29134 10.7507 7.29134H12.834V7.12467ZM15.1673 7.29134H17.2506C18.6774 7.29134 19.834 6.13474 19.834 4.70801C19.834 4.20175 19.4236 3.79134 18.9173 3.79134H18.5006C16.6597 3.79134 15.1673 5.28373 15.1673 7.12467V7.29134Z" fill="#0055F1"/>
</svg>
