<svg width="28" height="28" viewBox="0 0 28 28" fill="none" xmlns="http://www.w3.org/2000/svg">
<path fill-rule="evenodd" clip-rule="evenodd" d="M14.5243 1.63302C15.0296 2.012 15.5861 2.48585 16.0339 2.87764C16.9282 3.66014 18.1227 4.77976 19.3201 6.1267C21.6736 8.77441 24.2077 12.4873 24.2077 16.333C24.2077 21.9709 19.6373 26.5413 13.9993 26.5413C8.36144 26.5413 3.79102 21.9709 3.79102 16.333C3.79102 12.4873 6.32519 8.77441 8.6787 6.1267C8.88017 5.90004 9.18463 5.79386 9.48336 5.8461C9.78208 5.89832 10.0325 6.10149 10.1451 6.38305C10.4359 7.11011 10.6252 7.48327 10.8584 7.75664C10.9732 7.89129 11.1132 8.01793 11.3145 8.15138C12.3674 6.14564 12.7413 4.71856 13.1348 2.19805C13.1822 1.89457 13.3852 1.63816 13.6698 1.52246C13.9543 1.40677 14.2786 1.44873 14.5243 1.63302ZM9.67439 21.8246C9.21878 21.369 9.21878 20.6303 9.67439 20.1747L16.6744 13.1747C17.13 12.7192 17.8687 12.7192 18.3243 13.1747C18.7799 13.6303 18.7799 14.3691 18.3243 14.8246L11.3243 21.8246C10.8687 22.2802 10.13 22.2802 9.67439 21.8246ZM10.5119 12.833H10.4993C9.85502 12.833 9.33268 13.3553 9.33268 13.9997C9.33268 14.644 9.85502 15.1664 10.4993 15.1664H10.5119C11.1562 15.1664 11.6786 14.644 11.6786 13.9997C11.6786 13.3553 11.1562 12.833 10.5119 12.833ZM17.4867 19.833C16.8425 19.833 16.3201 20.3553 16.3201 20.9997C16.3201 21.644 16.8425 22.1663 17.4867 22.1663H17.4993C18.1437 22.1663 18.666 21.644 18.666 20.9997C18.666 20.3553 18.1437 19.833 17.4993 19.833H17.4867Z" fill="#0055F1"/>
</svg>
