<svg width="28" height="28" viewBox="0 0 28 28" fill="none" xmlns="http://www.w3.org/2000/svg">
<path fill-rule="evenodd" clip-rule="evenodd" d="M21.5712 3.38667C20.2421 3.20797 18.5439 3.20799 16.3998 3.20801H11.6015C9.45745 3.20799 7.75921 3.20797 6.43013 3.38667C5.06231 3.57056 3.9552 3.95804 3.0821 4.83112C2.20901 5.70422 1.82154 6.81133 1.63765 8.17915C1.45895 9.50823 1.45896 11.2065 1.45898 13.3505V14.6488C1.45896 16.7929 1.45895 18.4911 1.63765 19.8202C1.82154 21.188 2.20901 22.2951 3.0821 23.1683C3.9552 24.0413 5.06231 24.4287 6.43013 24.6127C7.7592 24.7913 9.45742 24.7913 11.6014 24.7913H16.3998C18.5438 24.7913 20.2421 24.7913 21.5712 24.6127C22.939 24.4287 24.0461 24.0413 24.9193 23.1683C25.7923 22.2951 26.1797 21.188 26.3637 19.8202C26.5423 18.4911 26.5423 16.7929 26.5423 14.6489V13.3505C26.5423 11.2066 26.5423 9.50822 26.3637 8.17915C26.1797 6.81133 25.7923 5.70422 24.9193 4.83112C24.0461 3.95804 22.939 3.57056 21.5712 3.38667ZM13.6461 18.3408C12.0444 14.3493 6.50389 14.6476 5.02193 18.3408C4.91374 18.6105 4.94642 18.9162 5.10916 19.1568C5.27191 19.3975 5.54347 19.5417 5.83399 19.5417H12.834C13.1245 19.5417 13.3961 19.3975 13.5588 19.1568C13.7216 18.9162 13.7543 18.6105 13.6461 18.3408ZM7.00065 11.3747C7.00065 10.086 8.04532 9.04134 9.33399 9.04134C10.6227 9.04134 11.6673 10.086 11.6673 11.3747C11.6673 12.6634 10.6227 13.708 9.33399 13.708C8.04532 13.708 7.00065 12.6634 7.00065 11.3747ZM16.334 9.04134C15.8508 9.04134 15.459 9.4331 15.459 9.91634C15.459 10.3996 15.8508 10.7913 16.334 10.7913H22.1673C22.6506 10.7913 23.0423 10.3996 23.0423 9.91634C23.0423 9.4331 22.6506 9.04134 22.1673 9.04134H16.334ZM16.334 13.1247C15.8508 13.1247 15.459 13.5164 15.459 13.9997C15.459 14.4829 15.8508 14.8747 16.334 14.8747H22.1673C22.6506 14.8747 23.0423 14.4829 23.0423 13.9997C23.0423 13.5164 22.6506 13.1247 22.1673 13.1247H16.334ZM16.334 17.208C15.8508 17.208 15.459 17.5998 15.459 18.083C15.459 18.5662 15.8508 18.958 16.334 18.958H19.2507C19.7339 18.958 20.1257 18.5662 20.1257 18.083C20.1257 17.5998 19.7339 17.208 19.2507 17.208H16.334Z" fill="#FFBF03"/>
</svg>
