<svg width="48" height="48" viewBox="0 0 48 48" fill="none" xmlns="http://www.w3.org/2000/svg">
<path fill-rule="evenodd" clip-rule="evenodd" d="M26.5734 0.93169C25.0826 -0.310563 22.9172 -0.310563 21.4266 0.93169L16.4852 5.04952H9.06931C6.84926 5.04952 5.04952 6.84924 5.04952 9.06931V16.4852L0.93169 21.4266C-0.310563 22.9172 -0.310563 25.0826 0.93169 26.5734L5.04952 31.5147L5.04954 38.9307C5.04954 41.1507 6.84926 42.9505 9.06934 42.9505H16.4852L21.4266 47.0683C22.9172 48.3106 25.0826 48.3106 26.5734 47.0683L31.5147 42.9505H38.9307C41.1507 42.9505 42.9505 41.1507 42.9505 38.9307V31.5147L47.0683 26.5734C48.3106 25.0826 48.3106 22.9172 47.0683 21.4266L42.9505 16.4852V9.06931C42.9505 6.84924 41.1507 5.04952 38.9307 5.04952H31.5147L26.5734 0.93169ZM31.9523 20.2947C33.0774 19.7087 33.5145 18.3214 32.9285 17.1963C32.3426 16.0711 30.9552 15.6341 29.8301 16.2201C26.5502 17.9285 23.8739 21.1988 22.1056 23.7776C21.9527 24.0009 21.8047 24.2214 21.6623 24.4378C21.341 24.9262 21.0474 25.3948 20.7835 25.831C20.5864 25.6642 20.3948 25.5103 20.2129 25.3695C20.1545 25.3247 20.0974 25.281 20.0413 25.2388C19.5468 24.8664 19.1018 24.5729 18.777 24.3703C18.6139 24.2685 18.4793 24.1886 18.3817 24.1318C18.3328 24.1036 18.2929 24.0809 18.2632 24.0643L18.2264 24.0439L18.2139 24.037L18.2091 24.0345L18.2054 24.0324C17.0907 23.4269 15.6961 23.8397 15.0906 24.9544C14.4852 26.0689 14.8985 27.4637 16.0127 28.0694L16.0174 28.0719L16.0787 28.1071C16.1371 28.1408 16.2286 28.1951 16.3454 28.2679C16.5805 28.4146 16.911 28.6326 17.2778 28.9087C18.0441 29.4858 18.8248 30.21 19.2984 30.9641C19.7434 31.6727 20.5384 32.0832 21.3738 32.0359C22.2088 31.9886 22.9523 31.4904 23.3146 30.7365L23.3203 30.7245L23.3495 30.6655C23.3766 30.6108 23.4188 30.5265 23.4756 30.416C23.5891 30.1948 23.7602 29.8696 23.9837 29.4676C24.4316 28.6616 25.0833 27.559 25.8946 26.3756C27.5719 23.9297 29.7194 21.4577 31.9523 20.2947Z" fill="#1E88E5"/>
</svg>
