<svg width="28" height="28" viewBox="0 0 28 28" fill="none" xmlns="http://www.w3.org/2000/svg">
<path fill-rule="evenodd" clip-rule="evenodd" d="M3.20703 11.6005C3.20702 10.5453 3.20702 9.59803 3.22831 8.74967H6.07874C5.75312 9.67297 5.95948 10.742 6.69787 11.4806C7.70432 12.4873 9.32498 12.5058 10.3539 11.5357L12.2385 9.96312C12.655 9.60009 13.1423 9.14762 13.544 8.66251C13.746 8.41843 13.9773 8.10604 14.1678 7.73987C14.3481 7.39319 14.5821 6.8282 14.5821 6.12467C14.5821 5.42116 14.3481 4.85616 14.1678 4.50948C13.9773 4.14331 13.746 3.83093 13.544 3.58684C13.1423 3.10174 12.655 2.64926 12.2385 2.28622L11.2552 1.4657C11.9006 1.458 12.5976 1.45801 13.3494 1.45801H14.6479C16.792 1.458 18.4902 1.45797 19.8192 1.63667C21.187 1.82056 22.2942 2.20803 23.1672 3.08112C24.0403 3.95422 24.4278 5.06133 24.6117 6.42915C24.7904 7.75823 24.7904 9.4565 24.7904 11.6005V16.3989C24.7904 18.5429 24.7904 20.2411 24.6117 21.5702C24.4278 22.938 24.0403 24.0451 23.1672 24.9183C22.2942 25.7913 21.187 26.1787 19.8192 26.3627C18.4902 26.5413 16.7918 26.5413 14.6479 26.5413H13.3495C11.2055 26.5413 9.50724 26.5413 8.17817 26.3627C6.81035 26.1787 5.70324 25.7913 4.83015 24.9183C3.95706 24.0451 3.56959 22.938 3.3857 21.5702C3.207 20.2411 3.20701 18.5429 3.20703 16.3988V11.6005ZM15.7509 18.958C15.2677 18.958 14.8759 19.3498 14.8759 19.833C14.8759 20.3162 15.2677 20.708 15.7509 20.708H20.4176C20.9008 20.708 21.2926 20.3162 21.2926 19.833C21.2926 19.3498 20.9008 18.958 20.4176 18.958H15.7509ZM14.8759 8.16634C14.8759 7.6831 15.2677 7.29134 15.7509 7.29134H20.4176C20.9008 7.29134 21.2926 7.6831 21.2926 8.16634C21.2926 8.64959 20.9008 9.04134 20.4176 9.04134H15.7509C15.2677 9.04134 14.8759 8.64959 14.8759 8.16634ZM15.7509 13.1247C15.2677 13.1247 14.8759 13.5164 14.8759 13.9997C14.8759 14.4829 15.2677 14.8747 15.7509 14.8747H20.4176C20.9008 14.8747 21.2926 14.4829 21.2926 13.9997C21.2926 13.5164 20.9008 13.1247 20.4176 13.1247H15.7509ZM13.6171 15.9419C13.8333 16.3741 13.6581 16.8997 13.2258 17.1158C12.2945 17.5816 11.5266 18.5627 10.9692 19.5382C10.6991 20.0109 10.4954 20.4519 10.3597 20.7743C10.2921 20.9349 10.1973 21.1889 10.1646 21.2765C10.0498 21.6206 9.73448 21.8585 9.37212 21.8741C9.00962 21.8896 8.67511 21.6798 8.53124 21.3468C8.29157 20.7919 7.96495 20.4744 7.71712 20.2969C7.59106 20.2066 7.43164 20.117 7.33753 20.0893C6.88031 19.9549 6.61376 19.478 6.74111 19.0169C6.86975 18.5511 7.35165 18.2778 7.81746 18.4064C8.05338 18.4716 8.50227 18.7067 8.73607 18.8741C8.8708 18.9706 9.01177 19.0851 9.15331 19.2198C9.2427 19.044 9.34152 18.8594 9.44982 18.67C10.0591 17.6036 11.0413 16.2516 12.4432 15.5505C12.8755 15.3345 13.401 15.5097 13.6171 15.9419ZM9.37911 1.79962C8.92344 1.34406 8.18474 1.34415 7.7292 1.79982C7.27363 2.25548 7.27373 2.99418 7.72939 3.44973L9.52982 4.95801H4.3737C3.72936 4.95801 3.20703 5.48035 3.20703 6.12467C3.20703 6.769 3.72936 7.29134 4.3737 7.29134H9.52982L7.72939 8.79962C7.27373 9.25517 7.27363 9.99387 7.7292 10.4495C8.18474 10.9052 8.92344 10.9053 9.37911 10.4497L11.2803 8.86375C11.6778 8.51736 12.0949 8.12603 12.4207 7.73242C12.5842 7.53503 12.7474 7.31026 12.8741 7.06677C12.9962 6.832 13.1237 6.50543 13.1237 6.12467C13.1237 5.74392 12.9962 5.41735 12.8741 5.18258C12.7474 4.93908 12.5842 4.71431 12.4207 4.51693C12.0949 4.12332 11.6778 3.73199 11.2803 3.38561L9.37911 1.79962Z" fill="#0055F1"/>
</svg>
