<svg width="18" height="18" viewBox="0 0 18 18" fill="none" xmlns="http://www.w3.org/2000/svg">
<g clip-path="url(#clip0_2615_23197)">
<path d="M3.78906 1.44043L3.88672 1.4541C4.11276 1.50082 4.31456 1.64318 4.46387 1.86133L4.52539 1.95898L5.19531 3.16113C5.38392 3.49947 5.53897 3.77807 5.65625 4.01953L5.76074 4.25C5.87055 4.5123 5.92675 4.73704 5.9209 4.96387L5.91504 5.06152C5.89459 5.25738 5.829 5.43784 5.71973 5.62891L5.59668 5.82422C5.5066 5.95465 5.39628 6.09406 5.2666 6.25L4.81836 6.77246L3.83398 7.90332C3.75376 7.99546 3.66363 8.09809 3.59766 8.19531C3.54198 8.27737 3.4868 8.37807 3.45801 8.50098L3.43848 8.63086C3.42698 8.81169 3.4786 8.96071 3.53809 9.0791C3.56418 9.13103 3.59645 9.18446 3.62988 9.2373L3.73145 9.3916C4.92128 11.1718 6.4967 12.7851 8.25488 14.0264L8.6084 14.2695C8.70613 14.3349 8.81707 14.4097 8.9209 14.4619C9.03902 14.5213 9.1879 14.5717 9.36816 14.5605L9.36914 14.5615C9.55288 14.5499 9.69633 14.4775 9.80566 14.4033C9.85433 14.3703 9.9039 14.3309 9.95312 14.29L10.0967 14.167L11.2285 13.1826C11.5209 12.928 11.7614 12.7184 11.9736 12.5537L12.1768 12.4043C12.411 12.2425 12.6194 12.1406 12.8428 12.0996L12.9395 12.0859C13.1351 12.0656 13.325 12.0919 13.5342 12.1592L13.751 12.2402C13.897 12.3014 14.0562 12.38 14.2354 12.4746L14.8398 12.8057L16.042 13.4756C16.2815 13.6092 16.4471 13.8 16.5205 14.0186L16.5459 14.1143C16.5925 14.3406 16.5426 14.5842 16.3887 14.8145L16.3164 14.9131C15.4184 16.0146 14.0399 16.7102 12.5986 16.5361L12.3096 16.4893C11.4062 16.307 10.5132 16.0201 9.46973 15.4727L9.0127 15.2207C6.64826 13.8647 4.50817 11.7872 3.05957 9.45703L2.7793 8.98828C2.15417 7.89827 1.81117 6.9819 1.5957 6.07812L1.51074 5.69141C1.21867 4.24353 1.82763 2.83033 2.87305 1.87012L3.08789 1.68359C3.31376 1.49953 3.55813 1.42123 3.78906 1.44043Z" fill="white" stroke="white"/>
</g>
<defs>
<clipPath id="clip0_2615_23197">
<rect width="18" height="18" fill="white"/>
</clipPath>
</defs>
</svg>
