<svg width="32" height="32" viewBox="0 0 32 32" fill="none" xmlns="http://www.w3.org/2000/svg">
<path d="M23.0664 22.0947C23.351 22.065 23.6462 22.1086 24.0371 22.2549L24.2109 22.3242C24.4514 22.425 24.7167 22.5557 25.0234 22.7178L26.084 23.2998L28.2207 24.4902C28.5362 24.6661 28.7158 24.8939 28.791 25.1191L28.8174 25.2148C28.8629 25.435 28.8241 25.7065 28.6279 25.999L28.5342 26.126C26.9927 28.0171 24.6361 29.1437 22.2373 28.7578L22.0049 28.7158C20.3429 28.3805 18.7017 27.84 16.7266 26.7549L16.3271 26.5303C16.2943 26.5114 16.2613 26.4917 16.2285 26.4727C16.3226 26.4886 16.4218 26.4989 16.5264 26.501L16.6963 26.498C17.1699 26.4679 17.5287 26.2787 17.7754 26.1113C17.8804 26.04 17.9864 25.9576 18.085 25.876L18.3516 25.6475L20.3623 23.8965C20.8886 23.4383 21.3023 23.0793 21.6572 22.8037L21.9951 22.5557V22.5547C22.3696 22.296 22.66 22.1632 22.9443 22.1113L23.0664 22.0947ZM6.68945 3.1709L6.78613 3.18457C7.00959 3.23075 7.24321 3.37632 7.43262 3.65332L7.51074 3.78027L8.70215 5.91699C9.04209 6.5268 9.30739 7.00589 9.50391 7.41016L9.67773 7.79102C9.85376 8.21133 9.92309 8.52317 9.91504 8.8125L9.90723 8.93457C9.87755 9.21907 9.77344 9.4984 9.5498 9.85059L9.44629 10.0068C9.29809 10.2214 9.11545 10.454 8.89355 10.7207L8.10547 11.6387L6.35449 13.6494C6.22168 13.8019 6.03241 14.0152 5.88965 14.2256C5.74319 14.4414 5.58103 14.7436 5.52246 15.1328L5.50391 15.3057C5.49331 15.4728 5.5041 15.6283 5.52832 15.7715L5.47168 15.6748C4.38964 13.7881 3.80139 12.2132 3.43164 10.6611L3.28516 9.99707C2.81646 7.67364 3.78763 5.36582 5.51953 3.77539L5.87598 3.46777C6.17407 3.22482 6.45534 3.15071 6.68945 3.1709Z" fill="#0055F1" stroke="#0055F1" stroke-width="3"/>
</svg>
