<svg width="19" height="18" viewBox="0 0 19 18" fill="none" xmlns="http://www.w3.org/2000/svg">
<path d="M12.8187 3.45382L13.5612 2.71132C14.1763 2.09623 15.1736 2.09623 15.7887 2.71132C16.4037 3.32643 16.4037 4.3237 15.7887 4.9388L15.0462 5.68129M12.8187 3.45382L7.82419 8.4483C7.44355 8.829 7.17353 9.30585 7.04298 9.82807L6.5 12L8.67192 11.457C9.19415 11.3265 9.671 11.0564 10.0517 10.6758L15.0462 5.68129M12.8187 3.45382L15.0462 5.68129" stroke="#3B3B3B" stroke-width="1.5" stroke-linejoin="round"/>
<path d="M14.7499 10.125C14.7499 12.5906 14.7499 13.8234 14.069 14.6532C13.9443 14.8051 13.8051 14.9443 13.6531 15.069C12.8234 15.75 11.5905 15.75 9.12492 15.75H8.75C5.92157 15.75 4.50737 15.75 3.62869 14.8713C2.75002 13.9927 2.75 12.5784 2.75 9.75V9.375C2.75 6.90939 2.75 5.67659 3.43095 4.84683C3.55563 4.69493 3.69493 4.55563 3.84683 4.43095C4.67659 3.75 5.90939 3.75 8.375 3.75" stroke="#3B3B3B" stroke-width="1.5" stroke-linecap="round" stroke-linejoin="round"/>
</svg>
