<svg width="32" height="32" viewBox="0 0 32 32" fill="none" xmlns="http://www.w3.org/2000/svg">
<path fill-rule="evenodd" clip-rule="evenodd" d="M19.8937 3.71606C17.2897 3.65064 14.711 3.65064 12.107 3.71606L12.0294 3.71801C9.99632 3.76905 8.36035 3.81013 7.04926 4.03846C5.67659 4.27752 4.56096 4.73602 3.61848 5.68209C2.67994 6.6242 2.22384 7.72378 1.98934 9.07419C1.76604 10.36 1.73203 11.9561 1.68991 13.9332L1.68823 14.0116C1.65991 15.34 1.65991 16.6606 1.68824 17.9892L1.68991 18.0674C1.73204 20.0446 1.76604 21.6406 1.98934 22.9265C2.22384 24.2769 2.67995 25.3765 3.61848 26.3185C4.56096 27.2646 5.67659 27.7232 7.04926 27.9622C8.36034 28.1905 9.99628 28.2316 12.0294 28.2826L12.107 28.2846C14.711 28.35 17.2897 28.35 19.8937 28.2846L19.9713 28.2826C22.0043 28.2316 23.6403 28.1905 24.9514 27.9622C26.3241 27.7232 27.4397 27.2646 28.3822 26.3185C29.3207 25.3765 29.7769 24.2769 30.0113 22.9265C30.2346 21.6406 30.2686 20.0446 30.3107 18.0674L30.3125 17.9892C30.3407 16.6606 30.3407 15.34 30.3125 14.0116L30.3107 13.9332C30.2686 11.9561 30.2346 10.36 30.0113 9.07422C29.7769 7.72381 29.3207 6.62422 28.3822 5.68212C27.4397 4.73605 26.3241 4.27754 24.9514 4.03849C23.6403 3.81014 22.0043 3.76906 19.9713 3.71802L19.8937 3.71606ZM9.84275 10.473C9.36735 10.1919 8.7541 10.3495 8.47302 10.8249C8.19194 11.3003 8.34947 11.9135 8.82487 12.1946L12.7476 14.5138C13.9087 15.2004 14.9106 15.6672 16.0005 15.6672C17.0903 15.6672 18.0923 15.2004 19.2534 14.5138L23.1761 12.1946C23.6515 11.9135 23.809 11.3003 23.5279 10.8249C23.2469 10.3495 22.6337 10.1919 22.1582 10.473L18.2355 12.7923C17.1097 13.4578 16.5111 13.6672 16.0005 13.6672C15.4898 13.6672 14.8913 13.4578 13.7654 12.7923L9.84275 10.473Z" fill="#0055F1"/>
</svg>
