<svg width="28" height="28" viewBox="0 0 28 28" fill="none" xmlns="http://www.w3.org/2000/svg">
<path d="M8.16699 24.5V21V24.5Z" fill="#595959"/>
<path d="M8.16699 24.5V21" stroke="#595959" stroke-width="2" stroke-linecap="round" stroke-linejoin="round"/>
<path d="M19.833 24.5V17.5" stroke="#595959" stroke-width="2" stroke-linecap="round" stroke-linejoin="round"/>
<path d="M19.833 7V3.5" stroke="#595959" stroke-width="2" stroke-linecap="round" stroke-linejoin="round"/>
<path d="M8.16699 10.5V3.5" stroke="#595959" stroke-width="2" stroke-linecap="round" stroke-linejoin="round"/>
<path d="M8.16699 21C7.0798 21 6.5362 21 6.10739 20.8224C5.53567 20.5856 5.08143 20.1313 4.84461 19.5596C4.66699 19.1308 4.66699 18.5872 4.66699 17.5C4.66699 16.4128 4.66699 15.8692 4.84461 15.4404C5.08143 14.8687 5.53567 14.4144 6.10739 14.1776C6.5362 14 7.0798 14 8.16699 14C9.25419 14 9.79778 14 10.2266 14.1776C10.7983 14.4144 11.2526 14.8687 11.4894 15.4404C11.667 15.8692 11.667 16.4128 11.667 17.5C11.667 18.5872 11.667 19.1308 11.4894 19.5596C11.2526 20.1313 10.7983 20.5856 10.2266 20.8224C9.79778 21 9.25419 21 8.16699 21Z" stroke="#595959" stroke-width="2"/>
<path d="M19.833 14C18.7458 14 18.2022 14 17.7734 13.8224C17.2017 13.5856 16.7474 13.1313 16.5106 12.5596C16.333 12.1308 16.333 11.5872 16.333 10.5C16.333 9.41281 16.333 8.86921 16.5106 8.4404C16.7474 7.86868 17.2017 7.41443 17.7734 7.17761C18.2022 7 18.7458 7 19.833 7C20.9202 7 21.4638 7 21.8926 7.17761C22.4643 7.41443 22.9186 7.86868 23.1554 8.4404C23.333 8.86921 23.333 9.41281 23.333 10.5C23.333 11.5872 23.333 12.1308 23.1554 12.5596C22.9186 13.1313 22.4643 13.5856 21.8926 13.8224C21.4638 14 20.9202 14 19.833 14Z" stroke="#595959" stroke-width="2"/>
</svg>
