<svg width="73" height="72" viewBox="0 0 73 72" fill="none" xmlns="http://www.w3.org/2000/svg">
<path fill-rule="evenodd" clip-rule="evenodd" d="M4.25 36C4.25 53.8113 18.6888 68.25 36.5 68.25C54.3113 68.25 68.75 53.8113 68.75 36C68.75 18.1888 54.3113 3.75 36.5 3.75C18.6888 3.75 4.25 18.1888 4.25 36ZM50.5271 24.7885C51.7484 25.9081 51.8309 27.8058 50.7116 29.0272L34.2116 47.0271C33.6584 47.6304 32.8832 47.9814 32.0651 47.9994C31.247 48.0171 30.4573 47.7 29.8787 47.1213L22.3787 39.6213C21.2071 38.4498 21.2071 36.5502 22.3787 35.3787C23.5503 34.2072 25.4497 34.2072 26.6213 35.3787L31.9058 40.6632L46.2884 24.9728C47.408 23.7515 49.3058 23.669 50.5271 24.7885Z" fill="#28A428"/>
</svg>
