<svg width="61" height="60" viewBox="0 0 61 60" fill="none" xmlns="http://www.w3.org/2000/svg">
<path opacity="0.4" fill-rule="evenodd" clip-rule="evenodd" d="M6.75 30C6.75 18.8041 6.75 13.2062 10.2281 9.7281C13.7062 6.25 19.3041 6.25 30.5 6.25C41.6958 6.25 47.2938 6.25 50.772 9.7281C54.25 13.2062 54.25 18.8041 54.25 30C54.25 31.3775 54.25 32.67 54.2435 33.8845C37.376 23.0067 25.5728 37.2922 15.1813 49.8688C14.5185 50.671 13.8614 51.4662 13.2091 52.2477L10.2281 50.272C6.75 46.7938 6.75 41.1958 6.75 30ZM19.25 22.5C21.3211 22.5 23 20.8211 23 18.75C23 16.6789 21.3211 15 19.25 15C17.1789 15 15.5 16.6789 15.5 18.75C15.5 20.8211 17.1789 22.5 19.25 22.5Z" fill="#0055F1"/>
<path d="M19.25 22.5C21.3211 22.5 23 20.8211 23 18.75C23 16.6789 21.3211 15 19.25 15C17.1789 15 15.5 16.6789 15.5 18.75C15.5 20.8211 17.1789 22.5 19.25 22.5Z" stroke="#0055F1" stroke-width="2" stroke-linecap="round" stroke-linejoin="round"/>
<path d="M6.75 30C6.75 18.8041 6.75 13.2062 10.2281 9.7281C13.7062 6.25 19.3041 6.25 30.5 6.25C41.6958 6.25 47.2938 6.25 50.772 9.7281C54.25 13.2062 54.25 18.8041 54.25 30C54.25 41.1958 54.25 46.7938 50.772 50.272C47.2938 53.75 41.6958 53.75 30.5 53.75C19.3041 53.75 13.7062 53.75 10.2281 50.272C6.75 46.7938 6.75 41.1958 6.75 30Z" stroke="#0055F1" stroke-width="2"/>
<path d="M13 52.4999C23.9311 39.4374 36.1852 22.21 54.2437 33.8559" stroke="#0055F1" stroke-width="2"/>
</svg>
