<svg width="19" height="18" viewBox="0 0 19 18" fill="none" xmlns="http://www.w3.org/2000/svg">
<path d="M3.33321 8.9568C2.6222 7.71698 2.27889 6.70461 2.07188 5.67841C1.76571 4.16069 2.46636 2.67811 3.62703 1.7321C4.11759 1.33229 4.67992 1.46889 4.97 1.9893L5.62488 3.16418C6.14397 4.09543 6.4035 4.56104 6.35202 5.05469C6.30055 5.54834 5.95053 5.9504 5.25048 6.75451L3.33321 8.9568ZM3.33321 8.9568C4.77238 11.4662 7.03088 13.726 9.5432 15.1668M9.5432 15.1668C10.783 15.8778 11.7954 16.2211 12.8216 16.4281C14.3393 16.7343 15.8219 16.0337 16.7679 14.873C17.1677 14.3825 17.0311 13.8201 16.5107 13.53L15.3358 12.8751C14.4045 12.356 13.9389 12.0965 13.4453 12.148C12.9516 12.1994 12.5496 12.5495 11.7455 13.2495L9.5432 15.1668Z" stroke="#3B3B3B" stroke-width="1.5" stroke-linejoin="round"/>
<path d="M12.1484 4.76998V3.71424C12.1484 2.90556 12.8095 2.25 13.625 2.25C13.9915 2.25 14.3269 2.38245 14.5851 2.60171M13.1328 9H14.1172C14.8833 9 15.2663 9 15.5562 8.84633C15.7851 8.72498 15.9726 8.53905 16.095 8.31202C16.25 8.02447 16.25 7.64468 16.25 6.88499C16.25 6.12533 16.25 5.7455 16.095 5.45797C15.9726 5.23095 15.7851 5.04501 15.5562 4.92366C15.2663 4.76998 14.8833 4.76998 14.1172 4.76998H13.1328C12.3667 4.76998 11.9837 4.76998 11.6938 4.92366C11.4649 5.04501 11.2774 5.23095 11.155 5.45797C11 5.7455 11 6.12533 11 6.88499C11 7.64468 11 8.02447 11.155 8.31202C11.2774 8.53905 11.4649 8.72498 11.6938 8.84633C11.9837 9 12.3667 9 13.1328 9Z" stroke="#3B3B3B" stroke-width="1.5" stroke-linecap="round"/>
</svg>
