<svg width="25" height="24" viewBox="0 0 25 24" fill="none" xmlns="http://www.w3.org/2000/svg">
<path d="M20.5 11V10C20.5 6.22876 20.5 4.34315 19.3284 3.17157C18.1568 2 16.2712 2 12.5 2H11.5001C7.72883 2 5.84322 2 4.67165 3.17156C3.50008 4.34312 3.50006 6.22872 3.50003 9.99993L3.5 14C3.49996 17.7712 3.49995 19.6568 4.67148 20.8284C5.84305 21.9999 7.72873 22 11.5 22" stroke="#0055F1" stroke-width="1.5" stroke-linecap="round" stroke-linejoin="round"/>
<path d="M8 7H16M8 12H16" stroke="#0055F1" stroke-width="1.5" stroke-linecap="round"/>
<path d="M14 20.8268V22H15.1734C15.5828 22 15.7875 22 15.9715 21.9238C16.1556 21.8475 16.3003 21.7028 16.5898 21.4134L21.4134 16.5894C21.6864 16.3164 21.8229 16.1799 21.8959 16.0327C22.0348 15.7525 22.0348 15.4236 21.8959 15.1434C21.8229 14.9961 21.6864 14.8596 21.4134 14.5866C21.1403 14.3136 21.0038 14.1771 20.8565 14.1041C20.5763 13.9653 20.2473 13.9653 19.9671 14.1041C19.8199 14.1771 19.6833 14.3136 19.4103 14.5866L14.5867 19.4106C14.2972 19.7 14.1525 19.8447 14.0763 20.0287C14 20.2128 14 20.4174 14 20.8268Z" stroke="#0055F1" stroke-width="1.5" stroke-linejoin="round"/>
</svg>
