<svg width="12" height="12" viewBox="0 0 12 12" fill="none" xmlns="http://www.w3.org/2000/svg">
<path d="M6.00098 1.125C7.61736 1.12508 9.15708 2.02366 9.9043 3.44727L10.043 3.73926C10.631 5.11382 10.3823 6.28732 9.74414 7.34473L9.6123 7.55469C9.14418 8.26372 8.50739 8.92176 7.8457 9.5498L7.18066 10.1689L6.72363 10.5918C6.53044 10.7727 6.27139 10.8749 6.00098 10.875C5.73055 10.875 5.47158 10.7727 5.27832 10.5918H5.27734C5.12051 10.4441 4.95803 10.2934 4.79395 10.1416L4.78613 10.1348L4.7832 10.1328C4.02123 9.42813 3.23331 8.69447 2.63574 7.89941L2.39062 7.55371C1.70186 6.51272 1.37264 5.36116 1.85156 4.01172L1.95801 3.73926C2.63888 2.14764 4.27672 1.125 6.00098 1.125ZM6 3C4.61929 3 3.5 4.11929 3.5 5.5C3.5 6.88069 4.61928 8 6 8C7.38069 8 8.5 6.88069 8.5 5.5C8.5 4.11928 7.38069 3 6 3Z" fill="black" stroke="black"/>
</svg>
