<svg width="25" height="24" viewBox="0 0 25 24" fill="none" xmlns="http://www.w3.org/2000/svg">
<path d="M7.5 9L12.2707 4.73514C13.5647 3.57838 14.2117 3 15 3C15.7883 3 16.4353 3.57838 17.7293 4.73514L22.5 9" stroke="#949494" stroke-width="1.5" stroke-linecap="round" stroke-linejoin="round"/>
<path d="M9 8V20M21 20V8" stroke="#949494" stroke-width="1.5" stroke-linecap="round" stroke-linejoin="round"/>
<path d="M4 14C4.82843 14 5.5 13.1046 5.5 12C5.5 10.8954 4.82843 10 4 10C3.17157 10 2.5 10.8954 2.5 12C2.5 13.1046 3.17157 14 4 14Z" stroke="#949494" stroke-width="1.5"/>
<path d="M4 14V20" stroke="#949494" stroke-width="1.5" stroke-linecap="round"/>
<path d="M2.5 20H22.5" stroke="#949494" stroke-width="1.5" stroke-linecap="round" stroke-linejoin="round"/>
<path d="M12.5 20V15.9997C12.5 15.0571 12.5 14.5858 12.7929 14.2929C13.0858 14 13.5572 14 14.5 14H15.5C16.4428 14 16.9142 14 17.2071 14.2929C17.5 14.5858 17.5 15.0572 17.5 16V20" stroke="#949494" stroke-width="1.5" stroke-linecap="round" stroke-linejoin="round"/>
<path d="M14 11H16M14 8H16" stroke="#949494" stroke-width="1.5" stroke-linecap="round" stroke-linejoin="round"/>
</svg>
