<svg width="25" height="24" viewBox="0 0 25 24" fill="none" xmlns="http://www.w3.org/2000/svg">
<path d="M9.14298 3.14559L7.43816 3.93362C4.81272 5.14719 3.5 5.75397 3.5 6.75C3.5 7.74603 4.81272 8.35281 7.43817 9.56638L9.14298 10.3544C10.7952 11.1181 11.6214 11.5 12.5 11.5C13.3786 11.5 14.2048 11.1181 15.857 10.3544L17.5618 9.56638C20.1873 8.35281 21.5 7.74603 21.5 6.75C21.5 5.75397 20.1873 5.14719 17.5618 3.93362L15.857 3.14559C14.2048 2.38186 13.3786 2 12.5 2C11.6214 2 10.7952 2.38186 9.14298 3.14559Z" stroke="#949494" stroke-width="1.5" stroke-linecap="round" stroke-linejoin="round"/>
<path d="M21.288 11.0977C21.4293 11.2964 21.5 11.5036 21.5 11.7314C21.5 12.7132 20.1873 13.3114 17.5618 14.5077L15.857 15.2845C14.2048 16.0373 13.3786 16.4138 12.5 16.4138C11.6214 16.4138 10.7952 16.0373 9.14298 15.2845L7.43817 14.5077C4.81272 13.3114 3.5 12.7132 3.5 11.7314C3.5 11.5036 3.57067 11.2964 3.712 11.0977" stroke="#949494" stroke-width="1.5" stroke-linecap="round" stroke-linejoin="round"/>
<path d="M20.8767 16.2656C21.2922 16.5966 21.5 16.9265 21.5 17.3171C21.5 18.299 20.1873 18.8971 17.5618 20.0934L15.857 20.8702C14.2048 21.6231 13.3786 21.9995 12.5 21.9995C11.6214 21.9995 10.7952 21.6231 9.14298 20.8702L7.43817 20.0934C4.81272 18.8971 3.5 18.299 3.5 17.3171C3.5 16.9265 3.70778 16.5966 4.12334 16.2656" stroke="#949494" stroke-width="1.5" stroke-linecap="round" stroke-linejoin="round"/>
</svg>
