<svg width="25" height="24" viewBox="0 0 25 24" fill="none" xmlns="http://www.w3.org/2000/svg">
<path d="M14.5 22V8C14.5 5.17157 14.5 3.75736 13.6213 2.87868C12.7426 2 11.3284 2 8.5 2C5.67157 2 4.25736 2 3.37868 2.87868C2.5 3.75736 2.5 5.17157 2.5 8V16C2.5 18.8284 2.5 20.2426 3.37868 21.1213C4.25736 22 5.67157 22 8.5 22H14.5Z" stroke="#949494" stroke-width="1.5" stroke-linecap="round"/>
<path d="M7 11H6M11 11H10M7 7H6M7 15H6M11 7H10M11 15H10" stroke="#949494" stroke-width="1.5" stroke-linecap="round"/>
<path d="M19 15H18M19 11H18" stroke="#949494" stroke-width="1.5" stroke-linecap="round"/>
<path d="M18.5 8H14.5V22H18.5C20.3856 22 21.3284 22 21.9142 21.4142C22.5 20.8284 22.5 19.8856 22.5 18V12C22.5 10.1144 22.5 9.17157 21.9142 8.58579C21.3284 8 20.3856 8 18.5 8Z" stroke="#949494" stroke-width="1.5" stroke-linecap="round"/>
</svg>
