<svg width="25" height="24" viewBox="0 0 25 24" fill="none" xmlns="http://www.w3.org/2000/svg">
<path d="M3.5 10.9873V15.4927C3.5 18.3245 3.5 19.7405 4.37868 20.6202C5.25736 21.5 6.67157 21.5 9.5 21.5H15.5C18.3284 21.5 19.7426 21.5 20.6213 20.6202C21.5 19.7405 21.5 18.3245 21.5 15.4927V10.9873" stroke="#949494" stroke-width="1.5"/>
<path d="M15.5 16.9766C14.8159 17.5838 13.7268 17.9766 12.5 17.9766C11.2732 17.9766 10.1841 17.5838 9.5 16.9766" stroke="#949494" stroke-width="1.5" stroke-linecap="round"/>
<path d="M18.2957 2.50269L6.64983 2.53177C4.91166 2.44223 4.466 3.78234 4.466 4.43743C4.466 5.02334 4.39055 5.87749 3.32524 7.48285C2.25993 9.08821 2.33998 9.56511 2.94071 10.6765C3.43928 11.5989 4.70741 11.9592 5.36862 12.0198C7.46883 12.0676 8.49065 10.2515 8.49065 8.97498C9.53251 12.1823 12.4956 12.1823 13.8158 11.8155C15.1386 11.4481 16.2717 10.1329 16.5391 8.97498C16.695 10.414 17.1682 11.2536 18.5663 11.8306C20.0145 12.4282 21.2599 11.5148 21.8848 10.9292C22.5097 10.3437 22.9107 9.04376 21.7968 7.61505C21.0286 6.62976 20.7084 5.70155 20.6033 4.73952C20.5423 4.18209 20.4888 3.58311 20.0972 3.20194C19.5248 2.6449 18.7036 2.47588 18.2957 2.50269Z" stroke="#949494" stroke-width="1.5" stroke-linecap="round" stroke-linejoin="round"/>
</svg>
