<svg width="24" height="24" viewBox="0 0 24 24" fill="none" xmlns="http://www.w3.org/2000/svg">
<path fill-rule="evenodd" clip-rule="evenodd" d="M14.6163 2.01199C15.1617 1.92553 15.674 2.29762 15.7605 2.8431L15.9283 3.90169C16.1477 5.28596 16.2949 5.19864 17.5841 4.72378L18.6544 4.32955C19.1727 4.13866 19.7475 4.40404 19.9384 4.92228C20.1293 5.44053 19.8639 6.0154 19.3457 6.20629L18.2193 6.62117C17.6586 6.82777 17.1511 7.01476 16.7293 7.11198C16.6033 7.14101 16.4684 7.1663 16.3275 7.18103C16.1261 7.20209 16.0255 7.21262 15.9652 7.25153C15.905 7.29044 15.8627 7.36284 15.7783 7.50764L14.2676 10.0977C14.0338 10.4984 13.9169 10.6988 14.0034 10.8494C14.0899 11 14.3219 11 14.7858 11H17.7511C17.8998 11 17.9742 11 18.0335 10.9729C18.0928 10.9459 18.1502 10.8797 18.2652 10.7473C18.3048 10.7016 18.3447 10.6583 18.3842 10.6173C18.668 10.3223 19.0681 10.0052 19.4994 9.6633L20.3787 8.96608C20.8115 8.62295 21.4405 8.69561 21.7836 9.12837C22.1268 9.56113 22.0541 10.1901 21.6213 10.5333L20.7902 11.1923C19.772 11.9996 19.772 11.9998 20.7902 12.8071L21.6213 13.4661C22.0541 13.8093 22.1268 14.4382 21.7836 14.871C21.4405 15.3038 20.8115 15.3764 20.3787 15.0333L19.5476 14.3743C19.5315 14.3615 19.5154 14.3488 19.4994 14.3361C19.0681 13.9942 18.668 13.6771 18.3842 13.3821C18.3449 13.3412 18.3051 13.2981 18.2655 13.2526C18.1506 13.1202 18.0932 13.0541 18.0339 13.027C17.9746 13 17.9002 13 17.7515 13H14.786C14.322 13 14.09 13 14.0035 13.1506C13.917 13.3012 14.0339 13.5015 14.2677 13.9023L15.8075 16.542C15.881 16.6679 15.9178 16.7309 15.97 16.7683C16.0222 16.8056 16.106 16.8225 16.2734 16.8564C16.3247 16.8667 16.3745 16.8781 16.4226 16.89C16.8227 16.9891 17.3008 17.1786 17.8168 17.3831L18.8683 17.7996C19.3818 18.003 19.6332 18.5842 19.4298 19.0976C19.2264 19.6111 18.6452 19.8624 18.1318 19.659L17.1376 19.2652C15.8776 18.7661 15.9106 18.7797 15.7175 20.087L15.5611 21.1458C15.4804 21.6922 14.9721 22.0697 14.4257 21.989C13.8794 21.9083 13.5019 21.3999 13.5826 20.8536L13.748 19.7339C13.8291 19.1841 13.9042 18.6751 14.0184 18.2788C14.0373 18.2135 14.0586 18.146 14.0831 18.0774C14.1438 17.9075 14.1742 17.8225 14.1681 17.7564C14.162 17.6902 14.1236 17.6245 14.0469 17.493L12.5185 14.8729C12.2879 14.4776 12.1725 14.2799 12.0002 14.2799C11.8279 14.2799 11.7126 14.4775 11.482 14.8729L9.79085 17.7716C9.73171 17.873 9.70214 17.9237 9.69263 17.9751C9.68985 17.9901 9.68861 18.001 9.68793 18.0162C9.68559 18.0685 9.70541 18.1325 9.74505 18.2603C9.86915 18.6607 9.95039 19.1737 10.0371 19.7211C10.0404 19.7422 10.0438 19.7634 10.0471 19.7846L10.2149 20.8431C10.3014 21.3886 9.9293 21.9009 9.38382 21.9874C8.83835 22.0738 8.32606 21.7017 8.23959 21.1563L8.07179 20.0977C7.85235 18.7134 7.70521 18.8007 6.41599 19.2756L5.34567 19.6698C4.82742 19.8607 4.25256 19.5953 4.06167 19.0771C3.87078 18.5588 4.13616 17.984 4.65441 17.7931L5.78079 17.3782C6.3415 17.1716 6.84901 16.9846 7.27082 16.8874C7.39682 16.8583 7.53179 16.833 7.67279 16.8183C7.87416 16.7973 7.97485 16.7867 8.03509 16.7478C8.09534 16.7089 8.13757 16.6365 8.22205 16.4917L9.73271 13.9023C9.96653 13.5016 10.0834 13.3012 9.99695 13.1506C9.91046 13 9.67846 13 9.21446 13H6.24853C6.09984 13 6.0255 13 5.9662 13.027C5.90689 13.0541 5.84944 13.1202 5.73454 13.2526C5.69503 13.2981 5.65522 13.3412 5.6159 13.3821C5.33203 13.6771 4.93197 13.9942 4.50064 14.3361C4.48463 14.3488 4.46858 14.3615 4.45248 14.3743L3.62134 15.0333C3.18858 15.3764 2.5596 15.3038 2.21646 14.871C1.87333 14.4382 1.94599 13.8093 2.37875 13.4661L3.20989 12.8071C4.22809 11.9998 4.2281 11.9996 3.20989 11.1923L2.37875 10.5333C1.94599 10.1901 1.87333 9.56113 2.21646 9.12837C2.55959 8.69561 3.18858 8.62295 3.62134 8.96608L4.45248 9.62509C4.46858 9.63786 4.48463 9.65058 4.50065 9.66328C4.93197 10.0052 5.33204 10.3223 5.6159 10.6173C5.65534 10.6583 5.69528 10.7016 5.73491 10.7473C5.84984 10.8797 5.9073 10.9459 5.96661 10.9729C6.02593 11 6.10029 11 6.24903 11H9.21459C9.67857 11 9.91056 11 9.99705 10.8494C10.0835 10.6988 9.96665 10.4984 9.73286 10.0977L8.1927 7.45741C8.11923 7.33145 8.08249 7.26847 8.03026 7.23111C7.97802 7.19374 7.89427 7.17684 7.72677 7.14303C7.67547 7.13267 7.62563 7.12129 7.57746 7.10936C7.16259 7.00659 6.66391 6.80669 6.12591 6.59357L5.13175 6.19975C4.61828 5.99635 4.36693 5.41521 4.57033 4.90175C4.77373 4.38828 5.35487 4.13693 5.86833 4.34033L6.86249 4.73415C8.08578 5.21874 8.08461 5.25283 8.28259 3.91235L8.43898 2.85355C8.51967 2.30719 9.028 1.9297 9.57436 2.01039C10.1207 2.09109 10.4982 2.59942 10.4175 3.14578C10.3624 3.51902 10.3072 3.89226 10.2521 4.26551C10.171 4.81531 10.0959 5.3243 9.98164 5.72053C9.96282 5.78579 9.94155 5.85325 9.91705 5.92181C9.8563 6.09176 9.82593 6.17673 9.83206 6.24285C9.83819 6.30898 9.87655 6.37473 9.95326 6.50624L11.482 9.12679C11.7126 9.52218 11.8279 9.71987 12.0002 9.71987C12.1725 9.71987 12.2879 9.52217 12.5185 9.12677L14.2092 6.22815C14.2685 6.12661 14.2981 6.07584 14.3076 6.02431C14.3103 6.00944 14.3115 5.99863 14.3122 5.98352C14.3146 5.93118 14.2947 5.86713 14.255 5.73903C14.1309 5.3387 14.0497 4.82565 13.963 4.27824C13.9597 4.25715 13.9563 4.236 13.953 4.21481L13.7852 3.15623C13.6987 2.61075 14.0708 2.09846 14.6163 2.01199Z" fill="black"/>
</svg>
