<svg width="24" height="24" viewBox="0 0 24 24" fill="none" xmlns="http://www.w3.org/2000/svg">
<path fill-rule="evenodd" clip-rule="evenodd" d="M6.24018 1.25C5.43036 1.25 4.73128 1.29303 4.14541 1.42709C3.55139 1.56303 3.02875 1.80257 2.6197 2.22867C2.21064 2.65476 1.98068 3.19918 1.85018 3.81795C1.72148 4.42823 1.68018 5.15644 1.68018 6V18C1.68018 18.8436 1.72148 19.5718 1.85018 20.182C1.98068 20.8008 2.21064 21.3452 2.6197 21.7713C3.02875 22.1974 3.55139 22.437 4.14541 22.5729C4.73128 22.707 5.43036 22.75 6.24018 22.75H17.7602C18.57 22.75 19.2691 22.707 19.8549 22.5729C20.4489 22.437 20.9716 22.1974 21.3806 21.7713C21.7897 21.3452 22.0197 20.8008 22.1502 20.182C22.2789 19.5718 22.3202 18.8436 22.3202 18V6C22.3202 5.15644 22.2789 4.42823 22.1502 3.81795C22.0197 3.19918 21.7897 2.65477 21.3806 2.22867C20.9716 1.80257 20.4489 1.56303 19.8549 1.42709C19.2691 1.29303 18.57 1.25 17.7602 1.25H6.24018ZM6.24018 18.25C5.84253 18.25 5.52018 18.5858 5.52018 19C5.52018 19.4142 5.84253 19.75 6.24018 19.75H10.0802C10.4778 19.75 10.8002 19.4142 10.8002 19C10.8002 18.5858 10.4778 18.25 10.0802 18.25H6.24018ZM17.7602 18C18.2904 18 18.7202 18.4457 18.7202 18.9955V19.0045C18.7202 19.5543 18.2904 20 17.7602 20C17.23 20 16.8002 19.5543 16.8002 19.0045V18.9955C16.8002 18.4457 17.23 18 17.7602 18ZM12.7202 5C12.7202 4.58579 12.3978 4.25 12.0002 4.25C11.6025 4.25 11.2802 4.58579 11.2802 5V5.30888C9.33839 5.62971 7.8047 7.22731 7.4967 9.25H7.20018C6.80253 9.25 6.48018 9.58579 6.48018 10C6.48018 10.4142 6.80253 10.75 7.20018 10.75H7.4967C7.8047 12.7727 9.33839 14.3703 11.2802 14.6911V15C11.2802 15.4142 11.6025 15.75 12.0002 15.75C12.3978 15.75 12.7202 15.4142 12.7202 15V14.6911C14.662 14.3703 16.1957 12.7727 16.5036 10.75H16.8002C17.1978 10.75 17.5202 10.4142 17.5202 10C17.5202 9.58579 17.1978 9.25 16.8002 9.25H16.5036C16.1957 7.22731 14.662 5.62971 12.7202 5.30888V5ZM8.94819 9.3219C9.20303 8.07118 10.1485 7.08631 11.3492 6.82085C11.4647 7.07455 11.7128 7.25 12.0002 7.25C12.2876 7.25 12.5357 7.07455 12.6512 6.82085C13.8518 7.08631 14.7973 8.07118 15.0522 9.3219C14.8087 9.44215 14.6402 9.70059 14.6402 10C14.6402 10.2994 14.8087 10.5578 15.0522 10.6781C14.7973 11.9288 13.8518 12.9137 12.6512 13.1792C12.5357 12.9255 12.2876 12.75 12.0002 12.75C11.7128 12.75 11.4647 12.9255 11.3492 13.1792C10.1485 12.9137 9.20304 11.9288 8.94819 10.6781C9.19174 10.5578 9.36018 10.2994 9.36018 10C9.36018 9.70059 9.19174 9.44215 8.94819 9.3219Z" fill="black"/>
</svg>
