<svg width="24" height="24" viewBox="0 0 24 24" fill="none" xmlns="http://www.w3.org/2000/svg">
<path fill-rule="evenodd" clip-rule="evenodd" d="M1.25 17.2168C1.25 17.2174 1.25 17.2181 1.25 17.2187V20.75C1.25 21.3023 1.69772 21.75 2.25 21.75C2.80229 21.75 3.25 21.3023 3.25 20.75V18.25H20.75V20.75C20.75 21.3023 21.1977 21.75 21.75 21.75C22.3023 21.75 22.75 21.3023 22.75 20.75V17.5017C22.75 17.5011 22.75 17.5005 22.75 17.5V17.2187V15.948C22.75 15.0495 22.7501 14.3003 22.6701 13.7055C22.5857 13.0777 22.4 12.5109 21.9445 12.0554C21.4891 11.6 20.9223 11.4143 20.2945 11.3299C19.6997 11.2499 18.9505 11.2499 18.052 11.25H5.948C5.04954 11.2499 4.3003 11.2499 3.70552 11.3299C3.07773 11.4143 2.51093 11.6 2.05546 12.0554C1.59999 12.5109 1.41432 13.0777 1.32991 13.7055C1.24995 14.3003 1.24997 15.0495 1.25 15.9479V17.2168Z" fill="black"/>
<path d="M12 4.1591C10.5647 4.1591 8.97953 4.95128 8.24437 6.04512L8.23063 6.06556C8.1457 6.19199 8.0558 6.3258 7.97196 6.43299C7.88792 6.54044 7.73412 6.72397 7.49291 6.85127C7.14402 7.0354 6.77923 7.04341 6.59091 7.04157C6.48799 7.04056 6.388 7.03462 6.31653 7.03037L6.30785 7.02985C6.22456 7.02491 6.18189 7.02273 6.15 7.02273C5.43301 7.02273 4.99335 7.02476 4.67516 7.06664C4.39548 7.10345 4.34879 7.15581 4.34325 7.16202L4.34228 7.16297C4.33594 7.16839 4.28246 7.21411 4.24486 7.48792C4.20208 7.79944 4.20001 8.22987 4.20001 8.93182V11.7954C4.20001 12.3226 3.76348 12.75 3.22501 12.75C2.68653 12.75 2.25001 12.3226 2.25001 11.7954V8.93182L2.25 8.87302C2.24994 8.24862 2.24989 7.68762 2.31225 7.23354C2.38033 6.73779 2.53841 6.22919 2.96393 5.81259C3.38946 5.39599 3.90895 5.24123 4.41533 5.17457C4.87914 5.11352 5.45217 5.11358 6.08994 5.11364H6.15C6.24745 5.11364 6.347 5.11957 6.41621 5.12369L6.42582 5.12426C6.46399 5.12652 6.49628 5.1284 6.52493 5.1298C6.55104 5.09145 6.58048 5.04766 6.61538 4.99574C7.74543 3.31436 9.9733 2.25 12 2.25C14.0267 2.25 16.2546 3.31436 17.3846 4.99574C17.4195 5.04766 17.449 5.09145 17.4751 5.12979C17.5037 5.12839 17.536 5.12652 17.5742 5.12426L17.5838 5.12369C17.653 5.11957 17.7525 5.11364 17.85 5.11364H17.9101C18.5478 5.11358 19.1209 5.11352 19.5847 5.17457C20.091 5.24123 20.6105 5.39599 21.0361 5.81259C21.4616 6.22919 21.6197 6.73779 21.6878 7.23354C21.7501 7.68762 21.7501 8.24863 21.75 8.87302V11.7954C21.75 12.3226 21.3135 12.75 20.775 12.75C20.2365 12.75 19.8 12.3226 19.8 11.7954V8.93182C19.8 8.22987 19.7979 7.79944 19.7551 7.48792C19.7175 7.21411 19.6641 7.16839 19.6577 7.16297L19.6567 7.16202C19.6512 7.15581 19.6045 7.10345 19.3248 7.06664C19.0066 7.02476 18.567 7.02273 17.85 7.02273C17.8181 7.02273 17.7754 7.02491 17.6922 7.02985L17.6835 7.03037C17.612 7.03462 17.512 7.04056 17.4091 7.04157C17.2208 7.04341 16.856 7.0354 16.5071 6.85127C16.2659 6.72397 16.1121 6.54044 16.028 6.43298C15.9442 6.32581 15.8543 6.19201 15.7694 6.06559L15.7556 6.04512C15.0205 4.95128 13.4353 4.1591 12 4.1591Z" fill="black"/>
<path d="M8.26608 9.05067C9.31115 8.60479 10.5974 8.25 12 8.25C13.4026 8.25 14.6888 8.60479 15.7339 9.05067C15.9989 9.16372 16.3231 9.33148 16.5323 9.66744C16.7346 9.9924 16.75 10.3519 16.75 10.6178V12.75H7.25V10.6178C7.25 10.3519 7.26537 9.9924 7.4677 9.66744C7.67688 9.33148 8.00111 9.16372 8.26608 9.05067Z" fill="black"/>
</svg>
