<svg width="24" height="24" viewBox="0 0 24 24" fill="none" xmlns="http://www.w3.org/2000/svg">
<path fill-rule="evenodd" clip-rule="evenodd" d="M7 15C7.55229 15 8 15.4477 8 16V19C8 19.5523 7.55229 20 7 20C6.44772 20 6 19.5523 6 19V16C6 15.4477 6.44772 15 7 15ZM17 15C17.5522 15 18 15.4477 18 16V19C18 19.5523 17.5522 20 17 20C16.4477 20 16 19.5523 16 19V16C16 15.4477 16.4477 15 17 15Z" fill="black"/>
<path d="M2.62546 8.61889C3.94076 7.8595 5.62264 8.31015 6.38203 9.62546C6.39751 9.65226 6.41131 9.68 6.42336 9.70852L7.43288 12.0974C7.45849 12.158 7.47952 12.2072 7.4981 12.2491C7.54385 12.2499 7.59737 12.2501 7.66316 12.2501H16.3371C16.4029 12.2501 16.4564 12.2499 16.5022 12.2491C16.5208 12.2072 16.5418 12.158 16.5674 12.0974L17.5769 9.70853C17.5889 9.68001 17.6027 9.65227 17.6182 9.62546C18.3776 8.31015 20.0595 7.8595 21.3748 8.61889C22.6901 9.37828 23.1407 11.0601 22.3813 12.3754C22.0278 12.9877 21.3908 13.2404 21.0433 13.3783L21.0102 13.3915C20.7981 13.4759 20.6843 13.5215 20.6023 13.5706L20.5997 13.5721C20.3955 14.1851 20.2217 14.7039 20.0313 15.1133C19.8255 15.5558 19.5705 15.9398 19.1666 16.2309C18.7627 16.5221 18.3178 16.6427 17.8329 16.6981C17.3767 16.7501 16.8187 16.7501 16.1584 16.7501H7.84182C7.18152 16.7501 6.62351 16.7501 6.16737 16.6981C5.68251 16.6427 5.23762 16.5221 4.83373 16.2309C4.42983 15.9398 4.17475 15.5559 3.96894 15.1134C3.77852 14.704 3.60476 14.1851 3.40051 13.5722L3.39794 13.5706C3.31591 13.5215 3.20211 13.4759 2.99006 13.3915L2.95692 13.3783C2.60939 13.2405 1.9724 12.9877 1.61889 12.3754C0.859498 11.0601 1.31015 9.37828 2.62546 8.61889Z" fill="black"/>
<path fill-rule="evenodd" clip-rule="evenodd" d="M10.1024 4H13.8962C14.8551 3.99997 15.6563 3.99995 16.3111 4.07293C17.0034 4.15008 17.6279 4.31671 18.1987 4.7123C18.7696 5.10789 19.1449 5.63414 19.4602 6.2552C19.7584 6.84272 20.0397 7.5929 20.3764 8.49075L20.3956 8.54214C20.5896 9.05926 20.3276 9.63567 19.8104 9.82959C19.2933 10.0235 18.7169 9.7615 18.523 9.24438C18.162 8.28182 17.9187 7.63702 17.6768 7.16055C17.4463 6.70645 17.2596 6.49479 17.0595 6.35615C16.8595 6.21752 16.5957 6.11703 16.0896 6.06063C15.5585 6.00144 14.8694 6 13.8413 6H10.1573C9.12929 6 8.4401 6.00144 7.90903 6.06063C7.4029 6.11703 7.13917 6.21751 6.93912 6.35615C6.73906 6.49479 6.55238 6.70645 6.32185 7.16055C6.07996 7.63702 5.83662 8.28182 5.47566 9.24438C5.28174 9.7615 4.70533 10.0235 4.18821 9.82959C3.67109 9.63567 3.40908 9.05926 3.603 8.54214L3.62228 8.49073C3.95894 7.59289 4.24024 6.84271 4.5385 6.2552C4.85379 5.63414 5.22909 5.10789 5.79993 4.7123C6.37076 4.31671 6.99528 4.15008 7.68751 4.07293C8.34234 3.99995 9.14352 3.99997 10.1024 4Z" fill="black"/>
</svg>
