<svg width="24" height="24" viewBox="0 0 24 24" fill="none" xmlns="http://www.w3.org/2000/svg">
<path d="M14.0564 5.75C15.8942 5.74998 17.3498 5.74997 18.489 5.89876C19.6614 6.05188 20.6104 6.37451 21.3588 7.10149C22.1071 7.82847 22.4392 8.75031 22.5969 9.88923C22.75 10.9959 22.75 12.4099 22.75 14.1951V14.3048C22.75 16.0901 22.75 17.5041 22.5969 18.6107C22.4392 19.7497 22.1071 20.6715 21.3588 21.3985C20.6104 22.1255 19.6614 22.4481 18.489 22.6012C17.3498 22.75 15.8942 22.75 14.0565 22.75H9.94359C8.10585 22.75 6.65018 22.75 5.51098 22.6012C4.33855 22.4481 3.38961 22.1255 2.64124 21.3985C1.89288 20.6715 1.56076 19.7497 1.40313 18.6107C1.24997 17.5041 1.24998 16.09 1.25 14.3048V14.1952C1.24998 12.4099 1.24997 10.9959 1.40313 9.88923C1.56076 8.75031 1.89288 7.82847 2.64124 7.10149C3.38961 6.37451 4.33856 6.05188 5.51098 5.89876C6.65019 5.74997 8.10582 5.74998 9.94357 5.75H14.0564Z" fill="black"/>
<path fill-rule="evenodd" clip-rule="evenodd" d="M15.2929 1.54289C15.6834 1.15237 16.3166 1.15237 16.7071 1.54289C17.0976 1.93342 17.0976 2.56658 16.7071 2.9571L12.7071 6.9571C12.3166 7.34763 11.6834 7.34763 11.2929 6.9571L8.29289 3.9571C7.90237 3.56658 7.90237 2.93342 8.29289 2.54289C8.68342 2.15237 9.31658 2.15237 9.70711 2.54289L12 4.83578L15.2929 1.54289Z" fill="black"/>
</svg>
