<svg width="12" height="12" viewBox="0 0 12 12" fill="none" xmlns="http://www.w3.org/2000/svg">
<path d="M1.5 5.49414V7.74684C1.5 9.16274 1.5 9.87074 1.93934 10.3106C2.37868 10.7505 3.08578 10.7505 4.5 10.7505H7.49998C8.91418 10.7505 9.62128 10.7505 10.0606 10.3106C10.5 9.87074 10.5 9.16274 10.5 7.74684V5.49414" stroke="#2196F3"/>
<path d="M7.49999 8.48828C7.15794 8.79188 6.61339 8.98828 5.99999 8.98828C5.38659 8.98828 4.84205 8.79188 4.5 8.48828" stroke="#2196F3" stroke-linecap="round"/>
<path d="M8.89832 1.25135L3.0754 1.26589C2.20632 1.22112 1.98349 1.89117 1.98349 2.21872C1.98349 2.51167 1.94576 2.93875 1.41311 3.74143C0.880452 4.54411 0.920477 4.78256 1.22084 5.33823C1.47013 5.79943 2.10419 5.97958 2.4348 6.00988C3.4849 6.03378 3.99581 5.12573 3.99581 4.48749C4.51674 6.09113 5.99827 6.09113 6.65837 5.90773C7.31977 5.72403 7.88632 5.06643 8.02002 4.48749C8.09797 5.20698 8.33457 5.62678 9.03362 5.91528C9.75772 6.21408 10.3804 5.75738 10.6929 5.46458C11.0053 5.17183 11.2058 4.52188 10.6489 3.80753C10.2648 3.31488 10.1047 2.85078 10.0521 2.36976C10.0216 2.09105 9.99487 1.79156 9.79907 1.60097C9.51287 1.32245 9.10227 1.23794 8.89832 1.25135Z" stroke="#2196F3" stroke-linecap="round" stroke-linejoin="round"/>
</svg>
