<svg width="12" height="12" viewBox="0 0 12 12" fill="none" xmlns="http://www.w3.org/2000/svg">
<path d="M1.5 3.5V9C1.5 9.9428 1.5 10.4142 1.79289 10.7071C2.08578 11 2.55719 11 3.5 11H8.5C9.4428 11 9.9142 11 10.2071 10.7071C10.5 10.4142 10.5 9.9428 10.5 9V3.5" stroke="#9C27B0" stroke-linecap="round" stroke-linejoin="round"/>
<path d="M8.5 3.5C8.5 2.11929 7.3807 1 6 1C4.61929 1 3.5 2.11929 3.5 3.5" stroke="#9C27B0" stroke-linecap="round" stroke-linejoin="round"/>
<path d="M7 11V9C7 8.4477 6.5523 8 6 8C5.4477 8 5 8.4477 5 9V11" stroke="#9C27B0" stroke-linecap="round" stroke-linejoin="round"/>
<path d="M4.5 1.5H2.23607C2.08082 1.5 1.92367 1.54104 1.79905 1.66449C1.42809 2.03197 1.21405 2.64381 1 3.5H3.5M7.5 1.5H9.76395C9.9192 1.5 10.0763 1.54104 10.2009 1.66449C10.5719 2.03197 10.786 2.64381 11 3.5H8.5" stroke="#9C27B0" stroke-linecap="round" stroke-linejoin="round"/>
<path d="M3 5.5H3.25M3 7.25H3.25" stroke="#9C27B0" stroke-linecap="round" stroke-linejoin="round"/>
<path d="M8.75 5.5H9M8.75 7.25H9" stroke="#9C27B0" stroke-linecap="round" stroke-linejoin="round"/>
<path d="M5.25 4V4.75M5.25 4.75V5.5M5.25 4.75H6.75M6.75 4V4.75M6.75 4.75V5.5" stroke="#9C27B0" stroke-linecap="round" stroke-linejoin="round"/>
</svg>
