<svg width="12" height="12" viewBox="0 0 12 12" fill="none" xmlns="http://www.w3.org/2000/svg">
<path d="M1.5 2V10C1.5 10.4714 1.5 10.7071 1.64645 10.8535C1.7929 11 2.0286 11 2.5 11H9.5C9.9714 11 10.2071 11 10.3535 10.8535C10.5 10.7071 10.5 10.4714 10.5 10V2" stroke="#9C27B0" stroke-linecap="round" stroke-linejoin="round"/>
<path d="M5.25 4V4.75M5.25 4.75V5.5M5.25 4.75H6.75M6.75 4V4.75M6.75 4.75V5.5" stroke="#9C27B0" stroke-linecap="round" stroke-linejoin="round"/>
<path d="M7 11.0001V9C7 8.44775 6.5523 8 6 8C5.4477 8 5 8.44775 5 9V11.0001" stroke="#9C27B0" stroke-linecap="round" stroke-linejoin="round"/>
<path d="M1 2H4C4.31995 1.41364 5.09485 1 6 1C6.90515 1 7.68005 1.41364 8 2H11" stroke="#9C27B0" stroke-linecap="round" stroke-linejoin="round"/>
<path d="M3 4H3.5M3 6H3.5M3 8H3.5" stroke="#9C27B0" stroke-linecap="round" stroke-linejoin="round"/>
<path d="M8.5 4H9M8.5 6H9M8.5 8H9" stroke="#9C27B0" stroke-linecap="round" stroke-linejoin="round"/>
</svg>
