<svg width="24" height="24" viewBox="0 0 24 24" fill="none" xmlns="http://www.w3.org/2000/svg">
<path d="M15.5 7.5H13.5C10.6716 7.5 9.25736 7.5 8.37868 8.37868C7.5 9.25736 7.5 10.6716 7.5 13.5V15.5C7.5 18.3284 7.5 19.7426 8.37868 20.6213C9.25736 21.5 10.6716 21.5 13.5 21.5H15.5C18.3284 21.5 19.7426 21.5 20.6213 20.6213C21.5 19.7426 21.5 18.3284 21.5 15.5V13.5C21.5 10.6716 21.5 9.25736 20.6213 8.37868C19.7426 7.5 18.3284 7.5 15.5 7.5Z" stroke="#141B34" stroke-width="1.5" stroke-linecap="round" stroke-linejoin="round"/>
<path d="M3.5 7.5V21.5M3.5 7.5H4.5M3.5 7.5H2.5M3.5 21.5H4.5M3.5 21.5H2.5" stroke="#141B34" stroke-width="1.5" stroke-linecap="round" stroke-linejoin="round"/>
</svg>
