<svg width="24" height="24" viewBox="0 0 24 24" fill="none" xmlns="http://www.w3.org/2000/svg">
<path d="M12 22C17.5228 22 22 17.5228 22 12C22 6.47715 17.5228 2 12 2C6.47715 2 2 6.47715 2 12C2 17.5228 6.47715 22 12 22Z" stroke="#141B34" stroke-width="1.5"/>
<path d="M9 13V8.4C9 8.02774 9 7.84162 9.04894 7.69098C9.14786 7.38655 9.38655 7.14786 9.69098 7.04894C9.84162 7 10.0277 7 10.4 7H13C14.6569 7 16 8.34315 16 10C16 11.6569 14.6569 13 13 13H9ZM9 13V18" stroke="#141B34" stroke-width="1.5" stroke-linecap="round" stroke-linejoin="round"/>
</svg>
