<svg width="24" height="24" viewBox="0 0 24 24" fill="none" xmlns="http://www.w3.org/2000/svg">
<path d="M7.5 15.5L7.5 13.5C7.5 10.6716 7.5 9.25736 8.37868 8.37868C9.25736 7.5 10.6716 7.5 13.5 7.5L15.5 7.5C18.3284 7.5 19.7426 7.5 20.6213 8.37868C21.5 9.25736 21.5 10.6716 21.5 13.5V15.5C21.5 18.3284 21.5 19.7426 20.6213 20.6213C19.7426 21.5 18.3284 21.5 15.5 21.5H13.5C10.6716 21.5 9.25736 21.5 8.37868 20.6213C7.5 19.7426 7.5 18.3284 7.5 15.5Z" stroke="#141B34" stroke-width="1.5" stroke-linecap="round" stroke-linejoin="round"/>
<path d="M7.5 3.5L21.5 3.5M7.5 3.5V4.5M7.5 3.5V2.5M21.5 3.5V4.5M21.5 3.5V2.5" stroke="#141B34" stroke-width="1.5" stroke-linecap="round" stroke-linejoin="round"/>
</svg>
