<svg width="62" height="62" viewBox="0 0 62 62" fill="none" xmlns="http://www.w3.org/2000/svg">
<path d="M7 31C7 17.7452 17.7452 7 31 7V7C44.2548 7 55 17.7452 55 31V31C55 44.2548 44.2548 55 31 55V55C17.7452 55 7 44.2548 7 31V31Z" fill="#0055F1"/>
<path d="M0 31C0 13.8792 13.8792 0 31 0C48.1208 0 62 13.8792 62 31C62 48.1208 48.1208 62 31 62C13.8792 62 0 48.1208 0 31ZM30.335 35.5586C32.0432 35.9001 33.8091 35.3654 35.041 34.1338L35.125 34.0498C37.1137 32.0607 37.1139 28.8357 35.125 26.8467C33.8513 25.573 31.9994 25.0672 30.2549 25.5156L8.32031 31.1553L30.335 35.5586Z" fill="#E6EEFE"/>
</svg>
