<svg width="140" height="70" viewBox="0 0 140 70" fill="none" xmlns="http://www.w3.org/2000/svg">
<path d="M34.9683 9.39655C24.3344 15.5434 15.5052 24.3801 9.36723 35.019C3.22927 45.658 -0.00128704 57.7247 3.84529e-07 70.0073L19.8164 70.0053C19.8155 61.1998 22.1315 52.549 26.5318 44.9218C30.9322 37.2947 37.262 30.9596 44.8854 26.5529L34.9683 9.39655Z" fill="#D90429"/>
<path d="M140 70C140 57.7174 136.768 45.651 130.629 35.0127C124.49 24.3744 115.66 15.5386 105.025 9.39289L95.11 26.5502C102.734 30.9562 109.064 37.2906 113.466 44.9173C117.867 52.544 120.184 61.1945 120.184 70H140Z" fill="#32CD32"/>
<path d="M105 9.37822C94.363 3.23692 82.2972 0.00257281 70.0147 1.53386e-06C57.7321 -0.00256975 45.665 3.22673 35.0254 9.36357L44.9264 26.5292C52.554 22.1297 61.205 19.8145 70.0105 19.8164C78.816 19.8182 87.466 22.137 95.0918 26.5397L105 9.37822Z" fill="#FFBF03"/>
</svg>
