<svg width="245" height="220" viewBox="0 0 245 220" fill="none" xmlns="http://www.w3.org/2000/svg">
<g clip-path="url(#clip0_2508_21659)">
<path d="M125.32 128.209L71.9142 129.147C71.0712 129.164 70.2332 129.014 69.4482 128.707C68.6632 128.399 67.9465 127.941 67.3393 127.356C66.7321 126.772 66.2462 126.074 65.9095 125.302C65.5727 124.529 65.3918 123.699 65.377 122.856C65.3621 122.014 65.5137 121.178 65.8231 120.394C66.1324 119.611 66.5934 118.896 67.1797 118.291C67.766 117.685 68.466 117.202 69.2398 116.867C70.0135 116.532 70.8457 116.353 71.6887 116.34L125.095 115.402C125.891 115.388 126.66 115.691 127.233 116.243C127.806 116.796 128.136 117.553 128.15 118.348L128.27 125.158C128.283 125.918 128.007 126.655 127.496 127.22C126.986 127.785 126.28 128.135 125.521 128.199C125.455 128.204 125.388 128.208 125.32 128.209Z" fill="#0055F1"/>
<path d="M115.006 129.949L71.1911 131.947C70.7972 131.965 70.4036 131.906 70.0328 131.772C69.662 131.638 69.3213 131.432 69.03 131.167C68.7388 130.901 68.5028 130.581 68.3354 130.224C68.1681 129.868 68.0727 129.482 68.0547 129.088L67.591 118.942C67.5547 118.147 67.8359 117.371 68.3727 116.783C68.9095 116.195 69.658 115.845 70.4535 115.809L114.269 113.811C114.663 113.793 115.056 113.852 115.427 113.986C115.798 114.12 116.139 114.326 116.43 114.591C116.721 114.857 116.957 115.177 117.125 115.534C117.292 115.89 117.387 116.276 117.405 116.67L117.869 126.816C117.903 127.591 117.637 128.349 117.124 128.932C116.612 129.515 115.893 129.877 115.12 129.942C115.082 129.945 115.044 129.948 115.006 129.949Z" fill="#2F2E41"/>
<path d="M40.9111 217.001V160.241C40.912 159.446 41.2287 158.683 41.7916 158.121C42.3544 157.559 43.1176 157.243 43.9137 157.242H50.7316C51.5276 157.243 52.2908 157.559 52.8537 158.121C53.4166 158.683 53.7332 159.446 53.7341 160.241V217.001C53.7332 217.796 53.4166 218.558 52.8537 219.121C52.2908 219.683 51.5276 219.999 50.7316 220H43.9137C43.1176 219.999 42.3544 219.683 41.7916 219.121C41.2287 218.558 40.912 217.796 40.9111 217.001Z" fill="#0055F1"/>
<path d="M58.8027 217.001V160.241C58.8036 159.446 59.1203 158.683 59.6831 158.121C60.246 157.559 61.0092 157.243 61.8053 157.242H68.6232C69.4192 157.243 70.1824 157.559 70.7453 158.121C71.3082 158.683 71.6248 159.446 71.6257 160.241V217.001C71.6248 217.796 71.3082 218.558 70.7453 219.121C70.1824 219.683 69.4192 219.999 68.6232 220H61.8053C61.0092 219.999 60.246 219.683 59.6832 219.121C59.1203 218.558 58.8036 217.796 58.8027 217.001Z" fill="#0055F1"/>
<path d="M60.5836 98.0067C73.5945 98.0067 84.1419 87.4711 84.1419 74.4748C84.1419 61.4785 73.5945 50.9429 60.5836 50.9429C47.5728 50.9429 37.0254 61.4785 37.0254 74.4748C37.0254 87.4711 47.5728 98.0067 60.5836 98.0067Z" fill="#0055F1"/>
<path d="M73.3357 82.509C74.0935 82.2603 74.7892 81.8524 75.376 81.3127C75.7648 80.9274 76.0645 80.4618 76.2542 79.9486C76.4439 79.4354 76.519 78.887 76.4742 78.3417C76.4496 77.9532 76.3353 77.5757 76.1404 77.2386C75.9454 76.9016 75.6751 76.6141 75.3506 76.3987C74.5081 75.8589 73.3813 75.8573 72.2341 76.3623L72.2775 67.1758L71.3538 67.1714L71.3026 77.9711L72.0145 77.5239C72.8399 77.0061 74.0187 76.6416 74.8517 77.1755C75.0575 77.3165 75.228 77.5031 75.3499 77.7207C75.4718 77.9382 75.5418 78.181 75.5545 78.43C75.5857 78.8361 75.5288 79.2442 75.3879 79.6265C75.247 80.0088 75.0253 80.3562 74.7379 80.6452C73.7178 81.6186 72.2295 81.9229 70.5322 82.195L70.6786 83.106C71.5804 82.9867 72.4696 82.7869 73.3357 82.509Z" fill="#2F2E41"/>
<path d="M81.8011 66.7116L76.8682 67.3623L76.9891 68.2771L81.922 67.6263L81.8011 66.7116Z" fill="#2F2E41"/>
<path d="M66.2307 68.7653L61.2979 69.416L61.4188 70.3308L66.3517 69.6801L66.2307 68.7653Z" fill="#2F2E41"/>
<path d="M10.6031 72.6166L44.4272 113.911C44.9608 114.562 45.3608 115.311 45.6043 116.117C45.8478 116.922 45.9301 117.767 45.8465 118.604C45.7629 119.441 45.515 120.254 45.117 120.995C44.719 121.737 44.1786 122.392 43.5268 122.925C42.875 123.458 42.1245 123.857 41.3182 124.1C40.5119 124.343 39.6656 124.425 38.8276 124.341C37.9896 124.257 37.1764 124.009 36.4344 123.611C35.6924 123.213 35.0361 122.673 34.5031 122.022L0.678831 80.7274C0.429118 80.4226 0.241952 80.0717 0.128034 79.6946C0.0141162 79.3175 -0.0243319 78.9218 0.0148909 78.5299C0.0541137 78.1379 0.170233 77.7576 0.356624 77.4105C0.543015 77.0635 0.796024 76.7565 1.1012 76.5071L6.37787 72.1945C6.99423 71.6908 7.78564 71.4523 8.578 71.5315C9.37037 71.6107 10.0988 72.001 10.6031 72.6166Z" fill="#0055F1"/>
<path d="M21.8837 81.8328L49.6582 115.742C49.9079 116.046 50.0951 116.397 50.209 116.774C50.3229 117.151 50.3614 117.547 50.3221 117.939C50.2829 118.331 50.1668 118.711 49.9804 119.058C49.794 119.405 49.541 119.712 49.2358 119.962L40.223 127.328C39.9178 127.577 39.5665 127.764 39.189 127.878C38.8115 127.992 38.4153 128.03 38.0229 127.991C37.6306 127.952 37.2498 127.836 36.9023 127.65C36.5549 127.463 36.2475 127.211 35.9979 126.906L8.22324 92.9973C7.71986 92.3813 7.48163 91.591 7.56082 90.7998C7.64 90.0087 8.03014 89.2811 8.64562 88.7769L17.6586 81.4108C18.2749 80.9071 19.0663 80.6687 19.8586 80.7478C20.651 80.827 21.3794 81.2172 21.8837 81.8328Z" fill="#2F2E41"/>
<path d="M214.447 40.6101C214.107 39.8046 213.539 39.1162 212.812 38.6301C212.084 38.1441 211.23 37.8817 210.355 37.8755H128.681C127.507 37.8761 126.381 38.3423 125.551 39.1715C124.721 40.0007 124.255 41.1252 124.254 42.2979V145.508C124.255 146.68 124.721 147.805 125.551 148.634C126.381 149.463 127.507 149.93 128.681 149.93H210.358C211.532 149.929 212.657 149.462 213.487 148.633C214.317 147.804 214.784 146.68 214.786 145.508V42.2979C214.788 41.7186 214.673 41.1447 214.45 40.6101H214.447ZM213.799 145.508C213.798 146.42 213.435 147.294 212.79 147.939C212.144 148.584 211.268 148.947 210.355 148.948H128.681C127.768 148.948 126.892 148.585 126.246 147.94C125.6 147.295 125.237 146.421 125.237 145.508V42.2985C125.238 41.3865 125.602 40.5121 126.247 39.8672C126.893 39.2223 127.768 38.8594 128.681 38.8582H210.358C211.046 38.8608 211.718 39.068 212.287 39.4535C212.856 39.839 213.298 40.3852 213.555 41.0224C213.605 41.1493 213.648 41.2789 213.685 41.4105C213.763 41.7 213.802 41.9986 213.802 42.2985L213.799 145.508Z" fill="#3F3D56"/>
<path d="M197.403 62.243H172.801C172.543 62.2434 172.286 62.1929 172.047 62.0942C171.808 61.9956 171.591 61.8509 171.408 61.6683C171.225 61.4857 171.079 61.2688 170.98 61.0301C170.881 60.7913 170.83 60.5355 170.83 60.277C170.83 60.0186 170.881 59.7627 170.98 59.524C171.079 59.2852 171.225 59.0684 171.408 58.8858C171.591 58.7032 171.808 58.5584 172.047 58.4598C172.286 58.3612 172.543 58.3106 172.801 58.311H197.403C197.661 58.3106 197.918 58.3612 198.157 58.4598C198.396 58.5584 198.613 58.7032 198.796 58.8858C198.979 59.0684 199.125 59.2852 199.224 59.524C199.323 59.7627 199.374 60.0186 199.374 60.277C199.374 60.5355 199.323 60.7913 199.224 61.0301C199.125 61.2688 198.979 61.4857 198.796 61.6683C198.613 61.8509 198.396 61.9956 198.157 62.0942C197.918 62.1929 197.661 62.2434 197.403 62.243Z" fill="#3F3D56"/>
<path d="M197.403 72.5643H172.801C172.543 72.5647 172.286 72.5141 172.047 72.4155C171.808 72.3169 171.591 72.1722 171.408 71.9896C171.225 71.807 171.079 71.5901 170.98 71.3514C170.881 71.1126 170.83 70.8567 170.83 70.5983C170.83 70.3399 170.881 70.084 170.98 69.8453C171.079 69.6065 171.225 69.3897 171.408 69.2071C171.591 69.0245 171.808 68.8797 172.047 68.7811C172.286 68.6825 172.543 68.6319 172.801 68.6323H197.403C197.661 68.6319 197.918 68.6825 198.157 68.7811C198.396 68.8797 198.613 69.0245 198.796 69.2071C198.979 69.3897 199.125 69.6065 199.224 69.8453C199.323 70.084 199.374 70.3399 199.374 70.5983C199.374 70.8567 199.323 71.1126 199.224 71.3514C199.125 71.5901 198.979 71.807 198.796 71.9896C198.613 72.1722 198.396 72.3169 198.157 72.4155C197.918 72.5141 197.661 72.5647 197.403 72.5643Z" fill="#3F3D56"/>
<path d="M160.179 78.4412H142.201C141.614 78.4406 141.051 78.2074 140.636 77.7927C140.22 77.3781 139.987 76.8158 139.986 76.2294V55.037C139.987 54.4506 140.22 53.8884 140.636 53.4737C141.051 53.059 141.614 52.8258 142.201 52.8252H160.179C160.766 52.8258 161.329 53.059 161.744 53.4737C162.159 53.8884 162.393 54.4506 162.393 55.037V76.2294C162.393 76.8158 162.159 77.3781 161.744 77.7927C161.329 78.2074 160.766 78.4406 160.179 78.4412Z" fill="#0055F1"/>
<path d="M197.232 93.6976H141.633C141.111 93.6976 140.611 93.4905 140.242 93.1218C139.872 92.7531 139.665 92.253 139.665 91.7316C139.665 91.2102 139.872 90.7101 140.242 90.3414C140.611 89.9728 141.111 89.7656 141.633 89.7656H197.232C197.754 89.7656 198.255 89.9728 198.624 90.3414C198.993 90.7101 199.2 91.2102 199.2 91.7316C199.2 92.253 198.993 92.7531 198.624 93.1218C198.255 93.4905 197.754 93.6976 197.232 93.6976Z" fill="#CCCCCC"/>
<path d="M197.232 104.019H141.633C141.112 104.018 140.612 103.811 140.243 103.442C139.875 103.073 139.668 102.574 139.668 102.053C139.668 101.532 139.875 101.032 140.243 100.664C140.612 100.295 141.112 100.088 141.633 100.087H197.232C197.491 100.087 197.747 100.137 197.986 100.236C198.225 100.334 198.443 100.479 198.626 100.662C198.809 100.844 198.954 101.061 199.053 101.3C199.152 101.539 199.203 101.794 199.203 102.053C199.203 102.311 199.152 102.567 199.053 102.806C198.954 103.045 198.809 103.262 198.626 103.444C198.443 103.627 198.225 103.771 197.986 103.87C197.747 103.969 197.491 104.019 197.232 104.019Z" fill="#CCCCCC"/>
<path d="M197.232 114.34H141.633C141.112 114.339 140.612 114.131 140.243 113.763C139.875 113.394 139.668 112.895 139.668 112.374C139.668 111.853 139.875 111.353 140.243 110.985C140.612 110.616 141.112 110.409 141.633 110.408H197.232C197.491 110.407 197.747 110.458 197.986 110.556C198.225 110.655 198.443 110.8 198.626 110.982C198.809 111.165 198.954 111.382 199.053 111.621C199.152 111.859 199.203 112.115 199.203 112.374C199.203 112.632 199.152 112.888 199.053 113.127C198.954 113.365 198.809 113.582 198.626 113.765C198.443 113.948 198.225 114.092 197.986 114.191C197.747 114.29 197.491 114.34 197.232 114.34Z" fill="#CCCCCC"/>
<path d="M197.232 124.66H141.633C141.112 124.66 140.612 124.452 140.243 124.084C139.875 123.715 139.668 123.215 139.668 122.695C139.668 122.174 139.875 121.674 140.243 121.305C140.612 120.937 141.112 120.729 141.633 120.729H197.232C197.491 120.728 197.747 120.779 197.986 120.877C198.225 120.976 198.443 121.121 198.626 121.303C198.809 121.486 198.954 121.703 199.053 121.941C199.152 122.18 199.203 122.436 199.203 122.695C199.203 122.953 199.152 123.209 199.053 123.448C198.954 123.686 198.809 123.903 198.626 124.086C198.443 124.268 198.225 124.413 197.986 124.512C197.747 124.61 197.491 124.661 197.232 124.66Z" fill="#CCCCCC"/>
<path d="M197.232 134.982H141.633C141.112 134.981 140.612 134.773 140.243 134.405C139.875 134.036 139.668 133.537 139.668 133.016C139.668 132.495 139.875 131.995 140.243 131.627C140.612 131.258 141.112 131.051 141.633 131.05H197.232C197.491 131.049 197.747 131.1 197.986 131.199C198.225 131.297 198.443 131.442 198.626 131.625C198.809 131.807 198.954 132.024 199.053 132.263C199.152 132.501 199.203 132.757 199.203 133.016C199.203 133.274 199.152 133.53 199.053 133.769C198.954 134.008 198.809 134.224 198.626 134.407C198.443 134.59 198.225 134.734 197.986 134.833C197.747 134.932 197.491 134.982 197.232 134.982Z" fill="#CCCCCC"/>
<path d="M216.824 56.2892C232.385 56.2892 245 43.6884 245 28.1446C245 12.6008 232.385 0 216.824 0C201.262 0 188.647 12.6008 188.647 28.1446C188.647 43.6884 201.262 56.2892 216.824 56.2892Z" fill="#0055F1"/>
<path d="M216.278 47.5168C218.109 47.5168 219.594 46.0342 219.594 44.2052C219.594 42.3762 218.109 40.8936 216.278 40.8936C214.447 40.8936 212.963 42.3762 212.963 44.2052C212.963 46.0342 214.447 47.5168 216.278 47.5168Z" fill="white"/>
<path d="M215.923 9.64919C213.424 9.67395 211.033 10.672 209.259 12.4309C207.485 14.1898 206.469 16.5707 206.426 19.067C206.425 19.1147 206.425 19.4507 206.425 19.8901C206.425 20.5344 206.681 21.1523 207.137 21.6079C207.593 22.0635 208.212 22.3195 208.857 22.3196C209.502 22.3194 210.121 22.0632 210.578 21.6072C211.034 21.1511 211.29 20.5327 211.29 19.888V19.8864C211.29 19.5875 211.29 19.3806 211.29 19.3679C211.29 18.5681 211.498 17.782 211.894 17.0869C212.29 16.3919 212.861 15.8118 213.55 15.4039C214.238 14.9959 215.021 14.774 215.822 14.7601C216.623 14.7462 217.413 14.9407 218.116 15.3244C218.818 15.7082 219.409 16.2681 219.829 16.9489C220.249 17.6297 220.485 18.4081 220.512 19.2075C220.54 20.0068 220.359 20.7996 219.987 21.5078C219.615 22.2161 219.065 22.8154 218.39 23.2468L218.391 23.2478C218.391 23.2478 214.93 25.4738 213.874 28.5274L213.875 28.5276C213.69 29.1532 213.596 29.8023 213.596 30.4547C213.596 30.7229 213.612 33.0696 213.642 34.9742C213.653 35.6314 213.922 36.2581 214.391 36.719C214.86 37.1799 215.492 37.4381 216.15 37.438C216.479 37.438 216.805 37.3731 217.109 37.2472C217.414 37.1213 217.69 36.9368 217.923 36.7042C218.156 36.4716 218.341 36.1954 218.467 35.8915C218.593 35.5875 218.658 35.2618 218.657 34.9328L218.657 34.9175C218.647 33.1732 218.641 31.1421 218.641 30.9947C218.641 29.1196 220.452 27.2514 221.939 26.0331C223.661 24.6402 224.871 22.7158 225.38 20.5618C225.49 20.1178 225.55 19.6631 225.56 19.2059C225.56 17.9509 225.313 16.7081 224.832 15.5486C224.351 14.3891 223.646 13.3356 222.758 12.4481C221.869 11.5607 220.815 10.8567 219.654 10.3764C218.493 9.89613 217.249 9.64893 215.992 9.64893C215.969 9.64893 215.946 9.64902 215.923 9.64919Z" fill="white"/>
<path d="M54.6777 64.063C58.8957 61.2932 64.1967 62.5392 68.8847 62.901C73.1207 63.228 78.1414 62.9059 81.1207 59.4489C84.2203 55.8524 83.9613 50.5125 81.3951 46.7084C78.8692 42.9641 74.6762 40.5998 70.2405 39.9764C67.7828 39.6167 65.277 39.772 62.8827 40.4325C60.4884 41.093 58.258 42.2441 56.3333 43.8126L57.8409 44.4364C56.9623 36.0469 50.7871 28.4627 42.5019 26.4055C34.119 24.324 24.7443 27.8764 20.2719 35.3425C15.8628 42.7028 16.3852 52.9735 22.7316 59.09C25.7793 62.0275 29.9252 63.524 34.1326 62.7254C38.0129 61.989 41.4607 59.1634 42.1868 55.1734C42.86 51.4745 41.3895 47.2732 37.7876 45.6578C36.802 45.1987 35.7249 44.9692 34.6376 44.9865C33.5502 45.0039 32.481 45.2677 31.5106 45.758C30.6317 46.2519 29.8891 46.9558 29.3492 47.8065C28.8093 48.6573 28.4889 49.6285 28.4167 50.6332C28.3495 51.6059 28.5479 52.5786 28.9906 53.4475C29.4906 54.4671 31.0144 53.5739 30.5157 52.5571C30.1936 51.8095 30.1021 50.9829 30.2528 50.183C30.4035 49.3832 30.7897 48.6464 31.3618 48.067C32.6711 46.7008 34.7379 46.4739 36.4777 47.0325C39.6611 48.0545 41.0666 51.7024 40.4667 54.797C39.7948 58.2633 36.8324 60.4906 33.4592 61.0609C29.791 61.6811 26.2137 60.1339 23.6673 57.5317C18.3345 52.0819 17.873 43.3045 21.4704 36.8002C25.1198 30.2018 32.9044 26.6587 40.3194 27.7655C47.6516 28.86 53.6901 34.6206 55.5716 41.7237C55.809 42.6137 55.9772 43.5206 56.0747 44.4364C56.0807 44.6081 56.136 44.7744 56.2341 44.9156C56.3321 45.0568 56.4687 45.1668 56.6276 45.2325C56.7866 45.2983 56.961 45.317 57.1303 45.2864C57.2996 45.2559 57.4565 45.1773 57.5823 45.0601C63.8476 39.8625 74.2684 40.42 79.4057 46.9587C81.9251 50.1654 82.6676 55.145 79.7255 58.3662C76.9241 61.4333 72.272 61.4364 68.4458 61.1005C63.5513 60.6708 58.1706 59.6605 53.7863 62.5395C52.8404 63.1607 53.7242 64.6891 54.6777 64.063Z" fill="#2F2E41"/>
<path d="M73.6744 180.034H38.3496C37.6471 180.033 36.9737 179.754 36.477 179.258C35.9803 178.762 35.701 178.089 35.7002 177.388V165.626C35.701 164.924 35.9803 164.252 36.477 163.755C36.9737 163.259 37.6471 162.98 38.3496 162.979H73.6744C74.3768 162.98 75.0503 163.259 75.547 163.755C76.0436 164.252 76.323 164.924 76.3238 165.626V177.388C76.323 178.089 76.0436 178.762 75.547 179.258C75.0503 179.754 74.3768 180.033 73.6744 180.034Z" fill="#2F2E41"/>
<path d="M74.8814 122.046C73.7754 116.396 69.48 111.922 63.9048 110.082C65.9181 109.435 67.1981 108.477 67.1981 107.405C67.1981 105.456 62.9807 103.876 57.7782 103.876C52.5757 103.876 48.3582 105.456 48.3582 107.405C48.3582 108.492 49.6731 109.464 51.7374 110.111C43.1901 112.657 36.9861 120.087 36.9861 128.837C36.9861 128.837 34.355 145.685 32.2892 159.152C30.9676 167.768 38.1889 175.47 47.5867 175.47H80.6381C82.8032 175.47 84.5645 173.839 84.5645 171.834C84.5645 171.834 78.4742 140.398 74.8814 122.046Z" fill="#2F2E41"/>
</g>
<defs>
<clipPath id="clip0_2508_21659">
<rect width="245" height="220" fill="white"/>
</clipPath>
</defs>
</svg>
