<svg width="245" height="180" viewBox="0 0 245 180" fill="none" xmlns="http://www.w3.org/2000/svg">
<g clip-path="url(#clip0_2454_24042)">
<path d="M65.0767 132.937C29.1932 132.937 0 103.742 0 67.8571C0 31.9719 29.1932 2.77734 65.0767 2.77734C75.503 2.78805 85.7749 5.29844 95.0309 10.098C104.287 14.8976 112.258 21.8465 118.274 30.3621L117.659 30.7971C111.712 22.38 103.833 15.5114 94.6843 10.7673C85.5354 6.02312 75.3824 3.54171 65.0767 3.53109C29.609 3.53109 0.753714 32.3878 0.753714 67.8571C0.753714 103.326 29.609 132.183 65.0767 132.183C74.9568 132.215 84.7099 129.956 93.5698 125.583C102.43 121.211 110.155 114.843 116.139 106.981L116.737 107.439C110.683 115.394 102.867 121.836 93.9034 126.26C84.9398 130.684 75.0725 132.97 65.0767 132.937Z" fill="#E6E6E6"/>
<path d="M91.9803 56.9586C91.2669 56.9586 90.5694 56.747 89.9762 56.3506C89.383 55.9542 88.9207 55.3908 88.6476 54.7316C88.3746 54.0724 88.3032 53.3471 88.4424 52.6473C88.5815 51.9475 88.9251 51.3048 89.4296 50.8003C89.9341 50.2957 90.5768 49.9522 91.2766 49.813C91.9763 49.6738 92.7016 49.7452 93.3608 50.0183C94.0199 50.2913 94.5833 50.7537 94.9797 51.3469C95.376 51.9402 95.5876 52.6376 95.5876 53.3511C95.5876 54.3079 95.2075 55.2254 94.5311 55.9019C93.8546 56.5785 92.937 56.9586 91.9803 56.9586Z" fill="#E6E6E6"/>
<path d="M93.2385 54.1059L92.4837 53.351L93.2385 52.5961C93.2718 52.5631 93.2982 52.5239 93.3162 52.4806C93.3342 52.4374 93.3435 52.3911 93.3436 52.3442C93.3437 52.2974 93.3345 52.251 93.3166 52.2077C93.2987 52.1645 93.2725 52.1251 93.2394 52.092C93.2063 52.0589 93.1669 52.0327 93.1237 52.0148C93.0804 51.9969 93.034 51.9877 92.9872 51.9878C92.9403 51.9879 92.894 51.9972 92.8508 52.0152C92.8075 52.0332 92.7683 52.0596 92.7353 52.0928L91.9805 52.8477L91.2256 52.0928C91.1589 52.0261 91.0684 51.9886 90.974 51.9886C90.8796 51.9886 90.7891 52.0261 90.7224 52.0928C90.6557 52.1596 90.6182 52.2501 90.6182 52.3445C90.6182 52.4389 90.6557 52.5294 90.7224 52.5961L91.4772 53.351L90.7224 54.1059C90.656 54.1727 90.6188 54.2631 90.619 54.3572C90.6191 54.4514 90.6566 54.5417 90.7232 54.6083C90.7898 54.6749 90.8801 54.7124 90.9743 54.7125C91.0684 54.7127 91.1588 54.6755 91.2256 54.6091L91.9805 53.8542L92.7353 54.6091C92.7684 54.6422 92.8076 54.6684 92.8508 54.6863C92.8939 54.7041 92.9402 54.7133 92.9869 54.7133C93.0337 54.7133 93.0799 54.7041 93.1231 54.6863C93.1663 54.6684 93.2055 54.6422 93.2385 54.6091C93.2716 54.5761 93.2978 54.5368 93.3157 54.4937C93.3336 54.4505 93.3428 54.4042 93.3428 54.3575C93.3428 54.3108 93.3336 54.2645 93.3157 54.2213C93.2978 54.1781 93.2716 54.1389 93.2385 54.1059Z" fill="white"/>
<path d="M74.04 14.358C78.0047 14.358 81.2186 11.1439 81.2186 7.179C81.2186 3.21415 78.0047 0 74.04 0C70.0753 0 66.8613 3.21415 66.8613 7.179C66.8613 11.1439 70.0753 14.358 74.04 14.358Z" fill="#E6E6E6"/>
<path d="M73.0606 10.9152C72.9366 10.9152 72.8144 10.8863 72.7035 10.8309C72.5926 10.7754 72.4962 10.6949 72.4219 10.5957L70.4634 7.98427C70.4005 7.90037 70.3547 7.80491 70.3287 7.70332C70.3027 7.60173 70.2969 7.49602 70.3117 7.3922C70.3266 7.28839 70.3617 7.18852 70.4151 7.09829C70.4686 7.00805 70.5392 6.92922 70.6231 6.86631C70.707 6.80339 70.8025 6.75761 70.9041 6.73159C71.0057 6.70557 71.1114 6.69981 71.2152 6.71464C71.319 6.72948 71.4189 6.76462 71.5091 6.81805C71.5993 6.87148 71.6781 6.94216 71.741 7.02605L73.0223 8.73438L76.3131 3.798C76.4313 3.62331 76.6137 3.50244 76.8206 3.46177C77.0275 3.4211 77.2421 3.46393 77.4176 3.5809C77.593 3.69788 77.7151 3.87951 77.7572 4.08616C77.7992 4.29281 77.7578 4.50771 77.642 4.68394L73.7251 10.5596C73.6542 10.6658 73.5589 10.7536 73.4472 10.8154C73.3354 10.8772 73.2105 10.9114 73.0828 10.9149L73.0606 10.9152Z" fill="white"/>
<path d="M82.8306 20.1304H65.5677C64.5126 20.1304 63.6572 20.9858 63.6572 22.0409V22.7285C63.6572 23.7837 64.5126 24.6391 65.5677 24.6391H82.8306C83.8857 24.6391 84.741 23.7837 84.741 22.7285V22.0409C84.741 20.9858 83.8857 20.1304 82.8306 20.1304Z" fill="#E6E6E6"/>
<path d="M93.538 29.1479H54.8597C53.8046 29.1479 52.9492 30.0033 52.9492 31.0585V31.7461C52.9492 32.8013 53.8046 33.6567 54.8597 33.6567H93.538C94.5932 33.6567 95.4485 32.8013 95.4485 31.7461V31.0585C95.4485 30.0033 94.5932 29.1479 93.538 29.1479Z" fill="#E6E6E6"/>
<path d="M93.538 38.1655H54.8597C53.8046 38.1655 52.9492 39.0209 52.9492 40.0761V40.7637C52.9492 41.8189 53.8046 42.6743 54.8597 42.6743H93.538C94.5932 42.6743 95.4485 41.8189 95.4485 40.7637V40.0761C95.4485 39.0209 94.5932 38.1655 93.538 38.1655Z" fill="#E6E6E6"/>
<path d="M70.0125 134.311C69.2991 134.311 68.6017 134.1 68.0085 133.703C67.4152 133.307 66.9529 132.743 66.6799 132.084C66.4068 131.425 66.3354 130.7 66.4746 130C66.6138 129.3 66.9573 128.657 67.4618 128.153C67.9663 127.648 68.6091 127.305 69.3088 127.166C70.0085 127.026 70.7339 127.098 71.393 127.371C72.0521 127.644 72.6155 128.106 73.0119 128.699C73.4083 129.293 73.6198 129.99 73.6198 130.704C73.6198 131.66 73.2398 132.578 72.5633 133.254C71.8868 133.931 70.9693 134.311 70.0125 134.311Z" fill="#E6E6E6"/>
<path d="M71.2698 131.459L70.5149 130.704L71.2698 129.949C71.3365 129.882 71.374 129.792 71.374 129.697C71.374 129.603 71.3365 129.512 71.2698 129.446C71.2031 129.379 71.1125 129.341 71.0182 129.341C70.9238 129.341 70.8333 129.379 70.7666 129.446L70.0117 130.2L69.2569 129.446C69.1901 129.379 69.0996 129.341 69.0052 129.341C68.9109 129.341 68.8204 129.379 68.7536 129.446C68.6869 129.512 68.6494 129.603 68.6494 129.697C68.6494 129.792 68.6869 129.882 68.7536 129.949L69.5085 130.704L68.7536 131.459C68.6869 131.525 68.6494 131.616 68.6494 131.71C68.6494 131.805 68.6869 131.895 68.7536 131.962C68.8204 132.029 68.9109 132.066 69.0052 132.066C69.0996 132.066 69.1901 132.029 69.2569 131.962L70.0117 131.207L70.7666 131.962C70.8333 132.029 70.9238 132.066 71.0182 132.066C71.1125 132.066 71.2031 132.029 71.2698 131.962C71.3365 131.895 71.374 131.805 71.374 131.71C71.374 131.616 71.3365 131.525 71.2698 131.459Z" fill="white"/>
<path d="M52.0722 91.7105C56.0369 91.7105 59.2509 88.4964 59.2509 84.5315C59.2509 80.5667 56.0369 77.3525 52.0722 77.3525C48.1076 77.3525 44.8936 80.5667 44.8936 84.5315C44.8936 88.4964 48.1076 91.7105 52.0722 91.7105Z" fill="#E6E6E6"/>
<path d="M51.0928 88.2677C50.9689 88.2677 50.8466 88.2389 50.7357 88.1834C50.6249 88.128 50.5284 88.0474 50.4541 87.9483L48.4956 85.3368C48.4327 85.2529 48.3869 85.1575 48.3609 85.0559C48.3349 84.9543 48.3291 84.8486 48.344 84.7448C48.3588 84.641 48.3939 84.5411 48.4474 84.4508C48.5008 84.3606 48.5715 84.2818 48.6554 84.2189C48.7393 84.156 48.8347 84.1102 48.9363 84.0842C49.0379 84.0581 49.1436 84.0524 49.2474 84.0672C49.3512 84.082 49.4511 84.1172 49.5413 84.1706C49.6315 84.224 49.7104 84.2947 49.7733 84.3786L51.0546 86.0869L54.3454 81.1506C54.4032 81.0625 54.4779 80.9868 54.5651 80.9278C54.6523 80.8688 54.7503 80.8276 54.8535 80.8066C54.9567 80.7856 55.0631 80.7852 55.1664 80.8055C55.2697 80.8257 55.3681 80.8662 55.4557 80.9247C55.5433 80.9831 55.6185 81.0583 55.677 81.1459C55.7354 81.2335 55.776 81.3318 55.7963 81.4351C55.8166 81.5384 55.8163 81.6448 55.7953 81.748C55.7744 81.8512 55.7332 81.9493 55.6742 82.0365L51.7573 87.9121C51.6865 88.0184 51.5912 88.1061 51.4794 88.1679C51.3677 88.2298 51.2427 88.2639 51.1151 88.2675L51.0928 88.2677Z" fill="white"/>
<path d="M60.8618 97.4834H43.599C42.5438 97.4834 41.6885 98.3388 41.6885 99.394V100.082C41.6885 101.137 42.5438 101.992 43.599 101.992H60.8618C61.9169 101.992 62.7723 101.137 62.7723 100.082V99.394C62.7723 98.3388 61.9169 97.4834 60.8618 97.4834Z" fill="#E6E6E6"/>
<path d="M71.5693 106.5H32.891C31.8358 106.5 30.9805 107.356 30.9805 108.411V109.099C30.9805 110.154 31.8358 111.009 32.891 111.009H71.5693C72.6244 111.009 73.4798 110.154 73.4798 109.099V108.411C73.4798 107.356 72.6244 106.5 71.5693 106.5Z" fill="#E6E6E6"/>
<path d="M71.5693 115.518H32.891C31.8358 115.518 30.9805 116.373 30.9805 117.429V118.116C30.9805 119.171 31.8358 120.027 32.891 120.027H71.5693C72.6244 120.027 73.4798 119.171 73.4798 118.116V117.429C73.4798 116.373 72.6244 115.518 71.5693 115.518Z" fill="#E6E6E6"/>
<path d="M144.634 118.92C143.648 118.92 142.685 118.627 141.866 118.08C141.047 117.533 140.409 116.755 140.032 115.844C139.655 114.934 139.556 113.933 139.748 112.966C139.94 112 140.415 111.112 141.111 110.416C141.808 109.719 142.696 109.244 143.662 109.052C144.628 108.86 145.63 108.959 146.54 109.336C147.45 109.713 148.228 110.351 148.775 111.17C149.323 111.99 149.615 112.953 149.615 113.938C149.615 115.259 149.09 116.526 148.156 117.461C147.222 118.395 145.955 118.92 144.634 118.92Z" fill="#E6E6E6"/>
<path d="M146.371 114.98L145.329 113.938L146.371 112.896C146.464 112.803 146.515 112.678 146.515 112.548C146.515 112.418 146.464 112.293 146.371 112.201C146.279 112.108 146.154 112.057 146.024 112.057C145.894 112.057 145.769 112.108 145.677 112.201L144.634 113.243L143.592 112.201C143.5 112.108 143.375 112.057 143.244 112.057C143.114 112.057 142.989 112.108 142.897 112.201C142.805 112.293 142.753 112.418 142.753 112.548C142.753 112.678 142.805 112.803 142.897 112.896L143.939 113.938L142.897 114.98C142.805 115.073 142.753 115.198 142.753 115.328C142.753 115.458 142.805 115.583 142.897 115.675C142.989 115.767 143.114 115.819 143.244 115.819C143.375 115.819 143.5 115.767 143.592 115.675L144.634 114.633L145.677 115.675C145.769 115.767 145.894 115.819 146.024 115.819C146.154 115.819 146.279 115.767 146.371 115.675C146.464 115.583 146.515 115.458 146.515 115.328C146.515 115.198 146.464 115.073 146.371 114.98Z" fill="white"/>
<path d="M122.931 60.0922C128.405 60.0922 132.844 55.6537 132.844 50.1786C132.844 44.7036 128.405 40.2651 122.931 40.2651C117.456 40.2651 113.018 44.7036 113.018 50.1786C113.018 55.6537 117.456 60.0922 122.931 60.0922Z" fill="#0055F1"/>
<path d="M121.578 55.3385C121.407 55.3385 121.238 55.2987 121.085 55.2221C120.932 55.1455 120.799 55.0343 120.696 54.8974L117.992 51.2912C117.905 51.1754 117.842 51.0435 117.806 50.9032C117.77 50.763 117.762 50.617 117.783 50.4736C117.803 50.3303 117.852 50.1924 117.925 50.0678C117.999 49.9432 118.097 49.8343 118.213 49.7474C118.328 49.6605 118.46 49.5973 118.601 49.5614C118.741 49.5254 118.887 49.5175 119.03 49.538C119.173 49.5585 119.311 49.607 119.436 49.6808C119.561 49.7545 119.669 49.8522 119.756 49.968L121.526 52.327L126.07 45.5104C126.15 45.3898 126.254 45.2863 126.374 45.2057C126.494 45.125 126.629 45.0689 126.771 45.0405C126.913 45.0121 127.059 45.0119 127.202 45.04C127.344 45.0681 127.479 45.1239 127.599 45.2043C127.72 45.2846 127.823 45.3879 127.904 45.5083C127.984 45.6286 128.041 45.7637 128.069 45.9057C128.097 46.0477 128.097 46.194 128.069 46.336C128.041 46.4781 127.985 46.6133 127.905 46.7338L122.496 54.8474C122.398 54.9942 122.267 55.1153 122.112 55.2007C121.958 55.2861 121.785 55.3332 121.609 55.3382C121.599 55.3384 121.589 55.3385 121.578 55.3385Z" fill="white"/>
<path d="M135.796 68.064H110.502C109.447 68.064 108.592 68.9194 108.592 69.9745V72.3795C108.592 73.4347 109.447 74.2901 110.502 74.2901H135.796C136.851 74.2901 137.707 73.4347 137.707 72.3795V69.9745C137.707 68.9194 136.851 68.064 135.796 68.064Z" fill="#3F3D56"/>
<path d="M150.583 80.5161H95.7161C94.661 80.5161 93.8057 81.3715 93.8057 82.4267V84.8317C93.8057 85.8869 94.661 86.7423 95.7161 86.7423H150.583C151.638 86.7423 152.493 85.8869 152.493 84.8317V82.4267C152.493 81.3715 151.638 80.5161 150.583 80.5161Z" fill="#3F3D56"/>
<path d="M150.583 92.9683H95.7161C94.661 92.9683 93.8057 93.8237 93.8057 94.8788V97.2838C93.8057 98.339 94.661 99.1944 95.7161 99.1944H150.583C151.638 99.1944 152.493 98.339 152.493 97.2838V94.8788C152.493 93.8237 151.638 92.9683 150.583 92.9683Z" fill="#3F3D56"/>
<path d="M169.84 174.733L165.033 174.733L162.746 156.189L169.842 156.19L169.84 174.733Z" fill="#FFB6B6"/>
<path d="M169.713 173.163L164.58 171.075L164.433 171.015L161.599 173.163C159.999 173.163 158.464 173.799 157.333 174.93C156.201 176.062 155.566 177.596 155.565 179.197V179.393H171.066V173.163H169.713Z" fill="#2F2E41"/>
<path d="M210.473 170.706L205.882 172.133L198.195 155.103L204.971 152.998L210.473 170.706Z" fill="#FFB6B6"/>
<path d="M209.884 169.245L204.363 168.775L204.205 168.761L202.136 171.653C200.608 172.128 199.332 173.191 198.587 174.607C197.842 176.024 197.691 177.678 198.165 179.206L198.223 179.393L213.025 174.793L211.176 168.844L209.884 169.245Z" fill="#2F2E41"/>
<path d="M191.239 79.7417L193.194 85.3027V88.3088L192.921 91.6144L195.948 102.639L198.322 126.951L210.268 162.939L201.108 165.577L177.72 106.776L170.333 166.252L161.956 166.028C161.956 166.028 160.523 162.562 160.9 160.678C161.277 158.794 161.277 161.055 161.277 158.794C161.277 156.532 159.643 157.515 160.837 155.705C162.03 153.894 161.882 152.31 161.956 151.218C162.03 150.126 161.277 106.031 161.277 104.524C161.277 103.016 161.016 103.346 161.146 101.862C161.277 100.378 162.933 100.988 162.482 98.4219C162.03 95.8556 161.882 96.3042 161.956 94.3839C162.03 92.4637 163.069 81.2046 163.069 81.2046L191.239 79.7417Z" fill="#2F2E41"/>
<path d="M159.887 81.5503L176.68 65.3541L181.335 52.1741L174.469 49.1885C170.943 52.5668 167.131 63.0892 167.131 63.0892L155.574 77.7922C155.484 77.8231 155.394 77.8558 155.306 77.895C154.785 78.1245 154.333 78.4844 153.992 78.94C153.651 79.3955 153.434 79.9312 153.361 80.4954C153.287 81.0596 153.361 81.6331 153.574 82.1605C153.787 82.6879 154.133 83.1515 154.578 83.5063C155.022 83.8611 155.551 84.0952 156.112 84.186C156.674 84.2767 157.25 84.2211 157.783 84.0245C158.317 83.8278 158.791 83.4968 159.16 83.0634C159.528 82.6299 159.779 82.1088 159.887 81.5503Z" fill="#FFB8B8"/>
<path d="M172.537 50.6602L181.246 53.425L181.279 53.4196C184.52 52.8766 187.21 47.5824 188.895 43.2367C189.45 41.8033 189.439 40.2128 188.866 38.7868C188.293 37.3607 187.2 36.2055 185.807 35.5546C184.777 35.0814 183.635 34.9059 182.51 35.0478C181.385 35.1897 180.323 35.6435 179.442 36.3577L174.97 40.012L172.537 50.6602Z" fill="#0055F1"/>
<path d="M192.719 86.8855L192.769 86.8179C195.487 83.2141 191.77 74.2897 191.208 72.9954L193.735 72.247L193.295 67.4364L193.082 65.2913L195.047 63.4258L195.053 63.3782L196.404 53.7637L198.172 47.4004C198.838 44.9947 198.852 42.4551 198.213 40.0423C197.573 37.6294 196.303 35.4302 194.533 33.6704L190.919 30.0826L186.59 23.3061L179.332 23.1187L176.722 27.7556C174.294 28.251 172.118 29.5823 170.571 31.5175C169.024 33.4528 168.205 35.8693 168.257 38.3462L168.503 50.6906L165.898 65.9853L165.825 68.7636L163.269 71.4612L163.742 74.1885L161.829 74.9502L160.894 78.8257C160.536 79.2728 158.177 82.2555 158.155 83.0871C158.152 83.2119 158.241 83.3349 158.435 83.4739C159.963 84.5667 168.5 86.9347 172.342 85.5111C176.434 83.996 192.474 86.8415 192.635 86.8705L192.719 86.8855Z" fill="#0055F1"/>
<path d="M174.925 47.7528L171.217 40.3604C165.835 40.728 155.154 46.9509 155.154 46.9509L134.944 51.2359C134.346 51.0058 133.697 50.9374 133.064 51.0377C132.43 51.138 131.834 51.4034 131.336 51.8073C130.838 52.2111 130.454 52.7391 130.225 53.338C129.996 53.937 129.928 54.5859 130.029 55.2193C130.13 55.8527 130.396 56.4483 130.801 56.9462C131.205 57.4441 131.733 57.8266 132.333 58.0553C132.932 58.284 133.581 58.3508 134.214 58.249C134.847 58.1472 135.443 57.8804 135.94 57.4753L161.648 55.6325L174.925 47.7528Z" fill="#FFB8B8"/>
<path d="M173.429 48.9666L183.113 41.7701L184.818 35.623C185.149 34.415 185.135 33.1386 184.778 31.9382C184.421 30.7377 183.736 29.661 182.799 28.8296C181.522 27.7113 179.868 27.1196 178.171 27.1744C176.474 27.2291 174.861 27.9262 173.659 29.1245C170.015 32.7619 165.859 37.8364 166.751 41.3552L166.76 41.3909L173.429 48.9666Z" fill="#0055F1"/>
<path d="M183.2 21.4381C187.955 21.4381 191.81 17.5827 191.81 12.8269C191.81 8.07115 187.955 4.21582 183.2 4.21582C178.444 4.21582 174.589 8.07115 174.589 12.8269C174.589 17.5827 178.444 21.4381 183.2 21.4381Z" fill="#FFB8B8"/>
<path d="M188.866 21.8326C187.426 21.1561 185.744 21.5672 184.154 21.6298C182.564 21.6924 180.637 21.0929 180.3 19.5378C180.051 18.3879 180.8 17.1276 180.328 16.05C179.813 14.8749 178.266 14.7077 177.026 14.3786C175.472 13.9295 174.101 12.9965 173.112 11.7153C172.124 10.434 171.57 8.87107 171.53 7.25337C171.444 7.89543 172.542 8.10632 172.903 7.56831C173.264 7.03031 173.015 6.28565 172.618 5.77443C172.22 5.26321 171.683 4.85494 171.383 4.2808C171.083 3.70666 171.141 2.854 171.727 2.5777C172.027 3.18385 172.452 3.71945 172.975 4.14917C173.497 4.5789 174.105 4.89298 174.757 5.07069C174.491 4.26108 174.868 3.35088 175.474 2.75206C176.119 2.19101 176.861 1.75379 177.664 1.4624C179.649 0.601942 181.966 -0.254306 183.889 0.738458C184.385 0.999638 184.816 1.36956 185.149 1.82059C185.482 2.27163 185.709 2.79212 185.813 3.34319C189.368 3.64385 193.019 7.49557 192.817 11.0582C192.599 14.8936 192.44 15.2039 189.248 21.6579" fill="#2F2E41"/>
<path d="M232.001 179.614H219.494L219.44 179.516C219.281 179.226 219.126 178.919 218.982 178.603C217.694 175.845 217.149 172.69 216.669 169.907L216.307 167.809C216.263 167.555 216.296 167.294 216.402 167.059C216.507 166.824 216.681 166.625 216.9 166.489C217.119 166.353 217.373 166.285 217.631 166.295C217.888 166.304 218.137 166.39 218.346 166.542C220.246 167.925 222.148 169.307 224.05 170.687C224.77 171.212 225.593 171.818 226.38 172.474C226.456 172.104 226.536 171.734 226.615 171.369C226.67 171.117 226.799 170.887 226.985 170.708C227.172 170.53 227.407 170.411 227.661 170.367C227.915 170.323 228.177 170.356 228.412 170.462C228.648 170.567 228.846 170.741 228.982 170.96L230.446 173.311C231.513 175.028 232.455 176.72 232.263 178.544C232.264 178.567 232.262 178.589 232.258 178.611C232.22 178.91 232.148 179.205 232.046 179.489L232.001 179.614Z" fill="#F0F0F0"/>
<path d="M244.554 179.884L125.709 180C125.591 180 125.477 179.952 125.393 179.868C125.31 179.784 125.263 179.67 125.263 179.551C125.263 179.433 125.31 179.319 125.393 179.235C125.477 179.151 125.591 179.103 125.709 179.103L244.554 178.987C244.673 178.987 244.786 179.035 244.87 179.119C244.953 179.203 245 179.317 245 179.436C245 179.554 244.953 179.668 244.87 179.752C244.786 179.836 244.673 179.884 244.554 179.884Z" fill="#CACACA"/>
</g>
<defs>
<clipPath id="clip0_2454_24042">
<rect width="245" height="180" fill="white"/>
</clipPath>
</defs>
</svg>
