<svg width="245" height="190" viewBox="0 0 245 190" fill="none" xmlns="http://www.w3.org/2000/svg">
<g clip-path="url(#clip0_4029_23016)">
<path d="M139.505 92.9046C145.018 92.9046 149.487 88.4418 149.487 82.9367C149.487 77.4315 145.018 72.9688 139.505 72.9688C133.992 72.9688 129.522 77.4315 129.522 82.9367C129.522 88.4418 133.992 92.9046 139.505 92.9046Z" fill="#E6E6E6"/>
<path d="M163.969 95.7455L153.537 85.3288C154.337 84.0868 154.879 82.6973 155.131 81.2424C155.383 79.7875 155.34 78.2969 155.004 76.859C154.669 75.421 154.048 74.0649 153.178 72.871C152.308 71.6771 151.207 70.6697 149.94 69.9085C147.554 68.4854 144.72 68.0088 141.999 68.5732C139.279 69.1376 136.869 70.7017 135.249 72.9559C133.757 75.0439 133.041 77.5855 133.223 80.1437C133.405 82.7019 134.474 85.1169 136.246 86.9735C138.017 88.8301 140.382 90.0123 142.932 90.3169C145.482 90.6215 148.059 90.0294 150.219 88.6424L160.65 99.0591C161.091 99.4981 161.687 99.7446 162.309 99.7445C162.931 99.7443 163.528 99.4974 163.968 99.0582C164.408 98.6189 164.655 98.0232 164.655 97.402C164.655 96.7808 164.408 96.185 163.969 95.7455ZM149.829 84.9399C148.537 86.2307 146.836 87.0339 145.017 87.2129C143.198 87.3918 141.373 86.9354 139.853 85.9213C138.333 84.9072 137.212 83.3982 136.682 81.6515C136.151 79.9047 136.243 78.0283 136.943 76.3419C137.642 74.6555 138.906 73.2635 140.518 72.403C142.13 71.5425 143.991 71.2668 145.784 71.6229C147.577 71.979 149.19 72.9449 150.35 74.3559C151.51 75.7669 152.144 77.5358 152.144 79.3611C152.145 80.3974 151.941 81.4237 151.544 82.3811C151.147 83.3385 150.564 84.2081 149.829 84.9399Z" fill="#3F3D56"/>
<path d="M239.585 111.111C266.263 140.571 188.929 183.028 126.442 183.028C63.9555 183.028 20.7243 150.131 13.2998 111.111C-4.70207 16.4993 166.68 -43.6353 126.442 39.194C67.7919 159.927 218.576 87.9102 239.585 111.111Z" fill="#E6E6E6"/>
<path d="M227.615 118.083C254.293 147.544 176.96 190 114.473 190C51.9858 190 8.75453 157.104 1.33004 118.083C-16.6718 23.4719 154.71 -36.6627 114.473 46.1666C55.8222 166.9 206.606 94.8829 227.615 118.083Z" fill="#3F3D56"/>
<path d="M37.3034 49.0115C18.5841 48.1885 4.06997 44.1563 4.26065 39.8319C4.37497 37.2392 9.67272 35.1544 18.7954 34.1122C18.8281 34.1082 18.8612 34.1107 18.8929 34.1196C18.9245 34.1285 18.9541 34.1436 18.9799 34.1639C19.0058 34.1842 19.0273 34.2095 19.0433 34.2382C19.0593 34.2669 19.0695 34.2984 19.0732 34.3311C19.0769 34.3637 19.0742 34.3967 19.0651 34.4283C19.056 34.4599 19.0407 34.4893 19.0201 34.5149C18.9996 34.5406 18.9742 34.5619 18.9453 34.5777C18.9165 34.5935 18.8848 34.6034 18.8521 34.6069C10.2585 35.5888 4.85831 37.5993 4.75889 39.8538C4.58646 43.7644 19.5001 47.7303 37.3254 48.514C55.1507 49.2977 70.3557 46.6561 70.5281 42.7455C70.6279 40.4815 65.3919 37.9979 56.8633 36.2641C56.8312 36.2577 56.8006 36.2449 56.7733 36.2267C56.7461 36.2084 56.7227 36.1849 56.7046 36.1576C56.6864 36.1303 56.6739 36.0997 56.6676 36.0676C56.6613 36.0354 56.6615 36.0023 56.668 35.9702C56.6745 35.9381 56.6874 35.9076 56.7057 35.8805C56.7241 35.8533 56.7477 35.8301 56.7751 35.812C56.8025 35.794 56.8331 35.7815 56.8654 35.7754C56.8976 35.7692 56.9307 35.7694 56.9628 35.7761C66.0151 37.6164 71.1411 40.1646 71.0263 42.7674C70.8357 47.0919 56.0228 49.8346 37.3034 49.0115Z" fill="#0055F1"/>
<path d="M20.6787 49.7363C22.2447 52.7069 24.5644 55.2148 27.4059 57.009C30.2473 58.8032 33.5107 59.8209 36.8697 59.9601C40.2287 60.0993 43.5653 59.3552 46.5459 57.8023C49.5264 56.2494 52.0463 53.9421 53.8535 51.1113C42.7783 51.2604 31.7034 50.8013 20.6787 49.7363Z" fill="#0055F1"/>
<path d="M55.9242 45.873C56.8667 43.0502 57.1382 40.047 56.7174 37.1012C56.2966 34.1555 55.1949 31.3479 53.4996 28.9008C51.8043 26.4537 49.5619 24.4343 46.9499 23.0022C44.3378 21.5702 41.4278 20.7648 38.4502 20.65C35.4726 20.5352 32.5091 21.114 29.7942 22.3406C27.0794 23.5673 24.6877 25.4081 22.8084 27.7173C20.9292 30.0266 19.614 32.7409 18.9669 35.6455C18.3199 38.5501 18.3587 41.5652 19.0803 44.4522C31.2484 46.5149 43.6331 46.9925 55.9242 45.873Z" fill="#0055F1"/>
<path d="M42.1017 33.0193C43.3412 33.0193 44.346 32.016 44.346 30.7782C44.346 29.5405 43.3412 28.5371 42.1017 28.5371C40.8622 28.5371 39.8574 29.5405 39.8574 30.7782C39.8574 32.016 40.8622 33.0193 42.1017 33.0193Z" fill="white"/>
<path d="M30.5511 41.7321C32.6169 41.7321 34.2916 40.0598 34.2916 37.9969C34.2916 35.934 32.6169 34.2617 30.5511 34.2617C28.4852 34.2617 26.8105 35.934 26.8105 37.9969C26.8105 40.0598 28.4852 41.7321 30.5511 41.7321Z" fill="white"/>
<path d="M87.0053 38.0739C88.3825 38.0739 89.4989 36.959 89.4989 35.5838C89.4989 34.2086 88.3825 33.0938 87.0053 33.0938C85.6281 33.0938 84.5117 34.2086 84.5117 35.5838C84.5117 36.959 85.6281 38.0739 87.0053 38.0739Z" fill="#0055F1"/>
<path d="M30.6486 114.271C31.4749 114.271 32.1448 113.602 32.1448 112.777C32.1448 111.952 31.4749 111.283 30.6486 111.283C29.8222 111.283 29.1523 111.952 29.1523 112.777C29.1523 113.602 29.8222 114.271 30.6486 114.271Z" fill="#E6E6E6"/>
<path d="M135.383 165.568C136.209 165.568 136.879 164.899 136.879 164.074C136.879 163.249 136.209 162.58 135.383 162.58C134.557 162.58 133.887 163.249 133.887 164.074C133.887 164.899 134.557 165.568 135.383 165.568Z" fill="#E6E6E6"/>
<path d="M37.88 85.3857C38.2931 85.3857 38.6281 85.0512 38.6281 84.6387C38.6281 84.2261 38.2931 83.8916 37.88 83.8916C37.4668 83.8916 37.1318 84.2261 37.1318 84.6387C37.1318 85.0512 37.4668 85.3857 37.88 85.3857Z" fill="#E6E6E6"/>
<path d="M99.7227 141.165C100.136 141.165 100.471 140.831 100.471 140.418C100.471 140.005 100.136 139.671 99.7227 139.671C99.3096 139.671 98.9746 140.005 98.9746 140.418C98.9746 140.831 99.3096 141.165 99.7227 141.165Z" fill="#E6E6E6"/>
<path d="M212.188 133.943C212.601 133.943 212.936 133.609 212.936 133.196C212.936 132.784 212.601 132.449 212.188 132.449C211.774 132.449 211.439 132.784 211.439 133.196C211.439 133.609 211.774 133.943 212.188 133.943Z" fill="#E6E6E6"/>
<path d="M177.026 156.105C177.44 156.105 177.775 155.771 177.775 155.358C177.775 154.946 177.44 154.611 177.026 154.611C176.613 154.611 176.278 154.946 176.278 155.358C176.278 155.771 176.613 156.105 177.026 156.105Z" fill="#E6E6E6"/>
<path d="M140.37 129.212C140.783 129.212 141.118 128.877 141.118 128.465C141.118 128.052 140.783 127.718 140.37 127.718C139.957 127.718 139.622 128.052 139.622 128.465C139.622 128.877 139.957 129.212 140.37 129.212Z" fill="#E6E6E6"/>
<path d="M92.9903 55.5049C93.4035 55.5049 93.7384 55.1704 93.7384 54.7578C93.7384 54.3452 93.4035 54.0107 92.9903 54.0107C92.5771 54.0107 92.2422 54.3452 92.2422 54.7578C92.2422 55.1704 92.5771 55.5049 92.9903 55.5049Z" fill="#E6E6E6"/>
<path d="M98.9747 18.6504C99.3879 18.6504 99.7228 18.3159 99.7228 17.9033C99.7228 17.4907 99.3879 17.1562 98.9747 17.1562C98.5615 17.1562 98.2266 17.4907 98.2266 17.9033C98.2266 18.3159 98.5615 18.6504 98.9747 18.6504Z" fill="#E6E6E6"/>
<path d="M95.4835 173.785C95.8966 173.785 96.2316 173.451 96.2316 173.038C96.2316 172.625 95.8966 172.291 95.4835 172.291C95.0703 172.291 94.7354 172.625 94.7354 173.038C94.7354 173.451 95.0703 173.785 95.4835 173.785Z" fill="#E6E6E6"/>
<path d="M58.5772 158.098C58.9904 158.098 59.3253 157.763 59.3253 157.351C59.3253 156.938 58.9904 156.604 58.5772 156.604C58.164 156.604 57.8291 156.938 57.8291 157.351C57.8291 157.763 58.164 158.098 58.5772 158.098Z" fill="#E6E6E6"/>
<path d="M175.53 131.204C175.944 131.204 176.278 130.87 176.278 130.457C176.278 130.044 175.944 129.71 175.53 129.71C175.117 129.71 174.782 130.044 174.782 130.457C174.782 130.87 175.117 131.204 175.53 131.204Z" fill="#E6E6E6"/>
<path d="M36.9992 58.2186C38.2387 58.2186 39.2435 57.2152 39.2435 55.9774C39.2435 54.7397 38.2387 53.7363 36.9992 53.7363C35.7597 53.7363 34.7549 54.7397 34.7549 55.9774C34.7549 57.2152 35.7597 58.2186 36.9992 58.2186Z" fill="white"/>
<path d="M87.753 90.3666C87.753 97.0601 77.3895 112.657 74.3609 117.072C74.2695 117.206 74.1469 117.315 74.0037 117.39C73.8605 117.466 73.701 117.505 73.5391 117.505C73.3772 117.505 73.2177 117.466 73.0745 117.39C72.9314 117.315 72.8087 117.206 72.7174 117.072C69.6887 112.657 59.3252 97.0601 59.3252 90.3666C59.3252 88.5026 59.6928 86.6569 60.4072 84.9349C61.1215 83.2128 62.1685 81.6481 63.4884 80.3301C64.8082 79.0121 66.3752 77.9666 68.0997 77.2533C69.8242 76.54 71.6725 76.1729 73.5391 76.1729C75.4057 76.1729 77.254 76.54 78.9786 77.2533C80.7031 77.9666 82.27 79.0121 83.5899 80.3301C84.9098 81.6481 85.9568 83.2128 86.6711 84.9349C87.3854 86.6569 87.753 88.5026 87.753 90.3666Z" fill="white"/>
<path d="M73.5393 96.5912C77.5332 96.5912 80.7709 93.358 80.7709 89.3698C80.7709 85.3816 77.5332 82.1484 73.5393 82.1484C69.5453 82.1484 66.3076 85.3816 66.3076 89.3698C66.3076 93.358 69.5453 96.5912 73.5393 96.5912Z" fill="#0055F1"/>
<path d="M73.4153 125.228C78.029 125.228 81.7691 124.504 81.7691 123.61C81.7691 122.716 78.029 121.991 73.4153 121.991C68.8016 121.991 65.0615 122.716 65.0615 123.61C65.0615 124.504 68.8016 125.228 73.4153 125.228Z" fill="white"/>
<path d="M203.696 79.1654C203.633 79.2879 203.58 79.4152 203.536 79.546L191.621 82.8521L189.474 80.7538L185.879 83.5759L189.319 87.6595C189.597 87.9894 189.974 88.2204 190.395 88.3177C190.815 88.4151 191.256 88.3737 191.651 88.1996L204.522 82.5259C204.959 82.8285 205.478 82.9913 206.009 82.9925C206.541 82.9936 207.06 82.8332 207.498 82.5324C207.936 82.2316 208.272 81.8049 208.461 81.3088C208.65 80.8128 208.684 80.2709 208.557 79.7554C208.43 79.2399 208.15 78.7752 207.752 78.423C207.354 78.0708 206.859 77.8478 206.331 77.7837C205.803 77.7197 205.268 77.8176 204.798 78.0644C204.327 78.3112 203.943 78.6953 203.696 79.1654Z" fill="#FFB8B8"/>
<path d="M191.202 83.0467L186.729 86.5228C186.602 86.6217 186.455 86.6921 186.298 86.7291C186.141 86.7661 185.978 86.7689 185.82 86.7373C185.662 86.7057 185.512 86.6404 185.382 86.546C185.251 86.4515 185.142 86.33 185.063 86.1898L182.283 81.2775C181.78 80.6245 181.557 79.7988 181.662 78.9816C181.768 78.1644 182.194 77.4224 182.846 76.9182C183.499 76.414 184.325 76.1889 185.144 76.2921C185.962 76.3954 186.707 76.8186 187.213 77.469L191.287 81.352C191.404 81.4633 191.495 81.5983 191.555 81.7479C191.615 81.8975 191.641 82.0582 191.633 82.219C191.625 82.3798 191.582 82.537 191.508 82.6798C191.433 82.8226 191.329 82.9478 191.202 83.0467Z" fill="#0055F1"/>
<path d="M204.839 77.5222L209.374 79.5598C209.564 79.6451 209.712 79.8023 209.786 79.9968C209.86 80.1912 209.854 80.407 209.768 80.5967L209.231 81.7885C209.294 81.8171 209.344 81.8695 209.368 81.9343C209.393 81.999 209.391 82.0709 209.363 82.1341L209.148 82.6109C209.119 82.6739 209.067 82.7231 209.002 82.7477C208.937 82.7723 208.865 82.7702 208.802 82.742L208.587 83.2187C208.65 83.2473 208.699 83.2998 208.724 83.3645C208.749 83.4293 208.746 83.5011 208.718 83.5644L208.503 84.0411C208.475 84.1042 208.422 84.1534 208.357 84.1779C208.293 84.2025 208.221 84.2005 208.157 84.1722L205.258 90.6083C205.172 90.7979 205.015 90.9459 204.82 91.0197C204.625 91.0934 204.409 91.087 204.219 91.0016L199.684 88.964C199.494 88.8787 199.346 88.7215 199.272 88.527C199.198 88.3326 199.204 88.1168 199.29 87.9271L203.801 77.9155C203.886 77.7259 204.043 77.5779 204.238 77.5041C204.433 77.4303 204.649 77.4368 204.839 77.5222Z" fill="#3F3D56"/>
<path d="M200.507 88.3298L204.146 89.9661C204.328 90.0475 204.535 90.0536 204.722 89.9831C204.909 89.9126 205.06 89.7712 205.143 89.5897L206.823 85.8571L207.407 84.5633L208.928 81.1861C209.009 81.0044 209.015 80.798 208.945 80.6119C208.874 80.4258 208.732 80.2752 208.551 80.1929L207.407 79.6779L204.91 78.5566C204.728 78.4753 204.521 78.4696 204.334 78.5406C204.148 78.6117 203.997 78.7538 203.915 78.9356L202.444 82.2003L200.769 85.9172L200.13 87.3366C200.049 87.5182 200.043 87.7248 200.113 87.9109C200.184 88.0971 200.326 88.2477 200.507 88.3298Z" fill="#F2F2F2"/>
<path d="M192.905 134.577L195.962 134.577L197.417 122.802L192.904 122.802L192.905 134.577Z" fill="#FFB8B8"/>
<path d="M192.125 133.58L198.146 133.58C198.65 133.58 199.149 133.679 199.614 133.872C200.08 134.064 200.503 134.346 200.859 134.702C201.215 135.058 201.498 135.48 201.691 135.945C201.884 136.41 201.983 136.908 201.983 137.411V137.536L192.125 137.536L192.125 133.58Z" fill="#2F2E41"/>
<path d="M200.884 133.83L203.942 133.83L205.396 122.055L200.884 122.055L200.884 133.83Z" fill="#FFB8B8"/>
<path d="M200.104 132.833L206.125 132.833C206.629 132.833 207.128 132.932 207.594 133.125C208.059 133.317 208.482 133.599 208.839 133.955C209.195 134.311 209.477 134.733 209.67 135.198C209.863 135.663 209.962 136.161 209.962 136.664V136.789L200.105 136.789L200.104 132.833Z" fill="#2F2E41"/>
<path d="M179.192 106.945C179.843 108.873 181.079 110.552 182.727 111.748C184.376 112.944 186.356 113.599 188.393 113.621L188.548 113.624C190.127 113.669 191.979 113.161 193.797 112.431C197.388 110.989 200.837 108.681 201.752 108.046L200.201 122.934L199.573 128.97C199.557 129.127 199.574 129.284 199.623 129.434C199.672 129.583 199.751 129.72 199.856 129.837C199.962 129.953 200.09 130.046 200.234 130.11C200.377 130.174 200.533 130.208 200.69 130.208H204.562C204.811 130.208 205.052 130.126 205.249 129.975C205.446 129.823 205.586 129.611 205.65 129.371L212.043 105.055C212.235 104.328 212.251 103.565 212.088 102.83C211.926 102.095 211.591 101.409 211.111 100.829C210.63 100.249 210.019 99.7916 209.326 99.4947C208.634 99.1978 207.88 99.0698 207.128 99.1214L193.847 100.03L194.775 96.325L182.92 95.5381L182.885 95.563C182.601 95.7697 182.324 95.9863 182.06 96.2129C181.399 96.771 180.813 97.4122 180.316 98.1203C179.429 99.391 178.862 100.858 178.667 102.395C178.471 103.932 178.651 105.493 179.192 106.945Z" fill="#2F2E41"/>
<path d="M179.192 106.945C179.843 108.873 181.079 110.551 182.727 111.747C184.376 112.944 186.356 113.598 188.393 113.621C190.342 112.636 192.222 111.523 194.022 110.287L193.797 112.431L191.842 131.211C191.826 131.368 191.843 131.525 191.892 131.674C191.941 131.824 192.021 131.961 192.126 132.078C192.231 132.194 192.36 132.287 192.503 132.351C192.647 132.415 192.802 132.449 192.959 132.449H196.832C197.08 132.449 197.322 132.367 197.518 132.216C197.715 132.064 197.856 131.852 197.919 131.612L200.201 122.934L204.313 107.296C204.505 106.568 204.52 105.805 204.358 105.07C204.196 104.336 203.861 103.65 203.38 103.07C202.9 102.49 202.288 102.033 201.596 101.736C200.903 101.439 200.15 101.311 199.398 101.362L186.117 102.271L187.044 98.5658L180.316 98.1201C179.429 99.3908 178.862 100.857 178.667 102.394C178.471 103.931 178.651 105.493 179.192 106.945Z" fill="#2F2E41"/>
<path d="M182.043 97.0721L181.953 97.0613L179.885 86.9053C179.867 86.8172 178.176 78.0571 183.36 73.4775L183.45 72.8507C183.474 72.6903 183.531 72.5368 183.619 72.4008C183.708 72.2648 183.824 72.1496 183.962 72.063C184.099 71.9764 184.253 71.9206 184.414 71.8993C184.575 71.8781 184.739 71.8919 184.894 71.9399L189.777 73.4526C190.054 73.5376 190.287 73.7262 190.427 73.9788C190.567 74.2314 190.604 74.5284 190.53 74.8077L190.055 76.611C190.714 77.3829 198.463 86.699 195.764 93.8764L194.555 98.5956L182.043 97.0721Z" fill="#0055F1"/>
<path d="M202.321 89.1461C202.204 89.2195 202.093 89.302 201.99 89.3928L190.046 86.191L189.265 83.2939L184.732 83.8993L185.616 89.162C185.687 89.5872 185.895 89.9777 186.207 90.2751C186.52 90.5724 186.92 90.7605 187.349 90.8111L201.322 92.4593C201.544 92.9416 201.907 93.345 202.365 93.6159C202.822 93.8867 203.351 94.0122 203.881 93.9755C204.411 93.9389 204.918 93.7419 205.333 93.4108C205.749 93.0796 206.053 92.63 206.207 92.1218C206.36 91.6135 206.355 91.0707 206.191 90.5655C206.028 90.0603 205.715 89.6167 205.293 89.2937C204.871 88.9707 204.361 88.7835 203.83 88.7572C203.299 88.7308 202.773 88.8665 202.321 89.1461Z" fill="#FFB8B8"/>
<path d="M189.585 86.1446L183.964 86.8676C183.804 86.8882 183.641 86.8741 183.487 86.8263C183.333 86.7785 183.191 86.6981 183.071 86.5906C182.951 86.4832 182.856 86.3511 182.791 86.2035C182.727 86.0558 182.695 85.8961 182.698 85.7351L182.806 80.0938C182.705 79.276 182.933 78.4518 183.44 77.8017C183.947 77.1516 184.691 76.7288 185.51 76.6259C186.328 76.5231 187.154 76.7486 187.807 77.253C188.459 77.7574 188.885 78.4996 188.99 79.3167L190.521 84.7288C190.565 84.8838 190.575 85.0464 190.55 85.2055C190.525 85.3646 190.467 85.5165 190.378 85.6509C190.289 85.7852 190.172 85.8989 190.035 85.9841C189.898 86.0693 189.745 86.124 189.585 86.1446Z" fill="#0055F1"/>
<path d="M188.003 70.5611C191.385 70.5611 194.127 67.8229 194.127 64.4451C194.127 61.0673 191.385 58.3291 188.003 58.3291C184.62 58.3291 181.878 61.0673 181.878 64.4451C181.878 67.8229 184.62 70.5611 188.003 70.5611Z" fill="#FFB8B8"/>
<path d="M187.68 64.9561L186.914 63.5618C185.461 69.4714 188.027 74.3622 188.027 74.3622L178.069 69.7303L178.164 68.0869L177.178 69.2034L175.763 68.4243L175.576 67.3584L174.507 67.6228L178.408 60.554C182.194 53.8273 187.698 56.3955 187.698 56.3955C196.455 55.9798 195.385 64.6068 195.385 64.6068L187.68 64.9561Z" fill="#2F2E41"/>
<path d="M117.96 110.533C119.372 109.629 117.655 104.438 114.125 98.939C110.594 93.4395 106.587 89.7141 105.175 90.6181C103.763 91.5221 105.48 96.7131 109.011 102.213C112.541 107.712 116.548 111.437 117.96 110.533Z" fill="#3F3D56"/>
</g>
<defs>
<clipPath id="clip0_4029_23016">
<rect width="245" height="190" fill="white"/>
</clipPath>
</defs>
</svg>
