<svg width="245" height="189" viewBox="0 0 245 189" fill="none" xmlns="http://www.w3.org/2000/svg">
<g clip-path="url(#clip0_2893_23443)">
<path d="M177.571 123.022L145.849 106.677C145.371 106.43 145.01 106.003 144.847 105.49C144.683 104.978 144.729 104.421 144.975 103.943L146.937 100.139C147.185 99.6609 147.611 99.3004 148.124 99.1365C148.637 98.9727 149.194 99.0188 149.673 99.2649L181.395 115.61C181.873 115.858 182.234 116.284 182.398 116.797C182.561 117.309 182.515 117.866 182.269 118.345L180.307 122.148C180.185 122.386 180.017 122.596 179.814 122.768C179.61 122.94 179.374 123.07 179.12 123.151C178.919 123.215 178.709 123.248 178.498 123.248C178.175 123.248 177.857 123.171 177.571 123.022Z" fill="#0055F1"/>
<path d="M167.899 107.732C168.15 107.634 168.417 107.587 168.686 107.594C168.955 107.601 169.219 107.662 169.464 107.772L179.86 113.517C180.998 114.145 181.85 115.186 182.242 116.425C182.634 117.663 182.534 119.005 181.964 120.172C181.42 121.288 180.485 122.165 179.337 122.638C178.188 123.11 176.906 123.145 175.734 122.736L164.46 118.798C164.215 118.69 163.995 118.535 163.811 118.343C163.626 118.15 163.482 117.922 163.386 117.674C163.29 117.425 163.243 117.159 163.25 116.893C163.256 116.626 163.315 116.363 163.423 116.12L166.775 108.804C166.833 108.671 166.906 108.545 166.991 108.428C167.22 108.113 167.536 107.871 167.899 107.732Z" fill="#2F2E41"/>
<path d="M191.818 105.977C200.394 105.977 207.346 99.029 207.346 90.4584C207.346 81.8878 200.394 74.9399 191.818 74.9399C183.243 74.9399 176.291 81.8878 176.291 90.4584C176.291 99.029 183.243 105.977 191.818 105.977Z" fill="#0055F1"/>
<path d="M189.913 186.97V151.301C189.914 150.763 190.128 150.247 190.509 149.867C190.889 149.486 191.406 149.272 191.944 149.271H196.226C196.764 149.272 197.281 149.486 197.661 149.867C198.042 150.247 198.256 150.763 198.257 151.301V186.97C198.256 187.508 198.042 188.024 197.661 188.405C197.281 188.785 196.764 188.999 196.226 189H191.944C191.406 188.999 190.889 188.785 190.509 188.405C190.128 188.024 189.914 187.508 189.913 186.97Z" fill="#0055F1"/>
<path d="M180.629 186.97V151.301C180.63 150.763 180.844 150.247 181.224 149.867C181.605 149.486 182.121 149.272 182.66 149.271H186.942C187.48 149.272 187.996 149.486 188.377 149.867C188.758 150.247 188.972 150.763 188.973 151.301V186.97C188.972 187.508 188.758 188.024 188.377 188.405C187.996 188.785 187.48 188.999 186.942 189H182.66C182.121 188.999 181.605 188.785 181.224 188.405C180.844 188.024 180.63 187.508 180.629 186.97Z" fill="#0055F1"/>
<path d="M192.145 96.2101L192.161 95.6302C191.082 95.6002 190.13 95.5325 189.415 95.0104C189.212 94.8539 189.046 94.6557 188.926 94.4291C188.807 94.2025 188.738 93.9529 188.724 93.6973C188.712 93.5411 188.735 93.3842 188.793 93.2386C188.851 93.093 188.942 92.9628 189.059 92.858C189.533 92.4574 190.297 92.587 190.854 92.8422L191.334 93.0622L190.413 86.3379L189.838 86.4166L190.622 92.1365C189.865 91.9142 189.164 92.01 188.684 92.4152C188.5 92.576 188.355 92.7773 188.261 93.0032C188.168 93.2292 188.128 93.4737 188.144 93.7177C188.161 94.0612 188.253 94.3967 188.413 94.7009C188.574 95.0051 188.799 95.2706 189.073 95.4787C189.992 96.1498 191.186 96.1832 192.145 96.2101Z" fill="#2F2E41"/>
<path d="M186.995 86.9097H183.87V87.4896H186.995V86.9097Z" fill="#2F2E41"/>
<path d="M196.859 86.9097H193.734V87.4896H196.859V86.9097Z" fill="#2F2E41"/>
<path d="M206.677 157.204L201.307 121.941C201.227 121.409 201.361 120.866 201.68 120.433C201.999 119.999 202.477 119.71 203.009 119.629L207.242 118.985C207.775 118.904 208.317 119.038 208.751 119.357C209.185 119.676 209.474 120.154 209.556 120.686L214.926 155.949C215.007 156.481 214.873 157.023 214.553 157.457C214.234 157.89 213.756 158.179 213.224 158.261L208.991 158.905C208.727 158.945 208.458 158.933 208.199 158.869C207.94 158.806 207.696 158.692 207.481 158.534C207.266 158.376 207.085 158.177 206.947 157.949C206.809 157.72 206.717 157.467 206.677 157.204Z" fill="#0055F1"/>
<path d="M202.527 134.57C202.3 134.425 202.106 134.236 201.953 134.014C201.801 133.793 201.695 133.543 201.64 133.28L200.184 121.498C200.024 120.209 200.366 118.908 201.139 117.863C201.911 116.819 203.056 116.111 204.336 115.886C205.559 115.671 206.819 115.912 207.876 116.563C208.934 117.214 209.715 118.23 210.073 119.419L213.508 130.85C213.564 131.111 213.568 131.38 213.52 131.643C213.472 131.905 213.373 132.155 213.228 132.379C213.083 132.603 212.896 132.797 212.676 132.948C212.456 133.1 212.209 133.206 211.948 133.262L204.055 134.85C203.914 134.88 203.769 134.896 203.625 134.896C203.235 134.895 202.853 134.782 202.527 134.57Z" fill="#2F2E41"/>
<path d="M202.943 160.058H161.449C161.028 160.058 160.614 159.95 160.246 159.745C159.879 159.54 159.57 159.245 159.349 158.887C159.128 158.529 159.003 158.12 158.985 157.7C158.967 157.28 159.056 156.862 159.245 156.486L179.307 116.613C180.701 113.843 182.99 111.623 185.802 110.314C188.615 109.004 191.787 108.681 194.806 109.397C197.825 110.113 200.514 111.826 202.438 114.259C204.362 116.691 205.409 119.702 205.409 122.803V157.593C205.409 158.247 205.148 158.873 204.686 159.335C204.224 159.797 203.597 160.057 202.943 160.058Z" fill="#2F2E41"/>
<path d="M192.368 77.655C189.19 78.3643 186.509 80.4348 183.313 81.0786C181.856 81.372 180.253 81.36 178.915 80.6435C177.924 80.1059 177.167 79.2223 176.787 78.1616C176.411 77.0768 176.315 75.915 176.506 74.7831C176.697 73.6511 177.169 72.5853 177.88 71.6835C179.674 69.4887 182.534 68.4773 185.279 68.1922C190.771 67.6217 196.412 69.4305 200.883 72.5814C205.498 75.8347 209.039 80.7198 210.227 86.2795C210.862 89.2514 210.799 92.4129 209.715 95.2748C208.673 98.0133 206.62 100.249 203.98 101.522C203.35 101.826 202.692 102.07 202.017 102.252C201.909 102.286 201.819 102.36 201.765 102.459C201.711 102.559 201.697 102.675 201.727 102.783C201.757 102.892 201.828 102.985 201.925 103.043C202.023 103.1 202.138 103.117 202.248 103.091C205.217 102.281 207.778 100.396 209.434 97.8027C211.134 95.0843 211.705 91.7564 211.443 88.5937C210.936 82.4758 207.57 76.8527 202.864 73.0032C198.343 69.3049 192.495 67.0548 186.615 67.2336C183.666 67.3232 180.605 68.0714 178.312 70.0135C177.324 70.8487 176.558 71.9163 176.085 73.1202C175.612 74.3241 175.446 75.6267 175.601 76.9108C175.733 78.1121 176.21 79.2495 176.975 80.1855C177.911 81.2417 179.207 81.9108 180.61 82.0616C184.087 82.514 187.102 80.5443 190.174 79.2781C190.959 78.9478 191.77 78.6854 192.6 78.4938C193.146 78.3719 192.915 77.5331 192.368 77.655Z" fill="#2F2E41"/>
<path d="M201.101 71.5075C199.853 66.837 203.111 61.9761 207.538 60.5175C210.078 59.7271 212.803 59.7575 215.325 60.6044C217.783 61.4358 219.991 62.8763 221.742 64.7916C225.622 68.9172 227.341 74.4855 228.145 79.9755C228.976 85.644 228.507 91.8525 231.409 97.0035C232.612 99.1391 234.398 101.009 236.706 101.929C238.859 102.787 241.438 102.791 243.5 101.676C243.997 101.404 244.456 101.069 244.866 100.679C245.274 100.294 244.658 99.6797 244.25 100.064C242.523 101.693 239.949 102 237.729 101.361C235.308 100.664 233.444 98.8038 232.216 96.6623C230.796 94.1859 230.205 91.3552 229.882 88.5466C229.53 85.4807 229.395 82.3983 228.924 79.3448C228.076 73.8375 226.244 68.3093 222.357 64.1764C220.579 62.2463 218.363 60.7723 215.895 59.879C213.354 58.9698 210.6 58.8308 207.981 59.4797C205.599 60.0961 203.5 61.5068 202.031 63.4782C200.603 65.3493 199.877 67.6617 199.979 70.0127C200.016 70.596 200.111 71.1741 200.262 71.7387C200.296 71.8464 200.37 71.9368 200.469 71.9908C200.568 72.0448 200.685 72.0582 200.794 72.0282C200.902 71.9983 200.995 71.9272 201.053 71.83C201.11 71.7329 201.128 71.6173 201.101 71.5075Z" fill="#2F2E41"/>
<path d="M30.2485 111.055H4.93215C3.62451 111.053 2.37086 110.533 1.44622 109.609C0.52158 108.685 0.00147206 107.432 0 106.125V4.92933C0.00147206 3.62244 0.52158 2.3695 1.44622 1.44539C2.37086 0.521283 3.62451 0.00147122 4.93215 0H73.5995L86.1675 11.2151V31.6057H85.5873V11.4748L73.3781 0.57992H4.93215C3.77835 0.581225 2.67219 1.03988 1.85633 1.85527C1.04048 2.67066 0.581558 3.77619 0.580253 4.92933V106.125C0.581558 107.279 1.04048 108.384 1.85633 109.199C2.67219 110.015 3.77835 110.474 4.93215 110.475H30.2485V111.055Z" fill="#CCCCCC"/>
<path d="M85.8779 11.5984H78.0445C76.7368 11.5969 75.4832 11.0771 74.5585 10.153C73.6339 9.22891 73.1138 7.97597 73.1123 6.66909V0.28996C73.1123 0.213058 73.1429 0.139305 73.1973 0.0849271C73.2517 0.0305491 73.3255 0 73.4024 0C73.4794 0 73.5532 0.0305491 73.6076 0.0849271C73.662 0.139305 73.6926 0.213058 73.6926 0.28996V6.66909C73.6939 7.82222 74.1528 8.92775 74.9686 9.74313C75.7845 10.5585 76.8907 11.0172 78.0445 11.0185H85.8779C85.9548 11.0185 86.0286 11.049 86.083 11.1034C86.1374 11.1578 86.168 11.2315 86.168 11.3084C86.168 11.3854 86.1374 11.4591 86.083 11.5135C86.0286 11.5679 85.9548 11.5984 85.8779 11.5984Z" fill="#CCCCCC"/>
<path d="M76.17 26.2412H10.0212C9.40564 26.2412 8.81528 26.4856 8.38 26.9206C7.94473 27.3557 7.7002 27.9457 7.7002 28.5609C7.7002 29.1761 7.94473 29.7661 8.38 30.2012C8.81528 30.6362 9.40564 30.8806 10.0212 30.8806H76.17C76.7856 30.8806 77.3759 30.6362 77.8112 30.2012C78.2465 29.7661 78.491 29.1761 78.491 28.5609C78.491 27.9457 78.2465 27.3557 77.8112 26.9206C77.3759 26.4856 76.7856 26.2412 76.17 26.2412Z" fill="#E6E6E6"/>
<path d="M42.8055 16.3828H10.0212C9.40564 16.3828 8.81528 16.6272 8.38 17.0622C7.94473 17.4973 7.7002 18.0873 7.7002 18.7025C7.7002 19.3177 7.94473 19.9077 8.38 20.3428C8.81528 20.7778 9.40564 21.0222 10.0212 21.0222H42.8055C43.4211 21.0222 44.0114 20.7778 44.4467 20.3428C44.882 19.9077 45.1265 19.3177 45.1265 18.7025C45.1265 18.0873 44.882 17.4973 44.4467 17.0622C44.0114 16.6272 43.4211 16.3828 42.8055 16.3828Z" fill="#E6E6E6"/>
<path d="M10.0212 45.6689C9.40564 45.6689 8.81528 45.9133 8.38 46.3484C7.94473 46.7834 7.7002 47.3734 7.7002 47.9886C7.7002 48.6038 7.94473 49.1939 8.38 49.6289C8.81528 50.0639 9.40564 50.3083 10.0212 50.3083H30.7536V45.6689H10.0212Z" fill="#E6E6E6"/>
<path d="M10.0212 35.8101C9.71641 35.8101 9.41459 35.8701 9.133 35.9866C8.8514 36.1032 8.59553 36.2741 8.38 36.4895C8.16448 36.7049 7.99351 36.9606 7.87687 37.242C7.76023 37.5235 7.7002 37.8251 7.7002 38.1297C7.7002 38.4344 7.76023 38.736 7.87687 39.0174C7.99351 39.2989 8.16448 39.5546 8.38 39.77C8.59553 39.9854 8.8514 40.1563 9.133 40.2728C9.41459 40.3894 9.71641 40.4494 10.0212 40.4494H30.7536V35.8101H10.0212Z" fill="#E6E6E6"/>
<path d="M30.898 94.8169H12.3183C11.0492 94.8155 9.83238 94.311 8.93494 93.4141C8.0375 92.5171 7.53268 91.301 7.53125 90.0326V65.6759C7.53268 64.4075 8.0375 63.1914 8.93494 62.2945C9.83238 61.3976 11.0492 60.893 12.3183 60.8916H30.898V94.8169Z" fill="#E6E6E6"/>
<path d="M60.8569 142.226H35.5405C34.2329 142.224 32.9793 141.704 32.0546 140.78C31.13 139.856 30.6099 138.603 30.6084 137.296V36.1002C30.6099 34.7933 31.13 33.5404 32.0546 32.6163C32.9793 31.6922 34.2329 31.1724 35.5405 31.1709H104.208L116.776 42.386V61.6167H116.196V42.6457L103.987 31.7508H35.5405C34.3868 31.7521 33.2806 32.2108 32.4647 33.0262C31.6489 33.8416 31.19 34.9471 31.1887 36.1002V137.296C31.19 138.449 31.6489 139.555 32.4647 140.37C33.2806 141.186 34.3868 141.644 35.5405 141.646H60.8569V142.226Z" fill="#CCCCCC"/>
<path d="M116.485 42.7693H108.652C107.344 42.7678 106.091 42.248 105.166 41.3239C104.241 40.3998 103.721 39.1469 103.72 37.84V31.4609C103.72 31.384 103.75 31.3102 103.805 31.2558C103.859 31.2014 103.933 31.1709 104.01 31.1709C104.087 31.1709 104.161 31.2014 104.215 31.2558C104.269 31.3102 104.3 31.384 104.3 31.4609V37.84C104.301 38.9931 104.76 40.0986 105.576 40.914C106.392 41.7294 107.498 42.1881 108.652 42.1894H116.485C116.562 42.1894 116.636 42.2199 116.69 42.2743C116.745 42.3287 116.775 42.4024 116.775 42.4793C116.775 42.5562 116.745 42.63 116.69 42.6844C116.636 42.7388 116.562 42.7693 116.485 42.7693Z" fill="#CCCCCC"/>
<path d="M106.778 57.4121H40.6296C40.014 57.4121 39.4237 57.6565 38.9884 58.0915C38.5531 58.5266 38.3086 59.1166 38.3086 59.7318C38.3086 60.347 38.5531 60.937 38.9884 61.3721C39.4237 61.8071 40.014 62.0515 40.6296 62.0515H106.778C107.394 62.0515 107.984 61.8071 108.42 61.3721C108.855 60.937 109.099 60.347 109.099 59.7318C109.099 59.1166 108.855 58.5266 108.42 58.0915C107.984 57.6565 107.394 57.4121 106.778 57.4121Z" fill="#E6E6E6"/>
<path d="M73.4139 47.5532H40.6296C40.014 47.5532 39.4237 47.7976 38.9884 48.2326C38.5531 48.6677 38.3086 49.2577 38.3086 49.8729C38.3086 50.4881 38.5531 51.0781 38.9884 51.5132C39.4237 51.9482 40.014 52.1926 40.6296 52.1926H73.4139C74.0295 52.1926 74.6198 51.9482 75.0551 51.5132C75.4904 51.0781 75.7349 50.4881 75.7349 49.8729C75.7349 49.2577 75.4904 48.6677 75.0551 48.2326C74.6198 47.7976 74.0295 47.5532 73.4139 47.5532Z" fill="#E6E6E6"/>
<path d="M106.778 57.4121H40.6296C40.014 57.4121 39.4237 57.6565 38.9884 58.0915C38.5531 58.5266 38.3086 59.1166 38.3086 59.7318C38.3086 60.347 38.5531 60.937 38.9884 61.3721C39.4237 61.8071 40.014 62.0515 40.6296 62.0515H106.778C107.394 62.0515 107.984 61.8071 108.42 61.3721C108.855 60.937 109.099 60.347 109.099 59.7318C109.099 59.1166 108.855 58.5266 108.42 58.0915C107.984 57.6565 107.394 57.4121 106.778 57.4121Z" fill="#E6E6E6"/>
<path d="M73.4139 47.5532H40.6296C40.014 47.5532 39.4237 47.7976 38.9884 48.2326C38.5531 48.6677 38.3086 49.2577 38.3086 49.8729C38.3086 50.4881 38.5531 51.0781 38.9884 51.5132C39.4237 51.9482 40.014 52.1926 40.6296 52.1926H73.4139C74.0295 52.1926 74.6198 51.9482 75.0551 51.5132C75.4904 51.0781 75.7349 50.4881 75.7349 49.8729C75.7349 49.2577 75.4904 48.6677 75.0551 48.2326C74.6198 47.7976 74.0295 47.5532 73.4139 47.5532Z" fill="#E6E6E6"/>
<path d="M40.6296 76.8394C40.014 76.8394 39.4237 77.0838 38.9884 77.5188C38.5531 77.9538 38.3086 78.5438 38.3086 79.159C38.3086 79.7743 38.5531 80.3643 38.9884 80.7993C39.4237 81.2343 40.014 81.4787 40.6296 81.4787H61.362V76.8394H40.6296Z" fill="#E6E6E6"/>
<path d="M40.6296 66.981C40.014 66.981 39.4237 67.2254 38.9884 67.6604C38.5531 68.0954 38.3086 68.6854 38.3086 69.3006C38.3086 69.9159 38.5531 70.5059 38.9884 70.9409C39.4237 71.3759 40.014 71.6203 40.6296 71.6203H61.362V66.981H40.6296Z" fill="#E6E6E6"/>
<path d="M40.6296 76.8394C40.014 76.8394 39.4237 77.0838 38.9884 77.5188C38.5531 77.9538 38.3086 78.5438 38.3086 79.159C38.3086 79.7743 38.5531 80.3643 38.9884 80.7993C39.4237 81.2343 40.014 81.4787 40.6296 81.4787H61.362V76.8394H40.6296Z" fill="#E6E6E6"/>
<path d="M40.6296 66.981C40.014 66.981 39.4237 67.2254 38.9884 67.6604C38.5531 68.0954 38.3086 68.6854 38.3086 69.3006C38.3086 69.9159 38.5531 70.5059 38.9884 70.9409C39.4237 71.3759 40.014 71.6203 40.6296 71.6203H61.362V66.981H40.6296Z" fill="#E6E6E6"/>
<path d="M61.5064 125.988H42.9267C41.6576 125.986 40.4408 125.482 39.5433 124.585C38.6459 123.688 38.1411 122.472 38.1396 121.204V96.8468C38.1411 95.5784 38.6459 94.3623 39.5433 93.4654C40.4408 92.5685 41.6576 92.0639 42.9267 92.0625H61.5064V125.988Z" fill="#E6E6E6"/>
<path d="M63.1429 62.6312C62.4218 63.071 61.826 63.6887 61.4124 64.425C60.9989 65.1612 60.7815 65.9913 60.7813 66.8356V67.5605H61.3615V66.8356C61.3627 65.8767 61.6803 64.945 62.2652 64.1848C62.85 63.4247 63.6694 62.8786 64.5964 62.6312H63.1429ZM134.381 61.9062H65.7134C64.4058 61.9078 63.1522 62.4276 62.2275 63.3517C61.3029 64.2758 60.7828 65.5287 60.7813 66.8356V168.032C60.7831 169.338 61.3033 170.591 62.2279 171.515C63.1525 172.439 64.4059 172.959 65.7134 172.961H142.017C143.324 172.959 144.578 172.439 145.502 171.515C146.427 170.591 146.947 169.338 146.949 168.032V73.1219L134.381 61.9062ZM146.369 168.032C146.367 169.185 145.908 170.29 145.092 171.106C144.276 171.921 143.17 172.38 142.017 172.381H65.7134C64.5596 172.38 63.4535 171.921 62.6377 171.106C61.8219 170.29 61.3629 169.185 61.3615 168.032L61.3615 66.8356C61.3627 65.8767 61.6803 64.945 62.2652 64.1848C62.85 63.4247 63.6694 62.8786 64.5964 62.6312C64.9608 62.5341 65.3363 62.4854 65.7134 62.4862H134.16L146.369 73.38V168.032ZM63.1429 62.6312C62.4218 63.071 61.826 63.6887 61.4124 64.425C60.9989 65.1612 60.7815 65.9913 60.7813 66.8356V67.5605H61.3615V66.8356C61.3627 65.8767 61.6803 64.945 62.2652 64.1848C62.85 63.4247 63.6694 62.8786 64.5964 62.6312H63.1429Z" fill="#3F3D56"/>
<path d="M146.659 73.5047H138.826C137.518 73.5032 136.264 72.9834 135.34 72.0593C134.415 71.1352 133.895 69.8822 133.894 68.5753V62.1962C133.894 62.1193 133.924 62.0456 133.979 61.9912C134.033 61.9368 134.107 61.9062 134.184 61.9062C134.261 61.9062 134.334 61.9368 134.389 61.9912C134.443 62.0456 134.474 62.1193 134.474 62.1962V68.5753C134.475 69.7285 134.934 70.834 135.75 71.6494C136.566 72.4648 137.672 72.9234 138.826 72.9247H146.659C146.736 72.9247 146.81 72.9553 146.864 73.0097C146.919 73.064 146.949 73.1378 146.949 73.2147C146.949 73.2916 146.919 73.3654 146.864 73.4197C146.81 73.4741 146.736 73.5047 146.659 73.5047Z" fill="#3F3D56"/>
<path d="M136.951 92.7873H70.8025C70.1869 92.7873 69.5965 92.5429 69.1613 92.1079C68.726 91.6729 68.4814 91.0828 68.4814 90.4676C68.4814 89.8524 68.726 89.2624 69.1613 88.8274C69.5965 88.3924 70.1869 88.1479 70.8025 88.1479H136.951C137.567 88.1479 138.157 88.3924 138.592 88.8274C139.028 89.2624 139.272 89.8524 139.272 90.4676C139.272 91.0828 139.028 91.6729 138.592 92.1079C138.157 92.5429 137.567 92.7873 136.951 92.7873Z" fill="#CCCCCC"/>
<path d="M103.587 82.9284H70.8025C70.1869 82.9284 69.5965 82.684 69.1613 82.249C68.726 81.814 68.4814 81.224 68.4814 80.6087C68.4814 79.9935 68.726 79.4035 69.1613 78.9685C69.5965 78.5335 70.1869 78.2891 70.8025 78.2891H103.587C104.202 78.2891 104.793 78.5335 105.228 78.9685C105.663 79.4035 105.908 79.9935 105.908 80.6087C105.908 81.224 105.663 81.814 105.228 82.249C104.793 82.684 104.202 82.9284 103.587 82.9284Z" fill="#CCCCCC"/>
<path d="M136.951 112.215H70.8025C70.1869 112.215 69.5965 111.97 69.1613 111.535C68.726 111.1 68.4814 110.51 68.4814 109.895C68.4814 109.28 68.726 108.69 69.1613 108.255C69.5965 107.82 70.1869 107.575 70.8025 107.575H136.951C137.567 107.575 138.157 107.82 138.592 108.255C139.028 108.69 139.272 109.28 139.272 109.895C139.272 110.51 139.028 111.1 138.592 111.535C138.157 111.97 137.567 112.215 136.951 112.215Z" fill="#CCCCCC"/>
<path d="M103.587 102.356H70.8025C70.1869 102.356 69.5965 102.112 69.1613 101.677C68.726 101.242 68.4814 100.652 68.4814 100.036C68.4814 99.4213 68.726 98.8312 69.1613 98.3962C69.5965 97.9612 70.1869 97.7168 70.8025 97.7168H103.587C104.202 97.7168 104.793 97.9612 105.228 98.3962C105.663 98.8312 105.908 99.4213 105.908 100.036C105.908 100.652 105.663 101.242 105.228 101.677C104.793 102.112 104.202 102.356 103.587 102.356Z" fill="#CCCCCC"/>
<path d="M134.606 156.724H73.0996C71.8304 156.722 70.6136 156.218 69.7162 155.321C68.8187 154.424 68.3139 153.208 68.3125 151.939V127.583C68.3139 126.314 68.8187 125.098 69.7162 124.201C70.6136 123.304 71.8304 122.8 73.0996 122.798H134.606C135.876 122.8 137.092 123.304 137.99 124.201C138.887 125.098 139.392 126.314 139.393 127.583V151.939C139.392 153.208 138.887 154.424 137.99 155.321C137.092 156.218 135.876 156.722 134.606 156.724Z" fill="#0055F1"/>
</g>
<defs>
<clipPath id="clip0_2893_23443">
<rect width="245" height="189" fill="white"/>
</clipPath>
</defs>
</svg>
