<svg width="245" height="181" viewBox="0 0 245 181" fill="none" xmlns="http://www.w3.org/2000/svg">
<g clip-path="url(#clip0_1561_6485)">
<path opacity="0.1" d="M2.63672 86.7773C6.50542 101.752 14.6883 114.697 27.6196 120.972C54.5023 134.012 115.13 127.287 160.378 119.566C183.784 115.573 204.357 104.554 219.302 89.046L2.63672 86.7773Z" fill="#0055F1"/>
<path opacity="0.1" d="M239.917 16.2897H215.09C213.912 16.2897 212.945 15.4153 212.945 14.3468C212.945 13.2783 213.912 12.4017 215.09 12.4017H219.384C218.204 12.4017 217.24 11.5272 217.24 10.4565C217.24 9.38576 218.204 8.51357 219.384 8.51357H216.32C215.139 8.51357 214.173 7.63914 214.173 6.56841C214.173 5.49768 215.139 4.62548 216.32 4.62548H229.278C226.402 3.41422 223.042 2.55318 219.168 2.10035C183.833 -2.0108 171.218 0.708401 166.768 3.50345C161.222 7.03071 155.06 9.47819 148.607 10.7175C126.807 14.7929 86.0378 19.696 49.0858 9.156C30.72 3.9072 17.0693 12.7653 8.88867 27.5725H244.229C243.922 23.2695 243.002 19.2945 241.314 15.8168C240.914 16.126 240.422 16.2925 239.917 16.2897Z" fill="#0055F1"/>
<path opacity="0.1" d="M0.532342 55.5215C-0.421257 64.2305 -0.0971002 73.0323 1.49451 81.6473L219.469 88.8725C225.47 82.6396 230.568 75.595 234.614 67.9442L0.532342 55.5215ZM86.744 74.1589H82.4522C83.6326 74.1589 84.5992 75.0355 84.5992 76.104C84.5992 77.1725 83.6326 78.0469 82.4522 78.0469H57.6252C56.447 78.0469 55.4804 77.1725 55.4804 76.104C55.4804 75.0355 56.447 74.1589 57.6252 74.1589H61.9193C60.7389 74.1589 59.7745 73.2844 59.7745 72.2159C59.7745 71.1474 60.7389 70.2708 61.9193 70.2708H58.8524C57.672 70.2708 56.7054 69.3963 56.7054 68.3278C56.7054 67.2593 57.672 66.3827 58.8524 66.3827H83.6794C84.8598 66.3827 85.8242 67.2571 85.8242 68.3278C85.8242 69.3986 84.8598 70.2708 83.6794 70.2708H86.744C87.9245 70.2708 88.8889 71.1452 88.8889 72.2159C88.8889 73.2867 87.9245 74.1589 86.744 74.1589Z" fill="#0055F1"/>
<path opacity="0.1" d="M244.238 27.707L6.26296 32.9491C3.36756 39.6925 1.44769 47.317 0.563477 55.2181H240.069C241.628 50.5955 242.784 45.8465 243.526 41.0242C244.24 36.3822 244.526 31.8918 244.238 27.707ZM48.881 44.8945H44.5892C45.7696 44.8945 46.7362 45.7711 46.7362 46.8396C46.7362 47.9081 45.7696 48.7848 44.5892 48.7848H19.7622C18.584 48.7848 17.6174 47.9081 17.6174 46.8396C17.6174 45.7711 18.584 44.8945 19.7622 44.8945H24.0563C22.8759 44.8945 21.9115 44.02 21.9115 42.9515C21.9115 41.883 22.8759 41.0064 24.0563 41.0064H20.9894C19.809 41.0064 18.8424 40.1319 18.8424 39.0634C18.8424 37.995 19.809 37.1183 20.9894 37.1183H45.8164C46.9968 37.1183 47.9612 37.9927 47.9612 39.0634C47.9612 40.1342 46.9968 41.0064 45.8164 41.0064H48.881C50.0615 41.0064 51.0259 41.883 51.0259 42.9515C51.0259 44.02 50.0615 44.8945 48.881 44.8945Z" fill="#0055F1"/>
<path opacity="0.1" d="M121.402 174.234C176.384 174.234 220.955 170.127 220.955 165.061C220.955 159.995 176.384 155.889 121.402 155.889C66.4209 155.889 21.8496 159.995 21.8496 165.061C21.8496 170.127 66.4209 174.234 121.402 174.234Z" fill="#0055F1"/>
<path d="M222.866 89.2993C222.865 89.2837 222.865 89.2681 222.866 89.2525C222.866 89.228 222.866 89.2057 222.866 89.1833C222.821 88.9279 222.725 88.6842 222.583 88.4673C222.073 87.6503 221.363 86.9775 220.52 86.5132C219.05 85.7057 217.03 85.36 216.442 83.8186C216.262 83.3412 216.257 82.8214 216.168 82.3218C216.013 81.5432 215.655 80.8195 215.131 80.2232C214.608 79.6269 213.937 79.1789 213.186 78.9244C212.487 78.6902 211.732 78.6255 211.052 78.3355C209.533 77.6886 208.732 76.0937 208.052 74.6192C207.173 72.7157 206.294 70.8114 205.415 68.9064C204.747 69.2433 203.883 69.0849 203.257 68.6633C202.654 68.2136 202.174 67.6191 201.861 66.9345C200.954 65.1723 200.564 63.1758 199.5 61.4983C198.435 59.8208 196.308 58.4958 194.428 59.2252C194.061 59.4089 193.682 59.5662 193.292 59.6959C191.682 60.0729 189.9 58.2304 188.522 59.1249C188.293 59.272 188.106 59.4765 187.981 59.7182C187.979 59.7034 187.979 59.6885 187.981 59.6736C187.801 60.0365 187.701 60.4334 187.687 60.838C187.687 60.9206 187.687 61.0009 187.687 61.0789C187.687 61.0923 187.687 61.1057 187.687 61.1191C187.687 61.4403 187.707 61.766 187.711 62.0917C187.716 62.3652 187.695 62.6385 187.649 62.9081V62.8858C187.623 63.0375 187.584 63.1867 187.533 63.3319C187.174 64.2956 186.181 64.9269 185.715 65.8325V65.7879C185.663 65.8864 185.618 65.9886 185.58 66.0935C185.497 66.3309 185.454 66.5804 185.453 66.8319C185.413 68.5339 187.214 70.1355 187.424 71.9625C187.573 73.2563 187.869 73.6712 188.967 74.4028L189.208 74.5634C189.112 74.5634 189.014 74.5768 188.905 74.5791C188.862 74.5798 188.82 74.5843 188.778 74.5924C188.584 74.539 188.381 74.5293 188.183 74.564C187.985 74.5987 187.797 74.677 187.633 74.7932C186.791 75.4624 184.8 74.9471 183.916 74.7932C183.032 74.6393 180.003 75.0542 179.579 76.7361C179.156 78.4181 178.43 81.889 178.43 81.889C178.43 81.889 178.43 84.0907 178.161 84.5011C178.15 84.53 178.15 84.5615 178.161 84.5904C178.161 85.2083 178.183 88.9224 177.586 89.8793C177.439 90.1024 177.45 90.5954 177.559 91.2021C176.931 92.0119 176.341 92.9577 176.446 93.5778C176.637 94.8471 179.207 98.8378 182.891 96.7008C182.891 96.7008 184.987 92.8617 182.35 90.8207L182.464 90.3745C183.261 91.356 183.851 92.0609 183.851 92.0609C183.851 92.0609 183.882 92.1435 183.931 92.284H183.851C184.195 93.222 184.404 94.2046 184.47 95.2017C184.46 95.5673 184.394 95.9292 184.274 96.2747H184.343C184.323 96.3505 184.301 96.4264 184.274 96.4978C184.145 96.8745 183.903 97.2023 183.582 97.4369C181.74 98.7441 179.631 108.079 179.631 108.079C179.631 108.079 175.452 123.17 174.617 124.029C173.927 124.734 178.265 126.719 181.522 126.483C181.976 126.456 182.425 126.37 182.858 126.228C182.878 126.451 182.9 126.674 182.922 126.877C182.992 127.547 183.063 128.167 183.107 128.361C183.223 128.847 183.453 133.813 183.453 133.813C183.453 133.813 182.983 137.038 183.096 139.282C183.096 139.436 183.116 139.583 183.13 139.728L182.724 139.791C182.11 141.174 184.642 152.713 184.987 153.684C185.216 154.448 185.345 155.239 185.37 156.037C185.37 156.037 185.148 156.858 185.332 157.306C185.448 157.58 185.523 157.87 185.555 158.165C185.555 158.165 185.404 158.91 185.633 159.396C185.862 159.883 185.595 160.735 185.595 160.735C185.595 160.735 185.519 164.096 184.829 165.926C184.641 166.418 184.586 166.951 184.67 167.471C184.754 167.992 184.974 168.48 185.308 168.888C185.356 168.952 185.408 169.012 185.464 169.069C185.464 169.069 189.272 169.1 189.943 169.069H190.03C190.299 169.031 190.99 166.006 190.375 164.549C189.76 163.093 190.299 161.299 190.299 161.299V158.649C190.299 158.649 190.99 158.011 190.299 156.641C189.609 155.272 189.722 154.857 189.722 154.857C189.722 154.857 190.491 152.653 189.684 151.944C188.878 151.234 189.838 148.544 189.838 148.544L190.11 139.577C189.968 139.53 189.822 139.493 189.675 139.465C189.66 139.318 189.644 139.166 189.629 139.006C189.471 137.382 189.335 135.173 189.687 134.544C190.038 133.915 190.208 128.423 190.263 124.607L193.774 124.74C193.847 126.525 193.925 128.153 193.974 128.361C194.09 128.847 194.321 133.813 194.321 133.813C194.321 133.813 193.849 137.038 193.963 139.282C193.963 139.436 193.983 139.583 193.996 139.728L193.591 139.791C192.976 141.174 195.509 152.713 195.854 153.684C196.083 154.448 196.212 155.239 196.239 156.037C196.239 156.037 196.016 156.858 196.199 157.306C196.314 157.58 196.389 157.87 196.422 158.165C196.422 158.165 196.27 158.91 196.5 159.396C196.729 159.883 196.462 160.735 196.462 160.735C196.462 160.735 196.386 164.096 195.696 165.926C195.511 166.419 195.459 166.952 195.546 167.471C195.633 167.991 195.855 168.478 196.19 168.883C196.238 168.947 196.29 169.007 196.346 169.064C196.346 169.064 200.155 169.095 200.825 169.064H200.912C201.181 169.026 201.872 166.001 201.257 164.545C200.642 163.088 201.181 161.295 201.181 161.295V158.649C201.181 158.649 201.872 158.011 201.181 156.641C200.491 155.272 200.604 154.857 200.604 154.857C200.604 154.857 201.373 152.653 200.567 151.944C199.76 151.234 200.72 148.544 200.72 148.544L200.996 139.577C200.851 139.53 200.702 139.492 200.551 139.465C200.535 139.318 200.52 139.166 200.504 139.006C200.346 137.382 200.21 135.173 200.562 134.544C200.845 134.029 201.008 130.71 201.081 127.469C201.081 127.246 201.081 127.022 201.099 126.799C202.712 126.732 204.318 126.552 205.905 126.26C205.905 126.26 204.028 119.61 204.602 118.528C204.85 118.062 204.493 115.579 204.005 112.904C204.686 113.456 205.531 113.762 206.406 113.774C207.246 115.392 209.801 119.112 211.24 119.686C212.928 120.355 211.66 114.421 210.856 113.563C210.476 113.094 210.156 112.579 209.903 112.03C209.925 112.003 209.95 111.981 209.972 111.956C209.995 111.932 210.012 105.644 209.627 105.757C209.242 105.871 208.783 104.823 208.783 104.823L207.594 94.3675L207.095 89.9909C207.511 90.2987 208.006 90.495 208.431 90.8006C209.589 91.6505 209.968 93.1428 210.476 94.4634C210.894 95.5497 211.482 96.6271 212.447 97.3097C213.411 97.9923 214.825 98.173 215.788 97.4815C216.678 96.8324 216.941 95.6613 217.137 94.5928C218.754 95.1616 220.716 93.6403 220.507 91.9784C220.456 91.5679 220.304 91.1196 220.518 90.7604C220.946 90.0511 222.3 90.4638 222.745 89.7633C222.82 89.6422 222.859 89.5021 222.857 89.3596C222.863 89.3283 222.866 89.315 222.866 89.2993ZM201.237 95.0501C201.213 95.4493 201.76 98.6571 202.206 101.196C201.841 99.614 201.108 97.9254 199.665 96.7677C199.665 96.7677 199.665 96.6874 199.647 96.5446H199.665C199.665 96.5446 199.604 95.9066 199.596 94.9987C199.598 94.194 199.658 93.3904 199.774 92.5941V92.574H199.745C199.745 92.5071 199.763 92.4379 199.774 92.371C199.862 91.699 200.044 91.0427 200.315 90.4214C200.435 90.1779 200.572 89.9437 200.727 89.7209C200.965 91.878 201.259 94.6463 201.237 95.0501ZM202.435 102.483C202.631 103.578 202.772 104.348 202.772 104.348L203.954 112.481V112.519C203.317 109.086 202.504 105.467 202.504 105.467C202.587 104.473 202.564 103.472 202.435 102.483Z" fill="url(#paint0_linear_1561_6485)"/>
<path d="M187.941 72.4071C187.718 70.346 185.491 68.5681 186.159 66.6073C186.522 65.5388 187.658 64.8852 188.041 63.8234C188.295 63.123 188.181 62.3534 188.183 61.6084C188.186 60.8633 188.359 60.0313 188.978 59.6186C190.315 58.7263 192.034 60.5622 193.593 60.1874C193.97 60.0583 194.337 59.9017 194.691 59.719C196.511 58.994 198.569 60.3146 199.591 61.9831C200.613 63.6517 200.997 65.6414 201.874 67.3948C202.174 68.0718 202.638 68.6631 203.224 69.1146C203.83 69.534 204.658 69.6924 205.313 69.3578L207.863 75.046C208.531 76.5116 209.297 78.0998 210.759 78.7445C211.413 79.0322 212.144 79.0969 212.821 79.3312C213.557 79.5911 214.212 80.0401 214.72 80.6332C215.228 81.2263 215.572 81.9427 215.716 82.7106C215.803 83.2103 215.805 83.7278 215.981 84.203C216.549 85.7377 218.503 86.0812 219.926 86.8798C220.749 87.3448 221.439 88.0138 221.93 88.8227C222.153 89.2086 222.345 89.715 222.106 90.0942C221.676 90.7902 220.369 90.3797 219.955 91.0869C219.745 91.4438 219.892 91.8899 219.955 92.3004C220.157 93.9533 218.258 95.4679 216.694 94.9013C216.505 95.9654 216.249 97.132 215.389 97.7767C214.465 98.4682 213.095 98.2853 212.162 97.6072C211.228 96.929 210.663 95.8561 210.257 94.7742C209.765 93.4581 209.398 91.9724 208.277 91.127C207.872 90.8236 207.386 90.6273 206.99 90.3217C206.099 89.6392 205.654 88.5127 205.335 87.4219C204.923 86.0611 204.596 84.6625 203.999 83.3776C203.402 82.0927 202.458 80.8971 201.164 80.3104C199.95 79.7639 198.551 79.7996 197.297 79.3557C195.139 78.5928 193.542 76.7748 191.395 75.9182C190.709 75.6293 190.058 75.2609 189.457 74.8207C188.377 74.1091 188.083 73.6965 187.941 72.4071Z" fill="#3F3D56"/>
<g opacity="0.1">
<path d="M188.141 63.3877C188.187 63.3004 188.227 63.2103 188.261 63.1178C188.513 62.4173 188.401 61.6477 188.403 60.9027C188.403 60.6542 188.426 60.4063 188.472 60.1621C188.267 60.6029 188.167 61.0856 188.181 61.5719C188.178 62.172 188.25 62.801 188.141 63.3877Z" fill="black"/>
<path d="M215.598 97.0784C214.674 97.7676 213.304 97.5869 212.371 96.9066C211.438 96.2262 210.87 95.1577 210.476 94.0714C209.983 92.7553 209.618 91.2696 208.496 90.4242C208.093 90.1208 207.605 89.9223 207.211 89.6189C206.32 88.9364 205.874 87.8099 205.554 86.7302C205.141 85.3695 204.816 83.9708 204.217 82.686C203.618 81.4011 202.678 80.2055 201.382 79.6188C200.17 79.0723 198.772 79.108 197.518 78.664C195.357 77.9012 193.76 76.0831 191.615 75.2266C190.929 74.9368 190.278 74.5685 189.676 74.1291C188.62 73.3996 188.339 72.987 188.183 71.6999C187.961 69.7681 186.001 68.0839 186.306 66.2637C186.256 66.3621 186.212 66.4634 186.174 66.567C185.506 68.5301 187.733 70.3079 187.956 72.3668C188.101 73.6539 188.402 74.0666 189.448 74.796C190.051 75.2355 190.702 75.6037 191.388 75.8935C193.533 76.7501 195.13 78.5704 197.29 79.331C198.544 79.7772 199.943 79.7392 201.155 80.2858C202.451 80.8724 203.382 82.0703 203.99 83.353C204.598 84.6356 204.923 86.0298 205.326 87.3972C205.654 88.4768 206.084 89.6033 206.983 90.2859C207.387 90.5893 207.874 90.7878 208.269 91.0912C209.382 91.9366 209.756 93.4223 210.249 94.7384C210.654 95.8202 211.222 96.891 212.155 97.5691C213.088 98.2472 214.458 98.4302 215.382 97.7409C215.973 97.2947 216.273 96.6144 216.471 95.8849C216.295 96.3554 215.993 96.7683 215.598 97.0784Z" fill="black"/>
<path d="M220.176 90.3887C220.091 90.5487 220.053 90.73 220.069 90.9107C220.572 90.4132 221.708 90.7054 222.105 90.0652C222.197 89.907 222.233 89.7223 222.207 89.541C221.69 90.0318 220.554 89.7395 220.176 90.3887Z" fill="black"/>
<path d="M216.904 94.2022C216.861 94.4253 216.819 94.664 216.766 94.896C218.129 95.322 219.703 94.2268 219.926 92.8438C219.385 93.9078 218.049 94.6194 216.904 94.2022Z" fill="black"/>
</g>
<path d="M190.818 73.4812C190.818 73.4812 191.56 74.9802 189.37 75.0115C187.181 75.0427 190.78 84.7462 190.78 84.7462L194.42 89.386L198.948 86.9323L199.208 80.1644L199.542 76.0755C199.542 76.0755 195.31 74.6992 196.09 72.8789C196.869 71.0587 190.818 73.4812 190.818 73.4812Z" fill="#FBBEBE"/>
<path d="M203.961 113.045C203.961 113.045 206.634 115.679 209.752 112.184L207.357 109.639H204.328L203.961 113.045Z" fill="#575A89"/>
<path opacity="0.1" d="M204.25 109.639L203.883 113.045C203.883 113.045 206.555 115.679 209.674 112.184" fill="black"/>
<path d="M208.747 110.102C208.747 110.102 209.823 112.928 210.603 113.782C211.382 114.637 212.607 120.548 210.974 119.879C209.342 119.209 206.224 114.228 206.037 113.374C205.85 112.52 205.778 110.102 205.778 110.102H208.747Z" fill="#FBBEBE"/>
<path d="M185.399 124.602L199.801 125.16L198.13 119.061L190.876 118.914L185.399 124.602Z" fill="#575A89"/>
<path opacity="0.1" d="M187.401 124.602L201.805 125.16L200.134 119.061L192.878 118.914L187.401 124.602Z" fill="black"/>
<path d="M190.112 134.669C189.771 135.304 189.902 137.504 190.056 139.13C190.154 140.165 190.261 140.961 190.261 140.961C190.261 140.961 184.878 142.634 184.062 141.184C183.855 140.816 183.753 140.172 183.717 139.415C183.606 137.185 184.062 133.97 184.062 133.97C184.062 133.97 183.84 129.027 183.728 128.543C183.684 128.349 183.615 127.733 183.548 127.066C183.45 126.076 183.356 124.974 183.356 124.974L190.706 121.07C190.706 121.07 190.706 121.802 190.693 122.928C190.653 126.466 190.535 133.888 190.112 134.669Z" fill="#FBBEBE"/>
<path opacity="0.1" d="M190.261 140.961C190.261 140.961 184.878 142.634 184.063 141.185C183.856 140.816 183.753 140.172 183.718 139.416C184.831 139.246 188.221 138.778 190.056 139.13C190.154 140.165 190.261 140.961 190.261 140.961Z" fill="black"/>
<path d="M190.447 169.068H190.362C189.714 169.092 186.03 169.068 186.03 169.068C185.976 169.011 185.925 168.952 185.879 168.889C185.553 168.481 185.338 167.995 185.254 167.48C185.17 166.964 185.22 166.435 185.4 165.945C186.068 164.122 186.141 160.776 186.141 160.776C186.141 160.776 186.402 159.922 186.179 159.438C185.956 158.954 186.103 158.211 186.103 158.211C186.069 157.917 185.994 157.63 185.881 157.356C185.696 156.91 185.919 156.092 185.919 156.092C185.893 155.298 185.768 154.512 185.547 153.749C185.213 152.784 182.763 141.296 183.357 139.919C183.357 139.919 188.553 139.027 190.522 139.696L190.262 148.619C190.262 148.619 189.333 151.296 190.112 152.003C190.892 152.71 190.15 154.903 190.15 154.903C190.15 154.903 190.039 155.311 190.707 156.687C191.375 158.064 190.707 158.695 190.707 158.695V161.334C190.707 161.334 190.188 163.118 190.781 164.568C191.373 166.018 190.707 169.021 190.447 169.068Z" fill="#3F3D56"/>
<path d="M200.645 134.669C200.304 135.305 200.435 137.505 200.589 139.131C200.687 140.166 200.794 140.962 200.794 140.962C200.794 140.962 195.411 142.635 194.596 141.185C194.389 140.817 194.286 140.173 194.25 139.416C194.139 137.186 194.596 133.971 194.596 133.971C194.596 133.971 194.373 129.028 194.262 128.544C194.201 128.283 194.097 125.794 194.014 123.561C193.945 121.656 193.89 119.934 193.89 119.934L201.24 121.071C201.24 121.071 201.24 124.308 201.148 127.634C201.068 130.859 200.919 134.165 200.645 134.669Z" fill="#FBBEBE"/>
<path opacity="0.1" d="M200.794 140.961C200.794 140.961 195.41 142.634 194.595 141.185C194.388 140.816 194.286 140.172 194.25 139.416C195.364 139.246 198.753 138.778 200.589 139.13C200.687 140.165 200.794 140.961 200.794 140.961Z" fill="black"/>
<path d="M200.979 169.069H200.894C200.246 169.093 196.562 169.069 196.562 169.069C196.508 169.012 196.458 168.953 196.411 168.89C196.085 168.482 195.87 167.997 195.786 167.481C195.702 166.965 195.752 166.436 195.932 165.946C196.6 164.114 196.667 160.768 196.667 160.768C196.667 160.768 196.927 159.914 196.705 159.43C196.482 158.946 196.629 158.203 196.629 158.203C196.595 157.909 196.52 157.622 196.406 157.349C196.221 156.903 196.444 156.084 196.444 156.084C196.419 155.291 196.294 154.504 196.072 153.742C195.738 152.776 193.288 141.288 193.883 139.911C193.883 139.911 199.079 139.019 201.048 139.688L200.787 148.611C200.787 148.611 199.858 151.288 200.638 151.995C201.417 152.702 200.676 154.895 200.676 154.895C200.676 154.895 200.564 155.303 201.233 156.679C201.901 158.056 201.233 158.687 201.233 158.687V161.326C201.233 161.326 200.714 163.111 201.306 164.56C201.898 166.01 201.239 169.022 200.979 169.069Z" fill="#3F3D56"/>
<path opacity="0.1" d="M193.713 75.2342C196.604 75.2342 198.947 72.8872 198.947 69.9921C198.947 67.097 196.604 64.75 193.713 64.75C190.823 64.75 188.479 67.097 188.479 69.9921C188.479 72.8872 190.823 75.2342 193.713 75.2342Z" fill="black"/>
<path d="M193.713 75.0116C196.604 75.0116 198.947 72.6646 198.947 69.7695C198.947 66.8743 196.604 64.5273 193.713 64.5273C190.823 64.5273 188.479 66.8743 188.479 69.7695C188.479 72.6646 190.823 75.0116 193.713 75.0116Z" fill="#FBBEBE"/>
<path opacity="0.1" d="M183.356 124.974L190.706 121.07C190.706 121.07 190.706 121.802 190.693 122.928C189.619 123.571 188 124.537 186.443 125.449C185.597 125.947 184.771 126.428 184.062 126.832C183.898 126.922 183.726 126.996 183.548 127.055C183.45 126.076 183.356 124.974 183.356 124.974Z" fill="black"/>
<path opacity="0.1" d="M201.239 121.061C201.239 121.061 201.239 124.298 201.148 127.624H201.121C200.572 127.644 200.022 127.627 199.475 127.573C198.515 127.47 197.747 127.216 197.471 126.712C196.912 125.73 195.346 124.481 194.023 123.551C193.954 121.646 193.898 119.924 193.898 119.924L201.239 121.061Z" fill="black"/>
<path d="M199.871 92.7117C199.685 94.1637 199.649 95.6311 199.764 97.0905C203.141 99.8789 202.511 105.752 202.511 105.752C202.511 105.752 205.11 117.651 204.553 118.728C203.996 119.806 205.814 126.424 205.814 126.424C204.265 126.718 202.696 126.898 201.121 126.964C200.572 126.983 200.022 126.966 199.475 126.913C198.515 126.81 197.747 126.556 197.47 126.051C196.433 124.231 191.94 121.517 191.94 121.517C191.94 121.517 189.094 123.225 186.443 124.78C185.597 125.277 184.771 125.759 184.062 126.163C183.488 126.468 182.853 126.643 182.203 126.674C179.051 126.908 174.853 124.932 175.521 124.231C176.338 123.375 180.385 108.355 180.385 108.355C180.385 108.355 182.425 99.0602 184.207 97.7597C184.52 97.5234 184.753 97.1974 184.875 96.8251C185.486 95.1275 184.466 92.4061 184.466 92.4061C184.466 92.4061 178.713 85.3058 178.971 84.8954C179.229 84.4849 179.232 82.2944 179.232 82.2944C179.232 82.2944 179.938 78.8368 180.345 77.1638C180.753 75.4908 183.686 75.0803 184.539 75.2298C185.392 75.3793 187.321 75.899 188.136 75.2298C188.951 74.5606 190.328 75.4908 190.328 75.4908L193.709 76.4232L196.749 74.6387C196.749 74.6387 199.796 74.7948 200.056 75.203C200.317 75.6113 204.326 76.3942 204.326 76.3942C206.366 77.7683 206.292 84.3132 206.292 84.3132C206.292 84.3132 201.393 88.5871 200.39 90.7821C200.131 91.3988 199.956 92.0479 199.871 92.7117Z" fill="#575A89"/>
<path d="M205.183 83.4082L206.297 84.3005L207.448 94.6732L208.598 105.084C208.598 105.084 209.043 106.125 209.415 106.014C209.787 105.902 209.749 112.184 209.749 112.184C209.749 112.184 205.486 109.559 203.958 113.045L202.769 104.638C202.769 104.638 201.246 96.0495 201.283 95.3803C201.321 94.7111 200.504 87.4614 200.504 87.4614L205.183 83.4082Z" fill="#575A89"/>
<path d="M179.793 83.8906L178.976 84.8944C178.976 84.8944 179.052 89.2063 178.419 90.2481C177.787 91.2898 180.165 97.3863 181.056 97.0137C181.947 96.6412 183.952 87.1251 183.952 87.0136C183.952 86.902 179.793 83.8906 179.793 83.8906Z" fill="#575A89"/>
<path d="M179.72 90.0254C179.72 90.0254 177.12 92.6643 177.305 93.9291C177.49 95.1939 179.978 99.1667 183.542 97.032C183.542 97.032 186.847 90.8061 179.72 90.0254Z" fill="#575A89"/>
<path opacity="0.1" d="M190.361 169.074C189.713 169.099 186.029 169.074 186.029 169.074C185.975 169.018 185.925 168.958 185.878 168.896C186.82 168.575 188.856 168.093 190.361 169.074Z" fill="black"/>
<path opacity="0.1" d="M200.898 169.074C200.25 169.099 196.566 169.074 196.566 169.074C196.513 169.018 196.462 168.958 196.415 168.896C197.353 168.575 199.388 168.093 200.898 169.074Z" fill="black"/>
<path opacity="0.1" d="M186.707 103.688C186.139 109.144 186.326 119.971 186.444 124.781C185.598 125.278 184.772 125.76 184.063 126.164C183.488 126.469 182.853 126.644 182.204 126.675C181.967 125.22 185.237 110.281 186.707 103.688Z" fill="black"/>
<path opacity="0.1" d="M187.402 100.59C187.386 100.668 187.117 101.855 186.707 103.686C186.867 102.122 187.09 101 187.402 100.59Z" fill="black"/>
<path opacity="0.1" d="M196.444 100.002C196.444 100.002 199.6 119.855 190.255 122.309C190.253 122.3 196.721 121.316 196.444 100.002Z" fill="black"/>
<path opacity="0.1" d="M201.121 126.964C200.572 126.984 200.022 126.967 199.475 126.913L196.954 99.7676C198.562 100.82 200.486 120.085 201.121 126.964Z" fill="black"/>
<path opacity="0.1" d="M189.816 66.686C189.984 66.6727 190.152 66.69 190.313 66.7373C190.549 66.8553 190.762 67.0155 190.941 67.2102C191.232 67.4533 191.579 67.6187 191.95 67.6908C192.322 67.763 192.706 67.7396 193.066 67.6229C193.32 67.5092 193.589 67.434 193.865 67.3998C194.291 67.3998 194.658 67.7121 194.879 68.069C195.099 68.4259 195.213 68.8497 195.402 69.2312C195.592 69.6126 195.894 69.974 196.311 70.0677C196.511 70.0755 196.707 70.1209 196.89 70.2015C197.002 70.2928 197.088 70.412 197.139 70.5473C197.487 71.299 197.763 72.1868 198.505 72.5549C198.778 72.6815 199.075 72.7463 199.376 72.7445C199.681 72.767 199.988 72.7117 200.267 72.5839C200.541 72.4306 200.767 72.2044 200.921 71.9303C201.385 71.163 201.438 70.2127 201.329 69.3226C201.193 68.1999 200.794 67.1252 200.164 66.1863C199.501 65.2367 198.598 64.4806 197.547 63.995C196.496 63.5094 195.336 63.3118 194.184 63.4225C193.782 63.4678 193.384 63.5423 192.992 63.6456C191.576 64.0248 190.186 64.7341 189.326 65.9231C189.118 66.2199 188.89 66.5016 188.643 66.7663C189.032 66.7284 189.424 66.6949 189.816 66.686Z" fill="black"/>
<path d="M189.816 66.4633C189.984 66.45 190.152 66.4674 190.313 66.5146C190.549 66.6326 190.762 66.7929 190.941 66.9875C191.232 67.2306 191.579 67.396 191.95 67.4682C192.322 67.5404 192.706 67.517 193.066 67.4002C193.32 67.2865 193.589 67.2113 193.865 67.1771C194.291 67.1771 194.658 67.4894 194.879 67.8463C195.099 68.2033 195.213 68.6271 195.402 69.0085C195.592 69.39 195.894 69.7513 196.311 69.845C196.511 69.8528 196.707 69.8982 196.89 69.9789C197.002 70.0701 197.088 70.1894 197.139 70.3246C197.487 71.0764 197.763 71.9642 198.505 72.3323C198.778 72.4589 199.075 72.5236 199.376 72.5219C199.681 72.5443 199.988 72.4891 200.267 72.3613C200.541 72.2079 200.767 71.9817 200.921 71.7077C201.385 70.9403 201.438 69.99 201.329 69.1C201.193 67.9772 200.794 66.9025 200.164 65.9636C199.501 65.0141 198.598 64.2579 197.547 63.7723C196.496 63.2868 195.336 63.0892 194.184 63.1998C193.782 63.2451 193.384 63.3197 192.992 63.4229C191.576 63.8021 190.186 64.5115 189.326 65.7004C189.118 65.9972 188.89 66.279 188.643 66.5436C189.032 66.5057 189.424 66.4722 189.816 66.4633Z" fill="#3F3D56"/>
<path opacity="0.1" d="M184.137 78.9453C184.137 78.9453 184.397 81.0288 183.506 81.5485C182.615 82.0683 184.137 78.9453 184.137 78.9453Z" fill="black"/>
<path opacity="0.1" d="M203.03 95.0824C203.03 95.0824 205.146 91.9595 205.445 92.8517C205.743 93.744 203.03 95.0824 203.03 95.0824Z" fill="black"/>
<path opacity="0.1" d="M203.18 96.1226C203.18 96.1226 205.267 93.5573 205.467 94.5611C205.668 95.5649 203.18 96.1226 203.18 96.1226Z" fill="black"/>
<path opacity="0.1" d="M197.05 93.0686C196.293 93.0793 195.555 92.8359 194.952 92.3771H194.769C194.144 92.9489 193.324 93.258 192.478 93.2404C192.038 93.2506 191.6 93.1713 191.192 93.0072C190.783 92.843 190.412 92.5976 190.101 92.2857H189.858C189.217 92.8087 188.412 93.0874 187.585 93.0723C186.758 93.0572 185.963 92.7493 185.342 92.2031L184.471 92.1875C184.471 92.1875 185.491 94.9089 184.881 96.6065L199.765 96.8719C199.65 95.4125 199.686 93.9451 199.872 92.4931V92.473L199.055 92.4574C198.467 92.8658 197.766 93.0796 197.05 93.0686Z" fill="black"/>
<path opacity="0.1" d="M197.05 93.5139C196.293 93.5247 195.555 93.2812 194.952 92.8224H194.769C194.144 93.3942 193.324 93.7033 192.478 93.6857C192.038 93.6959 191.6 93.6166 191.192 93.4525C190.783 93.2884 190.412 93.0429 190.101 92.731H189.858C189.217 93.254 188.412 93.5327 187.585 93.5176C186.758 93.5025 185.963 93.1946 185.342 92.6484L184.471 92.6328C184.471 92.6328 185.491 95.3542 184.881 97.0518L199.765 97.3173C199.65 95.8579 199.686 94.3904 199.872 92.9384V92.9183L199.055 92.9027C198.467 93.3112 197.766 93.5249 197.05 93.5139Z" fill="black"/>
<path d="M197.05 93.2913C196.293 93.302 195.555 93.0586 194.952 92.5998H194.769C194.144 93.1716 193.324 93.4807 192.478 93.463C192.038 93.4733 191.6 93.3939 191.192 93.2298C190.783 93.0657 190.412 92.8202 190.101 92.5083H189.858C189.217 93.0314 188.412 93.3101 187.585 93.2949C186.758 93.2798 185.963 92.9719 185.342 92.4258L184.471 92.4102C184.471 92.4102 185.491 95.1316 184.881 96.8291L199.765 97.0946C199.65 95.6352 199.686 94.1678 199.872 92.7158V92.6957L199.055 92.6801C198.467 93.0885 197.766 93.3022 197.05 93.2913Z" fill="#3F3D56"/>
<path opacity="0.1" d="M196.389 78.418C196.389 78.418 199.522 78.6187 199.542 79.0649C199.562 79.511 196.389 78.418 196.389 78.418Z" fill="black"/>
<path opacity="0.1" d="M188.776 76.5156C188.776 76.5156 185.642 76.7164 185.622 77.1625C185.602 77.6087 188.776 76.5156 188.776 76.5156Z" fill="black"/>
<path opacity="0.1" d="M200.752 85.6364C200.72 85.6141 200.689 85.5962 200.658 85.5762C201.46 86.2989 201.326 87.8782 200.342 89.181C199.357 90.4837 197.863 91.0257 196.954 90.4413C196.983 90.4658 197.008 90.4926 197.039 90.5171C197.93 91.1997 199.489 90.6644 200.518 89.317C201.547 87.9697 201.647 86.3212 200.752 85.6364Z" fill="black"/>
<path opacity="0.1" d="M183.537 89.0141C182.745 87.582 182.847 86.0004 183.745 85.4004C183.711 85.416 183.676 85.4294 183.642 85.4472C182.658 85.996 182.529 87.64 183.344 89.1212C184.159 90.6023 185.629 91.3519 186.613 90.812C186.646 90.7933 186.677 90.7724 186.707 90.7496C185.725 91.1957 184.33 90.4462 183.537 89.0141Z" fill="black"/>
<path opacity="0.1" d="M184.597 76.936L184.31 77.3822L183.577 76.9918L183.962 76.3984C184.217 76.5191 184.436 76.7044 184.597 76.936Z" fill="black"/>
<path d="M179.942 93.4461C179.942 93.4461 180.595 90.3722 179.719 89.3952C178.844 88.4182 179.125 83.2965 180.461 83.408C181.797 83.5196 183.802 87.5705 183.468 88.4271C183.134 89.2837 181.871 93.6692 181.871 93.6692L179.942 93.4461Z" fill="#FBBEBE"/>
<path opacity="0.1" d="M200.898 71.2688C200.744 71.5428 200.518 71.769 200.243 71.9224C199.965 72.0502 199.658 72.1054 199.353 72.083C199.052 72.0847 198.754 72.02 198.482 71.8934C197.74 71.5231 197.464 70.6353 197.116 69.8857C197.072 69.7505 196.994 69.6291 196.889 69.5333C196.709 69.4511 196.515 69.4035 196.317 69.3928C195.9 69.2991 195.6 68.9355 195.408 68.5563C195.217 68.177 195.103 67.7577 194.885 67.3941C194.666 67.0305 194.297 66.7115 193.871 66.7249C193.594 66.7616 193.325 66.8406 193.072 66.9591C192.711 67.0749 192.328 67.0976 191.956 67.0251C191.585 66.9525 191.237 66.7871 190.947 66.5442C190.768 66.3495 190.555 66.1893 190.319 66.0713C190.158 66.024 189.989 66.0066 189.822 66.02C189.566 66.02 189.312 66.0445 189.056 66.0646C188.929 66.2312 188.793 66.3906 188.648 66.5419C189.038 66.5085 189.43 66.475 189.822 66.4661C189.989 66.4528 190.158 66.4702 190.319 66.5174C190.555 66.6354 190.768 66.7957 190.947 66.9903C191.237 67.2332 191.585 67.3987 191.956 67.4712C192.328 67.5437 192.711 67.521 193.072 67.4052C193.325 67.2867 193.594 67.2078 193.871 67.171C194.297 67.171 194.664 67.4833 194.885 67.8402C195.105 68.1971 195.219 68.6209 195.408 69.0024C195.597 69.3838 195.9 69.7452 196.317 69.8389C196.515 69.8496 196.709 69.8973 196.889 69.9794C197.001 70.0707 197.087 70.1899 197.139 70.3252C197.486 71.0769 197.762 71.9647 198.504 72.3328C198.777 72.4594 199.074 72.5242 199.375 72.5224C199.681 72.5449 199.987 72.4896 200.266 72.3618C200.54 72.2084 200.766 71.9823 200.92 71.7082C201.266 71.0777 201.421 70.3599 201.366 69.6426C201.349 70.2154 201.188 70.7747 200.898 71.2688Z" fill="black"/>
<path d="M180.929 95.8835C182.036 95.8835 182.934 95.2743 182.934 94.5228C182.934 93.7713 182.036 93.1621 180.929 93.1621C179.822 93.1621 178.925 93.7713 178.925 94.5228C178.925 95.2743 179.822 95.8835 180.929 95.8835Z" fill="#575A89"/>
<path d="M115.591 170.266C153.539 170.266 184.301 139.456 184.301 101.449C184.301 63.4431 153.539 32.6328 115.591 32.6328C77.6434 32.6328 46.8809 63.4431 46.8809 101.449C46.8809 139.456 77.6434 170.266 115.591 170.266Z" fill="#0055F1"/>
<path d="M151.643 136.031C151.643 146.894 134.592 136.959 116.311 136.959C98.0296 136.959 79.5391 146.484 79.5391 135.62C79.5391 129.426 85.4323 120.811 93.8869 114.554C100.257 109.838 108.079 106.461 115.937 106.461C124.017 106.461 131.932 110.117 138.247 115.136C146.216 121.465 151.643 129.968 151.643 136.031Z" fill="#444053"/>
<path d="M138.244 115.132C128.527 113.667 110.952 111.88 93.8867 114.55C100.257 109.834 108.079 106.457 115.936 106.457C124.014 106.457 131.93 110.113 138.244 115.132Z" fill="#F6F8FB"/>
<path opacity="0.05" d="M79.5392 52.8711C79.5392 52.8711 58.8415 66.1236 59.0108 86.8533C59.1801 107.583 79.5392 52.8711 79.5392 52.8711Z" fill="black"/>
<path d="M184.275 15.4423C184.275 15.4423 165.521 14.3113 167.733 27.4724C167.733 27.4724 167.288 29.7968 169.399 30.8541C169.399 30.8541 169.432 29.8793 171.321 30.2094C171.994 30.3222 172.678 30.3552 173.359 30.3076C174.279 30.2449 175.153 29.8831 175.849 29.277C175.849 29.277 181.121 27.0976 183.172 18.4671C183.172 18.4671 184.689 16.5844 184.629 16.1026L181.464 17.4544C181.464 17.4544 182.544 19.7408 181.687 21.6414C181.687 21.6414 181.584 17.5391 180.976 17.6261C180.854 17.6462 179.332 18.418 179.332 18.418C179.332 18.418 181.192 22.402 179.778 25.2952C179.778 25.2952 180.31 20.3877 178.74 18.7058L176.513 20.0085C176.513 20.0085 178.687 24.1219 177.212 27.4791C177.212 27.4791 177.591 22.3307 176.045 20.3253L174.025 21.9024C174.025 21.9024 176.067 25.9577 174.822 28.7416C174.822 28.7416 174.66 22.7478 173.588 22.295C173.588 22.295 171.822 23.8564 171.553 24.4966C171.553 24.4966 172.951 27.4389 172.085 28.9915C172.085 28.9915 171.553 24.9985 171.116 24.9762C171.116 24.9762 169.357 27.6218 169.172 29.4376C169.172 29.4376 169.25 26.7385 170.689 24.7242C170.689 24.7242 168.987 25.0164 167.996 26.1228C167.996 26.1228 168.27 24.2513 171.114 24.0884C171.114 24.0884 172.568 22.0808 172.958 21.9604C172.958 21.9604 170.118 21.7217 168.397 22.4868C168.397 22.4868 169.911 20.7223 173.477 21.5231L175.482 19.8947C175.482 19.8947 171.744 19.3817 170.159 19.9483C170.159 19.9483 171.983 18.3868 176.018 19.5245L178.19 18.224C178.19 18.224 175.003 17.5369 173.103 17.7778C173.103 17.7778 175.107 16.6959 178.825 17.8693L180.384 17.1711C180.384 17.1711 178.047 16.7116 177.364 16.6402C176.68 16.5688 176.644 16.377 176.644 16.377C178.128 16.1353 179.65 16.3122 181.039 16.8878C181.039 16.8878 184.33 15.6497 184.275 15.4423Z" fill="#0055F1"/>
<path d="M165.04 9.59119C165.04 9.59119 156.577 9.07813 157.566 15.0251C157.566 15.0251 157.367 16.0758 158.319 16.5532C158.319 16.5532 158.332 16.107 159.187 16.2632C159.491 16.3133 159.8 16.3282 160.107 16.3078C160.523 16.278 160.918 16.1145 161.234 15.8416C161.234 15.8416 163.615 14.8556 164.541 10.9564C164.541 10.9564 165.227 10.1065 165.21 9.88787L163.78 10.4991C163.78 10.4991 164.27 11.5319 163.884 12.3907C163.884 12.3907 163.838 10.537 163.564 10.5816C163.508 10.5816 162.82 10.9385 162.82 10.9385C162.82 10.9385 163.662 12.7387 163.027 14.0459C163.027 14.0459 163.267 11.8286 162.559 11.0679L161.552 11.6568C161.552 11.6568 162.535 13.5172 161.869 15.0341C161.869 15.0341 162.038 12.7075 161.341 11.8018L160.428 12.5134C160.428 12.5134 161.35 14.3448 160.789 15.6029C160.789 15.6029 160.715 12.8948 160.229 12.6896C160.229 12.6896 159.432 13.3945 159.31 13.6845C159.31 13.6845 159.942 15.0229 159.55 15.7166C159.55 15.7166 159.31 13.912 159.105 13.9053C159.105 13.9053 158.31 15.0987 158.227 15.9129C158.266 15.1552 158.501 14.4208 158.911 13.7826C158.453 13.8695 158.03 14.089 157.695 14.4139C157.695 14.4139 157.817 13.5685 159.107 13.4949C159.107 13.4949 159.764 12.5892 159.94 12.5335C159.94 12.5335 158.657 12.4264 157.88 12.7721C157.88 12.7721 158.564 11.9736 160.176 12.326L161.067 11.5921C161.067 11.5921 159.379 11.369 158.662 11.6144C158.662 11.6144 159.486 10.9095 161.31 11.4248L162.29 10.8359C162.29 10.8359 160.851 10.5258 159.991 10.6374C159.991 10.6374 160.898 10.1489 162.577 10.6798L163.279 10.363C163.279 10.363 162.223 10.1556 161.915 10.1243C161.608 10.0931 161.588 10.0061 161.588 10.0061C162.257 9.8947 162.943 9.97194 163.57 10.2292C163.57 10.2292 165.065 9.68488 165.04 9.59119Z" fill="#0055F1"/>
<path opacity="0.1" d="M239.002 162.842C242.314 162.842 245 162.388 245 161.827C245 161.267 242.314 160.812 239.002 160.812C235.689 160.812 233.004 161.267 233.004 161.827C233.004 162.388 235.689 162.842 239.002 162.842Z" fill="#0055F1"/>
<path opacity="0.1" d="M10.4169 179.727C13.7295 179.727 16.4148 179.273 16.4148 178.712C16.4148 178.152 13.7295 177.697 10.4169 177.697C7.10431 177.697 4.41895 178.152 4.41895 178.712C4.41895 179.273 7.10431 179.727 10.4169 179.727Z" fill="#0055F1"/>
<path opacity="0.1" d="M45.2352 181.001C48.5478 181.001 51.2332 180.546 51.2332 179.986C51.2332 179.425 48.5478 178.971 45.2352 178.971C41.9227 178.971 39.2373 179.425 39.2373 179.986C39.2373 180.546 41.9227 181.001 45.2352 181.001Z" fill="#0055F1"/>
<path d="M225.875 174.221C230.821 174.221 234.83 173.542 234.83 172.704C234.83 171.867 230.821 171.188 225.875 171.188C220.929 171.188 216.919 171.867 216.919 172.704C216.919 173.542 220.929 174.221 225.875 174.221Z" fill="#0055F1"/>
<path d="M229.577 170.226C229.985 169.892 230.284 169.442 230.432 168.935C230.541 168.424 230.323 167.808 229.835 167.621C229.287 167.411 228.701 167.792 228.258 168.176C227.815 168.56 227.305 168.997 226.724 168.917C227.023 168.646 227.246 168.301 227.373 167.918C227.499 167.534 227.524 167.124 227.445 166.728C227.42 166.564 227.351 166.41 227.245 166.282C226.94 165.957 226.39 166.095 226.024 166.351C224.866 167.168 224.543 168.743 224.536 170.161C224.421 169.651 224.519 169.117 224.516 168.6C224.514 168.082 224.369 167.485 223.928 167.21C223.655 167.064 223.348 166.992 223.038 167.001C222.516 166.98 221.937 167.032 221.581 167.413C221.136 167.888 221.254 168.682 221.639 169.198C222.024 169.713 222.608 170.048 223.144 170.407C223.576 170.664 223.945 171.016 224.222 171.435C224.255 171.494 224.282 171.556 224.303 171.62H227.566C228.296 171.249 228.972 170.78 229.577 170.226Z" fill="#0055F1"/>
<path d="M13.2163 151.521C13.2163 151.521 14.439 153.123 12.6506 155.537C10.8621 157.95 9.38767 159.998 9.97789 161.506C9.97789 161.506 12.6751 157.013 14.8778 156.949C17.0805 156.884 15.6306 154.223 13.2163 151.521Z" fill="#0055F1"/>
<path opacity="0.1" d="M13.2165 151.521C13.3227 151.676 13.4066 151.845 13.4659 152.023C15.6085 154.544 16.7489 156.897 14.6909 156.955C12.7711 157.011 10.4592 160.446 9.91797 161.314C9.93689 161.381 9.95919 161.448 9.98479 161.513C9.98479 161.513 12.682 157.02 14.8847 156.955C17.0874 156.891 15.6308 154.223 13.2165 151.521Z" fill="black"/>
<path d="M15.4909 153.563C15.4909 154.127 15.4263 154.584 15.3483 154.584C15.2704 154.584 15.208 154.138 15.208 153.563C15.208 152.987 15.286 153.264 15.3661 153.264C15.4463 153.264 15.4909 152.998 15.4909 153.563Z" fill="#FFD037"/>
<path d="M16.2607 154.237C15.7663 154.507 15.3364 154.67 15.2986 154.601C15.2607 154.532 15.6326 154.26 16.1271 153.99C16.6215 153.72 16.4255 153.916 16.4634 153.99C16.5013 154.063 16.7641 153.967 16.2607 154.237Z" fill="#FFD037"/>
<path d="M6.75251 151.521C6.75251 151.521 5.52976 153.123 7.316 155.537C9.10224 157.95 10.5789 159.998 9.98868 161.506C9.98868 161.506 7.28928 157.013 5.08877 156.949C2.88827 156.884 4.33597 154.223 6.75251 151.521Z" fill="#0055F1"/>
<path opacity="0.1" d="M6.75281 151.521C6.64565 151.676 6.56161 151.845 6.50336 152.023C4.36077 154.544 3.2182 156.897 5.27839 156.955C7.19603 157.011 9.51013 160.446 10.0491 161.314C10.0309 161.381 10.0094 161.448 9.98453 161.513C9.98453 161.513 7.28512 157.02 5.08462 156.955C2.88411 156.891 4.33627 154.223 6.75281 151.521Z" fill="black"/>
<path d="M4.47852 153.563C4.47852 154.127 4.54088 154.584 4.61883 154.584C4.69679 154.584 4.75915 154.138 4.75915 153.563C4.75915 152.987 4.68119 153.264 4.60324 153.264C4.52529 153.264 4.47852 152.998 4.47852 153.563Z" fill="#FFD037"/>
<path d="M3.69704 154.237C4.19149 154.507 4.62357 154.67 4.66143 154.601C4.6993 154.532 4.32735 154.26 3.8329 153.99C3.33846 153.72 3.53223 153.916 3.49659 153.99C3.46096 154.063 3.2026 153.967 3.69704 154.237Z" fill="#FFD037"/>
<path d="M4.86914 161.304C4.86914 161.304 8.29017 161.199 9.32361 160.463C10.357 159.727 14.5866 158.85 14.8427 160.017C15.0988 161.184 19.9831 165.884 16.1211 165.915C12.2591 165.946 7.1476 165.31 6.11862 164.684C5.08964 164.057 4.86914 161.304 4.86914 161.304Z" fill="#A8A8A8"/>
<path opacity="0.2" d="M16.1857 165.515C12.3237 165.546 7.21219 164.91 6.18321 164.283C5.39922 163.806 5.08741 162.091 4.98273 161.299H4.86914C4.86914 161.299 5.09186 164.063 6.11416 164.689C7.13646 165.316 12.2546 165.952 16.1167 165.921C17.2303 165.921 17.6156 165.513 17.5955 164.926C17.4396 165.285 17.0165 165.508 16.1857 165.515Z" fill="black"/>
<path d="M91.163 92.4266C92.4704 92.353 98.6243 91.889 102.533 89.6561C103.161 89.2862 103.87 89.077 104.598 89.0471C105.84 89.0114 107.27 89.5311 106.355 92.44C104.872 97.198 96.2589 102.552 90.9136 102.255C85.7731 101.969 79.675 99.8949 75.6481 92.6006C75.2623 91.8988 75.0723 91.1059 75.098 90.3052C75.1448 88.8329 75.6793 86.9882 78.4389 89.0449C82.1672 91.8221 89.2409 92.3485 90.6597 92.4266C90.8273 92.4356 90.9954 92.4356 91.163 92.4266Z" fill="#444053"/>
<path d="M140.607 92.4266C141.915 92.353 148.069 91.889 151.977 89.6561C152.605 89.2862 153.314 89.077 154.042 89.0471C155.285 89.0114 156.715 89.5311 155.799 92.44C154.316 97.198 145.703 102.552 140.358 102.255C135.217 101.969 129.119 99.8949 125.092 92.6006C124.707 91.8988 124.517 91.1059 124.542 90.3052C124.589 88.8329 125.124 86.9882 127.883 89.0449C131.612 91.8221 138.685 92.3485 140.104 92.4266C140.272 92.4356 140.44 92.4356 140.607 92.4266Z" fill="#444053"/>
</g>
<defs>
<linearGradient id="paint0_linear_1561_6485" x1="198.7" y1="169.084" x2="198.7" y2="58.8795" gradientUnits="userSpaceOnUse">
<stop stop-color="#808080" stop-opacity="0.25"/>
<stop offset="0.54" stop-color="#808080" stop-opacity="0.12"/>
<stop offset="1" stop-color="#808080" stop-opacity="0.1"/>
</linearGradient>
<clipPath id="clip0_1561_6485">
<rect width="245" height="181" fill="white"/>
</clipPath>
</defs>
</svg>
