<svg width="245" height="184" viewBox="0 0 245 184" fill="none" xmlns="http://www.w3.org/2000/svg">
<g clip-path="url(#clip0_1561_6728)">
<path d="M180.471 174.356C164.449 177.894 143.483 177.225 120.985 174.382C102.583 172.056 81.83 166.24 64.9863 159.468C66.7253 157.711 69.0015 156.584 71.4541 156.266C71.5229 156.255 71.5938 156.245 71.6644 156.237C72.9063 156.089 74.1614 156.089 75.4032 156.238C91.133 158.002 88.2462 166.602 109.465 156.956C122.662 150.958 136.857 150.113 146.229 152.151C146.402 152.188 146.572 152.227 146.743 152.266C152.164 153.53 155.872 155.78 156.673 158.552C158.862 166.113 149.068 170.703 165.878 171.034C170.542 171.126 175.767 173.206 180.471 174.356Z" fill="#3F3D56"/>
<path d="M244.679 183.137C238.247 182.618 231.828 181.632 225.431 180.802C216.413 179.632 207.4 178.427 198.391 177.185C180.532 174.744 162.684 172.224 144.831 169.742C126.853 167.242 108.87 164.779 90.8821 162.351C74.2083 160.1 57.5277 157.899 40.8406 155.746C28.3149 154.149 15.781 152.606 3.21526 151.356C2.25024 151.26 1.28512 151.164 0.319917 151.07C-0.108094 151.028 -0.105182 151.697 0.319917 151.738C12.0219 152.884 23.697 154.255 35.363 155.721C52.0116 157.812 68.6449 160.027 85.2744 162.264C103.263 164.684 121.247 167.14 139.226 169.632C157.003 172.096 174.774 174.607 192.554 177.053C209.047 179.322 225.545 181.677 242.09 183.54C242.952 183.637 243.814 183.736 244.679 183.805C245.108 183.84 245.106 183.172 244.679 183.137Z" fill="#3F3D56"/>
<path d="M91.6987 89.7402C91.6987 89.7402 88.5264 104.433 92.8523 104.144C97.1782 103.856 95.1594 90.6045 95.1594 90.6045L91.6987 89.7402Z" fill="#A0616A"/>
<path d="M109.003 159.745L111.022 170.404L115.636 169.828L114.194 158.305L109.003 159.745Z" fill="#A0616A"/>
<path d="M132.362 149.373L133.516 157.151H139.572L138.418 149.949L132.362 149.373Z" fill="#A0616A"/>
<path d="M104.388 82.5371C104.388 82.5371 99.4852 92.0439 101.216 115.667C102.946 139.29 102.946 161.76 102.946 161.76L115.347 160.896L118.808 102.127L132.362 153.118L141.302 152.253L138.995 102.415L131.785 78.5039L104.388 82.5371Z" fill="#2F2E41"/>
<path d="M112.751 165.507C112.751 165.507 113.617 162.914 112.175 162.914H109.002C109.002 162.914 105.542 169.252 103.523 169.828C101.504 170.404 95.1594 175.878 101.216 176.454C107.272 177.03 116.501 173.861 116.501 172.709C116.501 171.557 115.635 166.659 115.635 166.659L112.751 165.507Z" fill="#2F2E41"/>
<path d="M138.131 155.423C138.131 155.423 132.829 153.958 133.173 154.834C133.516 155.711 132.363 158.303 132.363 158.303C132.363 158.303 129.479 174.724 138.131 173.284C146.782 171.843 140.438 159.456 140.438 159.456L139.157 154.555L138.131 155.423Z" fill="#2F2E41"/>
<path d="M113.905 20.3124C118.683 20.3124 122.557 16.443 122.557 11.6699C122.557 6.89674 118.683 3.02734 113.905 3.02734C109.126 3.02734 105.253 6.89674 105.253 11.6699C105.253 16.443 109.126 20.3124 113.905 20.3124Z" fill="#A0616A"/>
<path d="M108.138 16.2793C108.138 16.2793 109.58 24.6337 108.714 26.3622C107.849 28.0908 115.636 31.5478 115.636 31.5478L119.673 21.7529V16.2793L108.138 16.2793Z" fill="#A0616A"/>
<path d="M112.751 26.0742C112.751 26.0742 110.126 26.4599 108.987 24.5385C107.849 22.6172 105.253 37.8856 105.253 37.8856C105.253 37.8856 106.407 58.0515 104.965 62.6609C103.523 67.2702 103.811 68.9987 104.388 69.863C104.965 70.7272 106.695 69.5749 105.253 71.8796C103.811 74.1843 103.811 72.7438 103.811 75.0485C103.811 77.3532 103.234 85.7076 103.234 85.7076L134.381 83.403L119.673 20.3125C119.673 20.3125 114.77 26.3623 112.751 26.0742Z" fill="#3F3D56"/>
<path d="M124.864 23.4814C124.864 23.4814 136.688 25.2099 137.265 27.8027C137.842 30.3955 149.377 102.417 143.321 106.162C137.265 109.907 117.654 112.788 116.789 109.042C115.924 105.297 111.309 28.955 119.673 20.3125L124.864 23.4814Z" fill="#D0CDE1"/>
<path d="M141.52 99.3677H139.098C139.098 99.3677 139.843 90.6221 139.098 89.8157C139.098 89.8157 132.33 89.0714 125.5 96.5145C125.5 96.5145 126.68 88.3892 135.497 87.955C138.323 87.816 139.957 88.9387 140.871 90.529C142.81 93.8995 141.52 99.3677 141.52 99.3677Z" fill="#3F3D56"/>
<path opacity="0.15" d="M141.519 99.3684H139.098C139.098 99.3684 139.843 90.6227 139.098 89.8164L140.87 90.5297C142.809 93.9002 141.519 99.3684 141.519 99.3684Z" fill="black"/>
<path d="M127.3 93.6621L123.947 99.3685H125.5C125.5 99.3685 125.748 95.1507 127.3 93.6621Z" fill="#3F3D56"/>
<path opacity="0.15" d="M127.3 93.6621L123.947 99.3685H125.5C125.5 99.3685 125.748 95.1507 127.3 93.6621Z" fill="black"/>
<path d="M155.925 123.496C155.971 124.454 155.783 125.409 155.377 126.279C154.972 127.149 154.361 127.907 153.597 128.489C153.597 128.489 122.737 135.808 119.322 135.187C118.902 135.109 118.494 134.975 118.109 134.79C115.387 133.5 113.671 129.977 113.671 129.977C113.671 129.977 113.62 129.067 113.543 127.583C113.397 124.714 113.16 119.7 113.029 114.981C112.899 110.318 112.874 105.942 113.143 104.206C113.826 99.8017 118.545 99.4296 118.545 99.4296L149.964 98.065C150.996 98.0546 152.025 98.1891 153.019 98.4645C156.416 99.4835 155.925 102.097 155.925 102.097C155.925 102.097 155.801 120.146 155.925 123.496Z" fill="#575A89"/>
<path d="M153.019 98.4644C151.094 99.0636 146.465 100.385 144.811 99.8017C142.699 99.0574 126.369 99.5536 120.408 100.236C114.447 100.918 116.558 117.045 116.558 117.045L113.029 114.981C112.899 110.318 112.874 105.942 113.143 104.206C113.826 99.8017 118.545 99.4296 118.545 99.4296L149.964 98.065C150.996 98.0546 152.025 98.1891 153.019 98.4644Z" fill="#3F3D56"/>
<path d="M130.467 110.035C130.467 110.035 127.476 93.3371 132.977 91.0488L133.696 91.0556C133.696 91.0556 131.957 93.3505 132.64 97.5683C133.323 101.786 132.951 111.4 132.951 111.4C132.951 111.4 130.839 112.641 130.467 110.035Z" fill="#2F2E41"/>
<path d="M132.641 91.6146C132.641 91.6146 135.932 86.3424 141.954 89.2576C147.977 92.1728 148.536 98.8096 148.536 98.8096C148.536 98.8096 144.376 86.6526 132.641 91.6146Z" fill="#2F2E41"/>
<path d="M148.971 110.718L147.978 104.329L148.474 98.3477L149.716 104.516L150.275 110.718H148.971Z" fill="#2F2E41"/>
<path d="M137.794 109.974L141.271 109.105L144.81 109.54V111.09L141.582 112.083L137.794 111.711V109.974Z" fill="#2F2E41"/>
<path d="M117.552 132.428C117.637 133.236 117.824 134.03 118.109 134.791C115.386 133.501 113.671 129.978 113.671 129.978C113.671 129.978 113.619 129.068 113.543 127.584L115.813 128.521L117.552 132.428Z" fill="#3F3D56"/>
<path d="M119.042 135.838C118.883 135.801 118.738 135.719 118.622 135.604C119.088 135.791 119.284 135.889 119.042 135.838Z" fill="#2F2E41"/>
<path d="M108.986 23.9121L97.7556 35.0033L101.793 71.0139C101.793 71.0139 93.7181 113.65 98.3324 113.65C102.947 113.65 102.37 114.227 103.235 111.058C104.1 107.889 108.986 23.9121 108.986 23.9121Z" fill="#D0CDE1"/>
<path d="M100.639 34.1406L97.7551 35.0049C97.7551 35.0049 95.1595 37.0215 95.4479 41.3427C95.7363 45.664 95.1595 58.0516 95.1595 58.0516C95.1595 58.0516 93.4292 60.6444 94.2943 63.8133L90.2568 91.4694L99.197 92.9098L102.369 78.5056L100.639 34.1406Z" fill="#D0CDE1"/>
<path d="M136.399 79.9458C136.399 79.9458 132.939 98.0951 136.399 96.9428C139.86 95.7905 144.186 83.1147 141.302 81.0982C138.418 79.0816 136.399 79.9458 136.399 79.9458Z" fill="#A0616A"/>
<path d="M105.233 12.6828C105.233 12.6828 104.349 11.3593 104.689 9.93398C104.892 9.12476 104.972 8.28968 104.927 7.45667C104.927 7.45667 105.64 5.14904 106.354 3.85948C107.067 2.56992 106.727 2.02695 108.97 1.61972C111.212 1.21249 110.295 -1.70599 116.206 1.45004C116.405 1.72819 116.683 1.9411 117.003 2.0619C117.323 2.18269 117.673 2.20596 118.006 2.12876C119.229 1.89121 119.671 3.58799 119.671 3.58799C119.671 3.58799 120.486 3.11289 120.792 3.79161C121.098 4.47032 123.278 3.38426 123.278 7.96559C123.278 12.5469 120.797 16.6392 120.797 16.6392C120.797 16.6392 120.979 8.93288 116.936 8.15236C112.893 7.37183 108.545 5.09813 107.492 8.01661C106.923 9.65461 106.165 11.2206 105.233 12.6828Z" fill="#2F2E41"/>
<path d="M50.2258 107.722C48.3103 109.31 44.9336 117.118 44.9336 117.118C46.0141 117.231 47.1016 117.266 48.1872 117.22L47.8072 115.147L49.2196 117.138C49.7706 117.079 50.3149 116.969 50.8455 116.809L50.2607 113.618L52.0868 116.192C52.1003 116.181 52.1142 116.17 52.1274 116.159C54.0429 114.571 55.1701 111.394 54.645 109.064C54.1198 106.734 52.1413 106.133 50.2258 107.722Z" fill="#0055F1"/>
<path d="M101.273 142.46C99.3572 144.048 95.9805 151.856 95.9805 151.856C97.061 151.97 98.1485 152.004 99.234 151.959L98.854 149.886L100.266 151.876C100.817 151.817 101.362 151.707 101.892 151.547L101.308 148.357L103.134 150.93C103.147 150.919 103.161 150.909 103.174 150.898C105.09 149.309 106.217 146.133 105.692 143.803C105.167 141.473 103.188 140.871 101.273 142.46Z" fill="#0055F1"/>
<path d="M93.7761 69.5055C92.1447 71.2033 88.8477 79.0414 88.8477 79.0414C89.6963 79.0606 90.5449 79.0025 91.383 78.8678L91.2603 76.8938L92.1972 78.701C92.6445 78.5937 93.0797 78.4414 93.4963 78.2464L93.3074 75.2084L94.5188 77.545C94.5302 77.5335 94.542 77.5222 94.5532 77.5106C96.1846 75.8128 97.3332 72.6444 97.1186 70.4339C96.904 68.2234 95.4075 67.8077 93.7761 69.5055Z" fill="#0055F1"/>
<path d="M52.8144 168.769C50.5426 168.146 42.0732 168.987 42.0732 168.987C42.4609 169.741 42.9166 170.459 43.4347 171.131L45.1133 170.082L43.9696 171.766C44.2773 172.108 44.6188 172.417 44.9889 172.69L47.5724 171.076L46.0936 173.254C46.1092 173.258 46.1247 173.263 46.1404 173.267C48.4121 173.891 51.7478 173.389 53.5908 172.147C55.4338 170.904 55.0862 169.392 52.8144 168.769Z" fill="#3F3D56"/>
<path d="M59.0556 165.204C56.7838 164.581 48.3145 165.423 48.3145 165.423C48.7021 166.177 49.1578 166.895 49.6759 167.566L51.3545 166.517L50.2108 168.202C50.5185 168.543 50.86 168.853 51.2301 169.126L53.8136 167.512L52.3348 169.689C52.3505 169.694 52.366 169.699 52.3816 169.703C54.6534 170.326 57.989 169.824 59.832 168.582C61.675 167.34 61.3274 165.828 59.0556 165.204Z" fill="#3F3D56"/>
<path d="M125.484 179.234C123.213 178.611 114.743 179.452 114.743 179.452C115.131 180.206 115.587 180.924 116.105 181.596L117.783 180.547L116.64 182.231C116.947 182.573 117.289 182.882 117.659 183.155L120.242 181.541L118.764 183.718C118.779 183.723 118.795 183.728 118.81 183.732C121.082 184.355 124.418 183.854 126.261 182.611C128.104 181.369 127.756 179.857 125.484 179.234Z" fill="#3F3D56"/>
<path d="M59.0556 174.335C56.7838 173.712 48.3145 174.554 48.3145 174.554C48.7021 175.308 49.1578 176.025 49.6759 176.697L51.3545 175.648L50.2108 177.333C50.5185 177.674 50.86 177.984 51.2301 178.257L53.8136 176.642L52.3348 178.82C52.3505 178.825 52.366 178.83 52.3816 178.834C54.6534 179.457 57.989 178.955 59.832 177.713C61.675 176.471 61.3274 174.958 59.0556 174.335Z" fill="#3F3D56"/>
<path d="M154.768 95.2363C154.072 96.3044 153.63 98.9961 153.366 101.334L154.677 102.73L153.271 102.233C153.098 103.983 153.03 105.349 153.03 105.349C153.03 105.349 158.675 104.128 160.013 102.074C161.351 100.02 161.261 96.8242 159.813 94.9361C158.364 93.0481 156.106 93.1825 154.768 95.2363Z" fill="#0055F1"/>
<path d="M160.641 134.651C160.004 135.719 159.599 138.411 159.357 140.749L160.557 142.145L159.269 141.648C159.11 143.398 159.048 144.764 159.048 144.764C159.048 144.764 164.216 143.541 165.442 141.487C166.667 139.433 166.586 136.237 165.26 134.35C163.935 132.462 161.867 132.597 160.641 134.651Z" fill="#0055F1"/>
<path d="M132.363 26.0726C132.363 26.0726 138.996 24.9202 140.438 33.5627C141.88 42.2053 145.629 59.2022 145.629 59.2022L144.599 85.1369L134.958 81.9609L135.246 62.0831L130.344 32.4104L132.363 26.0726Z" fill="#D0CDE1"/>
<path opacity="0.15" d="M129.911 37.7402L133.66 62.2275L132.795 82.9695L136.833 62.8035L129.911 37.7402Z" fill="black"/>
<path d="M159.454 17.538C157.539 19.1264 154.162 26.9339 154.162 26.9339C155.243 27.0479 156.33 27.0823 157.416 27.0367L157.036 24.9637L158.448 26.9539C158.999 26.895 159.543 26.7849 160.074 26.6252L159.489 23.4347L161.315 26.0079C161.329 25.9972 161.343 25.9868 161.356 25.9759C163.271 24.3874 164.399 21.2109 163.873 18.8808C163.348 16.5507 161.37 15.9495 159.454 17.538Z" fill="#0055F1"/>
</g>
<defs>
<clipPath id="clip0_1561_6728">
<rect width="245" height="184" fill="white"/>
</clipPath>
</defs>
</svg>
