<svg width="24" height="24" viewBox="0 0 24 24" fill="none" xmlns="http://www.w3.org/2000/svg">
<path d="M2.3999 5.75992C2.3999 2.58297 3.06295 1.91992 6.2399 1.91992H17.7599C20.9368 1.91992 21.5999 2.58297 21.5999 5.75992V17.2799C21.5999 20.4569 20.9368 21.1199 17.7599 21.1199H6.2399C3.06295 21.1199 2.3999 20.4569 2.3999 17.2799V5.75992Z" stroke="black" stroke-width="1.44" stroke-linecap="round" stroke-linejoin="round"/>
<path d="M6.24023 18.2402H10.0802" stroke="black" stroke-width="1.44" stroke-linecap="round"/>
<path d="M17.7598 18.2491V18.2402" stroke="black" stroke-width="1.92" stroke-linecap="round" stroke-linejoin="round"/>
<path d="M12.0002 13.4398C14.1209 13.4398 15.8402 11.7205 15.8402 9.59977C15.8402 7.47899 14.1209 5.75977 12.0002 5.75977C9.87938 5.75977 8.16016 7.47899 8.16016 9.59977C8.16016 11.7205 9.87938 13.4398 12.0002 13.4398Z" stroke="black" stroke-width="1.44" stroke-linecap="round" stroke-linejoin="round"/>
<path d="M15.3602 9.5998H16.8002M12.0002 12.9598V14.3998M8.6402 9.5998H7.2002M12.0002 6.2398V4.7998" stroke="black" stroke-width="1.44" stroke-linecap="round"/>
</svg>
