<svg width="24" height="24" viewBox="0 0 24 24" fill="none" xmlns="http://www.w3.org/2000/svg">
<path d="M21.3008 6.05187C21.1486 5.22701 20.7413 4.45623 20.1374 3.85008C19.5311 3.24641 18.7601 2.83927 17.935 2.68704C13.7381 1.98816 9.32881 3.26088 6.29919 6.28553C3.27024 9.30951 1.99074 13.7155 2.68478 17.9122C2.83703 18.7371 3.24429 19.5079 3.84815 20.114C4.45449 20.7177 5.22551 21.1248 6.05064 21.2771C10.2215 22.0738 14.6998 20.7027 17.6919 17.6794C20.7498 14.6729 22.0293 10.2497 21.3008 6.05187Z" stroke="#595959" stroke-width="1.5"/>
<path d="M4 20L20 4" stroke="#595959" stroke-width="1.5" stroke-linecap="round" stroke-linejoin="round"/>
<path d="M9 12L12 15M12 9L15 12" stroke="#595959" stroke-width="1.5" stroke-linecap="round" stroke-linejoin="round"/>
</svg>
