<svg width="25" height="24" viewBox="0 0 25 24" fill="none" xmlns="http://www.w3.org/2000/svg">
<path fill-rule="evenodd" clip-rule="evenodd" d="M15.1823 2.78681C13.2265 2.73773 11.7735 2.73774 9.8177 2.78681L9.74285 2.78869C8.23349 2.82652 6.99161 2.85765 5.99064 3.03175C4.92828 3.21654 4.03876 3.57641 3.28536 4.33174C2.5359 5.08311 2.17705 5.9586 1.99526 7.00416C1.82465 7.98538 1.79883 9.19623 1.76758 10.6617L1.76597 10.7371C1.74467 11.7351 1.74468 12.265 1.76599 13.2629L1.7676 13.3383C1.79884 14.8038 1.82466 16.0146 1.99527 16.9959C2.17707 18.0414 2.53592 18.9169 3.28537 19.6683C4.03878 20.4236 4.92829 20.7835 5.99066 20.9683C6.99162 21.1424 8.2335 21.1735 9.74286 21.2113L9.81772 21.2132C11.7735 21.2623 13.2265 21.2623 15.1823 21.2132L15.2571 21.2113C16.7665 21.1735 18.0084 21.1423 19.0094 20.9682C20.0717 20.7835 20.9612 20.4236 21.7146 19.6683C22.4641 18.9169 22.823 18.0414 23.0047 16.9958C23.1754 16.0146 23.2012 14.8038 23.2324 13.3383L23.234 13.2629C23.2553 12.2649 23.2553 11.7351 23.234 10.7371L23.2324 10.6618C23.2012 9.19627 23.1753 7.98538 23.0047 7.00416C22.8229 5.9586 22.4641 5.08311 21.7146 4.33174C21.2913 3.90728 20.8249 3.6077 20.309 3.39389C20.2305 3.35104 20.1464 3.31873 20.0587 3.29811C19.7289 3.18184 19.3796 3.09616 19.0093 3.03176C18.0084 2.85765 16.7665 2.82652 15.2571 2.78868L15.1823 2.78681ZM21.1798 8.8503C21.1604 8.44479 21.1507 8.24204 21.0039 8.16109C20.8571 8.08014 20.6765 8.18242 20.3155 8.38697L16.0798 10.787C14.7801 11.5234 13.681 12 12.4998 12C11.3186 12 10.2195 11.5234 8.91985 10.787L4.68445 8.38719C4.32343 8.18263 4.14292 8.08035 3.99608 8.1613C3.84924 8.24225 3.83957 8.44501 3.82023 8.85053C3.79416 9.39704 3.78003 10.0306 3.76403 10.7797C3.74333 11.7492 3.74334 12.2508 3.76405 13.2203C3.79736 14.7803 3.82261 15.8393 3.96432 16.6543C4.09776 17.4218 4.32038 17.8777 4.70122 18.2595C5.0781 18.6374 5.54027 18.8638 6.33355 19.0018C7.17174 19.1476 8.26497 19.1776 9.86791 19.2178C11.7902 19.266 13.2098 19.266 15.1321 19.2178C16.735 19.1776 17.8283 19.1476 18.6665 19.0018C19.4597 18.8638 19.9219 18.6374 20.2988 18.2595C20.6796 17.8777 20.9023 17.4218 21.0357 16.6543C21.1774 15.8393 21.2027 14.7803 21.236 13.2203C21.2567 12.2508 21.2567 11.7492 21.236 10.7797C21.22 10.0305 21.2058 9.39687 21.1798 8.8503Z" fill="#0055F1"/>
</svg>
