<svg width="25" height="24" viewBox="0 0 25 24" fill="none" xmlns="http://www.w3.org/2000/svg">
<path fill-rule="evenodd" clip-rule="evenodd" d="M12.5 1.25C6.56295 1.25 1.75001 6.06294 1.75001 12C1.75001 13.4809 2.04988 14.8937 2.59293 16.1794C2.73538 16.5167 2.83142 16.7447 2.89556 16.9198C2.96099 17.0985 2.97018 17.1631 2.97133 17.1797C2.97783 17.2736 2.95407 17.4013 2.79191 18.0074L1.7755 21.8061C1.70627 22.0649 1.78028 22.3409 1.96968 22.5303C2.15908 22.7197 2.43511 22.7937 2.69387 22.7245L6.49264 21.7081C7.09867 21.5459 7.22635 21.5222 7.32025 21.5287C7.33691 21.5298 7.40154 21.539 7.58019 21.6044C7.75533 21.6686 7.98326 21.7646 8.32056 21.9071C9.60633 22.4501 11.0191 22.75 12.5 22.75C18.4371 22.75 23.25 17.937 23.25 12C23.25 6.06294 18.4371 1.25 12.5 1.25ZM14.2007 14.6584C14.5649 14.6584 14.8662 14.5347 15.1095 14.3766C15.192 14.323 15.2332 14.2963 15.3836 14.147C15.5341 13.9976 15.6033 13.8932 15.7419 13.6844L18.432 9.62859C18.5414 9.4637 18.5165 9.2415 18.3735 9.10638C18.2252 8.96626 17.9975 8.96434 17.847 9.10193L14.8658 11.8271C14.4948 12.1662 13.9374 12.1344 13.6194 11.7428L12.9485 10.9169L12.9115 10.8713C12.6192 10.5113 12.3385 10.1657 12.077 9.91841C11.7963 9.65286 11.3769 9.34157 10.7993 9.34157C10.4351 9.34157 10.1338 9.46537 9.89049 9.62342C9.80804 9.67698 9.76682 9.70376 9.61638 9.85307C9.46595 10.0024 9.39669 10.1068 9.25817 10.3156L6.56794 14.3714C6.45857 14.5363 6.48348 14.7585 6.62649 14.8936C6.77477 15.0337 7.00244 15.0356 7.15295 14.8981L10.1343 12.1729C10.5052 11.8338 11.0626 11.8656 11.3807 12.2572L12.0516 13.0831L12.0885 13.1287C12.3808 13.4887 12.6615 13.8343 12.923 14.0816C13.2038 14.3472 13.6231 14.6584 14.2007 14.6584Z" fill="#0055F1"/>
</svg>
