<svg width="25" height="24" viewBox="0 0 25 24" fill="none" xmlns="http://www.w3.org/2000/svg">
<path fill-rule="evenodd" clip-rule="evenodd" d="M12.5 1.25C6.56296 1.25 1.75002 6.06294 1.75002 12C1.75002 13.4809 2.04989 14.8937 2.59293 16.1794C2.73539 16.5167 2.83142 16.7447 2.89557 16.9198C2.96099 17.0985 2.97018 17.1631 2.97134 17.1797C2.97783 17.2736 2.95407 17.4013 2.79192 18.0074L1.7755 21.8061C1.70627 22.0649 1.78029 22.3409 1.96969 22.5303C2.15909 22.7197 2.43512 22.7937 2.69387 22.7245L6.49264 21.7081C7.09867 21.5459 7.22635 21.5222 7.32026 21.5287C7.33692 21.5298 7.40154 21.539 7.58019 21.6044C7.75534 21.6686 7.98326 21.7646 8.32056 21.9071C9.60634 22.4501 11.0191 22.75 12.5 22.75C18.4371 22.75 23.25 17.937 23.25 12C23.25 6.06294 18.4371 1.25 12.5 1.25ZM9.4729 6.25003L9.38025 6.24992C8.90058 6.24911 8.45809 6.24836 8.02291 6.44714C7.70676 6.59156 7.43775 6.83691 7.24186 7.08196C7.04597 7.32701 6.8659 7.64346 6.79467 7.98366C6.69703 8.45 6.77755 8.80483 6.86369 9.18441L6.87558 9.23691C7.3101 11.1612 8.32592 13.048 9.88873 14.6109C11.4515 16.1737 13.3384 17.1895 15.2627 17.624L15.3152 17.6359C15.6948 17.722 16.0496 17.8026 16.5159 17.7049C16.8561 17.6337 17.1726 17.4536 17.4176 17.2577C17.6627 17.0618 17.908 16.7928 18.0525 16.4767C18.2512 16.0415 18.2505 15.599 18.2497 15.1193L18.2496 15.0267C18.2496 14.8063 18.2428 14.4352 18.0998 14.0922C17.9291 13.6824 17.5773 13.3447 17.0258 13.2583L17.0201 13.2574C16.3368 13.1503 15.817 13.0688 15.4496 13.0154C15.2657 12.9887 15.1131 12.9679 14.9937 12.9544C14.8955 12.9432 14.7605 12.9292 14.6475 12.9358C14.1579 12.9645 13.7686 13.1631 13.467 13.3697C13.2751 13.5013 13.0665 13.6774 12.9025 13.8159C12.8381 13.8703 12.7805 13.9189 12.7336 13.9567L12.6562 14.019C12.361 14.2567 12.2133 14.3756 12.0313 14.3719C11.8493 14.3681 11.7157 14.2512 11.4486 14.0174C11.2787 13.8687 11.1121 13.7129 10.9494 13.5502C10.7866 13.3874 10.6309 13.2209 10.4821 13.051C10.2484 12.7839 10.1315 12.6503 10.1277 12.4683C10.124 12.2863 10.2428 12.1386 10.4805 11.8434L10.5428 11.766C10.5807 11.719 10.6293 11.6615 10.6837 11.5971C10.8222 11.4331 10.9983 11.2245 11.1299 11.0326C11.3365 10.731 11.5351 10.3416 11.5638 9.8521C11.5704 9.73913 11.5564 9.60408 11.5452 9.50593C11.5316 9.38651 11.5109 9.23387 11.4842 9.04997C11.4308 8.68248 11.3493 8.16301 11.2422 7.47946L11.2413 7.47377C11.1549 6.92233 10.8172 6.57053 10.4074 6.39977C10.0644 6.25683 9.69327 6.25003 9.4729 6.25003Z" fill="#0055F1"/>
</svg>
